<svg width="788" height="199" viewBox="0 0 788 199" fill="none" xmlns="http://www.w3.org/2000/svg">
<path d="M46.0888 198.473C31.549 198.473 20.1132 195.287 11.7814 188.916C3.61295 182.381 -0.307887 173.477 0.0188503 162.205H26.4846C26.8113 166.616 29.0168 170.128 33.101 172.742C37.3486 175.356 42.8214 176.663 49.5196 176.663H58.0964C66.2649 176.663 72.7996 175.029 77.7006 171.762C82.7651 168.495 85.7057 164.002 86.5226 158.284C88.3196 148.155 82.1933 142.11 68.1436 140.15L48.7844 137.454C21.1751 134.024 9.24919 120.873 13.0067 98.0009C14.9671 85.5849 20.7667 75.9462 30.4054 69.0847C40.2076 62.2232 53.032 58.7925 68.8787 58.7925H77.7006C91.587 58.7925 102.451 61.8965 110.293 68.1045C118.134 74.3125 121.974 82.8893 121.81 93.835H95.0994C94.7727 89.7508 92.7306 86.5651 88.9731 84.278C85.379 81.8274 80.4779 80.6022 74.2699 80.6022H65.448C57.933 80.6022 51.8884 82.0725 47.3141 85.0131C42.7398 87.7904 39.9625 92.038 38.9823 97.7559C37.512 107.231 43.0665 112.786 55.6459 114.42L75.2501 117.115C104.166 121.036 116.746 134.514 112.988 157.549C110.864 170.782 104.738 180.911 94.6093 187.935C84.6438 194.96 71.3293 198.473 54.6657 198.473H46.0888ZM135.633 146.767L149.111 61.243H176.067L162.099 146.767C159.158 165.554 166.51 174.948 184.154 174.948C201.961 174.948 212.335 165.554 215.275 146.767L228.998 61.243H255.464L241.986 146.767C239.372 163.267 232.756 176.009 222.137 184.995C211.518 193.98 197.632 198.473 180.478 198.473C163.814 198.473 151.48 193.898 143.475 184.75C135.633 175.601 133.019 162.94 135.633 146.767ZM262.671 145.296L267.817 111.479C269.124 103.637 271.411 96.4489 274.678 89.9142C277.946 83.3794 281.948 77.8249 286.686 73.2506C291.424 68.6763 296.815 65.1638 302.859 62.7133C308.904 60.0994 315.357 58.7925 322.219 58.7925C332.021 58.7925 339.699 61.0796 345.254 65.654C350.972 70.2283 354.076 76.518 354.566 84.523H356.526C356.526 83.7062 356.608 82.3992 356.771 80.6022C356.935 78.8051 357.098 76.763 357.261 74.4759C357.588 72.1887 357.915 69.9015 358.241 67.6144C358.568 65.1638 358.813 63.0401 358.977 61.243L366.083 17.1335H392.549L364.368 196.022H338.882L342.558 172.742H340.598C337.494 180.584 332.348 186.873 325.159 191.611C318.134 196.185 309.803 198.473 300.164 198.473C293.302 198.473 287.258 197.247 282.03 194.797C276.802 192.183 272.473 188.589 269.042 184.015C265.775 179.277 263.569 173.641 262.426 167.106C261.282 160.571 261.364 153.301 262.671 145.296ZM312.417 174.948C320.912 174.948 328.1 172.497 333.981 167.596C339.863 162.532 343.702 155.752 345.499 147.257L351.625 109.028C352.442 100.697 350.645 94.1618 346.234 89.4241C341.986 84.523 335.86 82.0725 327.855 82.0725C318.87 82.0725 311.436 84.7681 305.555 90.1592C299.674 95.387 295.998 102.657 294.528 111.969L289.137 145.051C287.666 154.363 288.973 161.715 293.057 167.106C297.142 172.334 303.595 174.948 312.417 174.948ZM419.36 145.296C417.889 154.445 419.36 161.633 423.771 166.861C428.182 172.089 435.043 174.703 444.355 174.703C453.504 174.703 461.1 172.17 467.145 167.106C473.353 161.878 477.192 154.608 478.663 145.296L483.809 111.724C485.279 102.575 483.727 95.387 479.153 90.1592C474.742 84.9314 467.962 82.3176 458.813 82.3176C449.828 82.3176 442.231 85.0131 436.023 90.4043C429.815 95.6321 426.058 102.739 424.751 111.724L419.36 145.296ZM398.04 111.724C399.347 103.555 401.798 96.2039 405.392 89.6691C408.986 83.1344 413.56 77.5798 419.115 73.0055C424.833 68.4312 431.367 64.9188 438.719 62.4683C446.071 60.0177 454.076 58.7925 462.734 58.7925C471.393 58.7925 478.908 60.0177 485.279 62.4683C491.814 64.9188 497.123 68.4312 501.208 73.0055C505.455 77.5798 508.396 83.1344 510.029 89.6691C511.663 96.2039 511.826 103.555 510.52 111.724L505.373 145.296C502.596 161.796 495.49 174.784 484.054 184.26C472.618 193.735 458.078 198.473 440.434 198.473C431.939 198.473 424.424 197.247 417.889 194.797C411.355 192.346 405.964 188.834 401.716 184.26C397.632 179.522 394.773 173.886 393.139 167.351C391.505 160.816 391.342 153.465 392.649 145.296L398.04 111.724ZM518.216 196.022L546.642 17.1335H573.598L557.915 115.89H581.44L626.775 61.243H657.651L602.515 127.897L637.067 196.022H606.19L578.009 139.17H554.239L545.172 196.022H518.216ZM701.371 198.473C692.876 198.473 685.361 197.247 678.826 194.797C672.291 192.346 666.9 188.834 662.653 184.26C658.568 179.685 655.709 174.212 654.076 167.841C652.442 161.47 652.279 154.281 653.586 146.276L659.222 110.989C660.529 102.984 662.979 95.7955 666.573 89.4241C670.168 82.8894 674.742 77.4165 680.296 73.0055C686.014 68.4312 692.467 64.9188 699.656 62.4683C707.007 60.0177 715.012 58.7925 723.671 58.7925C732.166 58.7925 739.599 60.0177 745.971 62.4683C752.505 64.9188 757.815 68.4312 761.899 73.0055C766.147 77.5798 769.087 83.1344 770.721 89.6691C772.518 96.0405 772.763 103.147 771.456 110.989L767.535 135.739H681.522L680.051 145.296C678.581 155.098 680.051 162.777 684.462 168.331C688.873 173.722 695.735 176.418 705.047 176.418C711.908 176.418 718.035 175.274 723.426 172.987C728.817 170.7 732.983 167.514 735.923 163.43H762.144C759.857 168.658 756.671 173.477 752.587 177.888C748.666 182.136 744.092 185.812 738.864 188.916C733.636 191.856 727.837 194.225 721.465 196.022C715.094 197.656 708.396 198.473 701.371 198.473ZM744.255 116.38L745.235 110.989C746.706 101.513 745.235 94.1618 740.825 88.934C736.414 83.5428 729.47 80.8472 719.995 80.8472C710.683 80.8472 703.005 83.5428 696.96 88.934C690.915 94.1618 687.158 101.513 685.688 110.989L684.707 116.38H744.255ZM751.117 0.959961H720.73L696.715 36.7377H721.955L751.117 0.959961Z" fill="#3A393D"/>
<path d="M60.8315 197.513C46.2917 197.513 34.8559 194.327 26.5241 187.956C18.3557 181.421 14.4348 172.517 14.7615 161.245H41.2272C41.554 165.656 43.7595 169.168 47.8437 171.782C52.0913 174.396 57.5641 175.703 64.2622 175.703H72.8391C81.0075 175.703 87.5423 174.069 92.4433 170.802C97.5077 167.535 100.448 163.042 101.265 157.324C103.062 147.195 96.936 141.151 82.8863 139.19L63.5271 136.495C35.9178 133.064 23.9919 119.913 27.7494 97.041C29.7098 84.625 35.5093 74.9862 45.1481 68.1247C54.9502 61.2632 67.7747 57.8325 83.6214 57.8325H92.4433C106.33 57.8325 117.194 60.9365 125.035 67.1445C132.877 73.3525 136.716 81.9294 136.553 92.8751H109.842C109.515 88.7909 107.473 85.6052 103.716 83.318C100.122 80.8675 95.2206 79.6422 89.0126 79.6422H80.1907C72.6757 79.6422 66.6311 81.1125 62.0568 84.0532C57.4824 86.8304 54.7052 91.078 53.725 96.7959C52.2546 106.271 57.8092 111.826 70.3886 113.46L89.9928 116.155C118.909 120.076 131.488 133.554 127.731 156.589C125.607 169.822 119.481 179.951 109.352 186.975C99.3865 194 86.072 197.513 69.4084 197.513H60.8315ZM150.376 145.807L163.854 60.283H190.81L176.842 145.807C173.901 164.594 181.253 173.988 198.896 173.988C216.704 173.988 227.078 164.594 230.018 145.807L243.741 60.283H270.207L256.729 145.807C254.115 162.307 247.499 175.05 236.88 184.035C226.261 193.02 212.374 197.513 195.221 197.513C178.557 197.513 166.223 192.938 158.218 183.79C150.376 174.641 147.762 161.98 150.376 145.807ZM277.413 144.336L282.56 110.519C283.867 102.677 286.154 95.489 289.421 88.9542C292.688 82.4195 296.691 76.865 301.429 72.2906C306.166 67.7163 311.558 64.2039 317.602 61.7533C323.647 59.1394 330.1 57.8325 336.961 57.8325C346.764 57.8325 354.442 60.1196 359.996 64.694C365.714 69.2683 368.818 75.558 369.308 83.5631H371.269C371.269 82.7462 371.35 81.4393 371.514 79.6422C371.677 77.8452 371.841 75.8031 372.004 73.5159C372.331 71.2287 372.657 68.9416 372.984 66.6544C373.311 64.2039 373.556 62.0801 373.719 60.283L380.826 16.1735H407.292L379.11 195.062H353.625L357.301 171.782H355.34C352.236 179.624 347.09 185.914 339.902 190.651C332.877 195.226 324.545 197.513 314.907 197.513C308.045 197.513 302 196.287 296.773 193.837C291.545 191.223 287.216 187.629 283.785 183.055C280.518 178.317 278.312 172.681 277.168 166.146C276.025 159.611 276.107 152.341 277.413 144.336ZM327.159 173.988C335.654 173.988 342.843 171.537 348.724 166.636C354.605 161.572 358.444 154.792 360.241 146.297L366.368 108.068C367.185 99.7366 365.388 93.2018 360.977 88.4641C356.729 83.5631 350.603 81.1125 342.598 81.1125C333.612 81.1125 326.179 83.8081 320.298 89.1993C314.417 94.4271 310.741 101.697 309.27 111.009L303.879 144.091C302.409 153.403 303.716 160.755 307.8 166.146C311.884 171.374 318.337 173.988 327.159 173.988ZM434.102 144.336C432.632 153.485 434.102 160.673 438.513 165.901C442.924 171.129 449.786 173.743 459.098 173.743C468.247 173.743 475.843 171.21 481.888 166.146C488.096 160.918 491.935 153.648 493.405 144.336L498.551 110.764C500.022 101.615 498.47 94.4271 493.895 89.1993C489.484 83.9715 482.705 81.3576 473.556 81.3576C464.571 81.3576 456.974 84.0532 450.766 89.4444C444.558 94.6722 440.801 101.779 439.494 110.764L434.102 144.336ZM412.783 110.764C414.09 102.596 416.54 95.2439 420.134 88.7092C423.729 82.1744 428.303 76.6199 433.857 72.0456C439.575 67.4712 446.11 63.9588 453.462 61.5083C460.813 59.0578 468.818 57.8325 477.477 57.8325C486.135 57.8325 493.65 59.0578 500.022 61.5083C506.557 63.9588 511.866 67.4712 515.95 72.0456C520.198 76.6199 523.138 82.1744 524.772 88.7092C526.406 95.2439 526.569 102.596 525.262 110.764L520.116 144.336C517.339 160.836 510.232 173.824 498.796 183.3C487.361 192.775 472.821 197.513 455.177 197.513C446.682 197.513 439.167 196.287 432.632 193.837C426.097 191.386 420.706 187.874 416.459 183.3C412.374 178.562 409.515 172.926 407.882 166.391C406.248 159.856 406.085 152.505 407.392 144.336L412.783 110.764ZM532.959 195.062L561.385 16.1735H588.341L572.658 114.93H596.183L641.517 60.283H672.394L617.257 126.937L651.81 195.062H620.933L592.752 138.21H568.982L559.915 195.062H532.959ZM716.114 197.513C707.619 197.513 700.103 196.287 693.569 193.837C687.034 191.386 681.643 187.874 677.395 183.3C673.311 178.725 670.452 173.252 668.818 166.881C667.185 160.51 667.021 153.321 668.328 145.316L673.964 110.029C675.271 102.024 677.722 94.8355 681.316 88.4641C684.91 81.9294 689.485 76.4565 695.039 72.0456C700.757 67.4712 707.21 63.9588 714.398 61.5083C721.75 59.0578 729.755 57.8325 738.413 57.8325C746.909 57.8325 754.342 59.0578 760.713 61.5083C767.248 63.9588 772.558 67.4712 776.642 72.0456C780.889 76.6199 783.83 82.1744 785.464 88.7092C787.261 95.0806 787.506 102.187 786.199 110.029L782.278 134.779H696.264L694.794 144.336C693.324 154.138 694.794 161.817 699.205 167.371C703.616 172.762 710.477 175.458 719.789 175.458C726.651 175.458 732.777 174.314 738.168 172.027C743.56 169.74 747.725 166.554 750.666 162.47H776.887C774.6 167.698 771.414 172.517 767.33 176.928C763.409 181.176 758.834 184.852 753.607 187.956C748.379 190.896 742.579 193.265 736.208 195.062C729.837 196.696 723.139 197.513 716.114 197.513ZM758.998 115.42L759.978 110.029C761.448 100.553 759.978 93.2018 755.567 87.974C751.156 82.5828 744.213 79.8873 734.738 79.8873C725.426 79.8873 717.747 82.5828 711.703 87.974C705.658 93.2018 701.901 100.553 700.43 110.029L699.45 115.42H758.998ZM765.859 0H735.473L711.458 35.7777H736.698L765.859 0Z" fill="#626069"/>
</svg>
