<svg width="92" height="92" viewBox="0 0 92 92" fill="none" xmlns="http://www.w3.org/2000/svg">
<path fill-rule="evenodd" clip-rule="evenodd" d="M27.6 26.0667V23H26.0667V26.0667H23V27.6H26.0667V30.6667H27.6V27.6H30.6667V26.0667H27.6ZM27.6 3.06667V0H26.0667V3.06667H23V4.6H26.0667V7.66667H27.6V4.6H30.6667V3.06667H27.6ZM4.6 26.0667V23H3.06667V26.0667H0V27.6H3.06667V30.6667H4.6V27.6H7.66667V26.0667H4.6ZM4.6 3.06667V0H3.06667V3.06667H0V4.6H3.06667V7.66667H4.6V4.6H7.66667V3.06667H4.6Z" fill="#8456FF"/>
<path fill-rule="evenodd" clip-rule="evenodd" d="M27.6 72.0667V69H26.0667V72.0667H23V73.6H26.0667V76.6667H27.6V73.6H30.6667V72.0667H27.6ZM27.6 49.0667V46H26.0667V49.0667H23V50.6H26.0667V53.6667H27.6V50.6H30.6667V49.0667H27.6ZM4.6 72.0667V69H3.06667V72.0667H0V73.6H3.06667V76.6667H4.6V73.6H7.66667V72.0667H4.6ZM4.6 49.0667V46H3.06667V49.0667H0V50.6H3.06667V53.6667H4.6V50.6H7.66667V49.0667H4.6Z" fill="#8456FF"/>
<path fill-rule="evenodd" clip-rule="evenodd" d="M73.6 26.0667V23H72.0667V26.0667H69V27.6H72.0667V30.6667H73.6V27.6H76.6667V26.0667H73.6ZM73.6 3.06667V0H72.0667V3.06667H69V4.6H72.0667V7.66667H73.6V4.6H76.6667V3.06667H73.6ZM50.6 26.0667V23H49.0667V26.0667H46V27.6H49.0667V30.6667H50.6V27.6H53.6667V26.0667H50.6ZM50.6 3.06667V0H49.0667V3.06667H46V4.6H49.0667V7.66667H50.6V4.6H53.6667V3.06667H50.6Z" fill="#8456FF"/>
<path fill-rule="evenodd" clip-rule="evenodd" d="M73.6 72.0667V69H72.0667V72.0667H69V73.6H72.0667V76.6667H73.6V73.6H76.6667V72.0667H73.6ZM73.6 49.0667V46H72.0667V49.0667H69V50.6H72.0667V53.6667H73.6V50.6H76.6667V49.0667H73.6ZM50.6 72.0667V69H49.0667V72.0667H46V73.6H49.0667V76.6667H50.6V73.6H53.6667V72.0667H50.6ZM50.6 49.0667V46H49.0667V49.0667H46V50.6H49.0667V53.6667H50.6V50.6H53.6667V49.0667H50.6Z" fill="#8456FF"/>
</svg>
