<svg width="471" height="451" viewBox="0 0 471 451" fill="none" xmlns="http://www.w3.org/2000/svg">
<path d="M99.9651 321.051C137.737 331.521 209.089 404.485 164.848 438.708C120.608 472.932 -11.5409 290.143 99.9651 321.051Z" fill="#ECE5FF"/>
<path d="M89.7511 309.983C249.875 342.618 201.835 425.935 308.671 445.556C452.818 472.033 520.415 255.869 430.044 122.462C357.828 15.8585 233.248 -17.8195 122.867 25.9585C-33.0399 87.8005 -36.6369 284.224 89.7511 309.983Z" fill="#ECE5FF"/>
<path d="M406.629 305.185H435.918L423.801 250.03H394.511L406.629 305.185Z" fill="#C5B0FF"/>
<path d="M380.637 264.815L405.874 236.083L446.953 264.815H380.637Z" fill="#C5B0FF"/>
<path d="M50.9183 270.634H74.0803L64.4973 227.019H41.3353L50.9183 270.634Z" fill="#D3F10B"/>
<path d="M30.3643 238.71L50.3202 215.99L82.8042 238.71H30.3643Z" fill="#D3F10B"/>
<path d="M156.907 99.6005H172.479L166.037 70.2755H150.463L156.907 99.6005Z" fill="#C5B0FF"/>
<path d="M143.086 78.1355L156.504 62.8595L178.346 78.1355H143.086Z" fill="#C5B0FF"/>
<path d="M365.649 144.151H387.245L378.31 103.483H356.714L365.649 144.151Z" fill="#D3F10B"/>
<path d="M346.484 114.384L365.091 93.2005L395.38 114.384H346.484Z" fill="#D3F10B"/>
<path d="M320.163 79.5725H320.266C325.949 74.9825 333.075 73.5164 339.978 75.6454C339.33 73.5624 338.298 71.6115 339.208 69.3885C340.135 67.1175 342.666 65.7924 344.889 65.1714C348.955 64.0324 353.333 64.5724 356.515 67.0804C357.675 61.5904 362.325 56.9285 368.329 57.2015C374.684 57.4905 379.093 63.2135 379.253 69.1835C382.591 68.2705 386.284 67.9035 389.578 69.0275C392.425 70.0005 393.195 72.8574 395.297 73.7834C398.146 75.0354 401.431 72.8325 403.951 75.5265C405.045 76.6985 405.329 78.0575 404.937 79.3795C404.397 80.4195 403.581 81.3265 402.631 82.0655H321.078C320.515 82.4065 319.882 82.2475 319.489 81.8485C318.622 81.2575 318.833 79.5725 320.163 79.5725Z" fill="white"/>
<path d="M48.4622 70.5335H48.5422C52.9692 66.9585 58.5202 65.8165 63.8972 67.4745C63.3912 65.8515 62.5882 64.3315 63.2972 62.5995C64.0192 60.8305 65.9903 59.7985 67.7223 59.3155C70.8903 58.4285 74.3011 58.8495 76.7791 60.8025C77.6821 56.5255 81.3041 52.8945 85.9821 53.1075C90.9331 53.3325 94.3672 57.7905 94.4922 62.4415C97.0932 61.7305 99.9702 61.4445 102.535 62.3195C104.754 63.0775 105.353 65.3025 106.99 66.0245C109.209 67.0005 111.768 65.2845 113.731 67.3825C114.584 68.2945 114.805 69.3535 114.5 70.3835C114.08 71.1935 113.443 71.9005 112.704 72.4755H49.1762C48.7372 72.7415 48.2432 72.6175 47.9382 72.3065C47.2622 71.8445 47.4262 70.5335 48.4622 70.5335Z" fill="white"/>
<path d="M381.822 449.821L431.064 449.972C431.737 449.974 432.284 449.431 432.286 448.758L432.3 444.348C432.302 443.676 431.759 443.13 431.086 443.128L381.843 442.977C381.171 442.974 380.624 443.518 380.622 444.191L380.608 448.599C380.606 449.271 381.149 449.819 381.822 449.821Z" fill="white"/>
<path d="M431.068 450.357C431.495 450.357 431.895 450.191 432.198 449.89C432.502 449.588 432.67 449.187 432.671 448.758L432.685 444.349C432.687 443.921 432.521 443.52 432.219 443.216C431.917 442.912 431.515 442.743 431.087 442.742L381.844 442.591C381.844 442.591 381.841 442.591 381.839 442.591C381.413 442.591 381.012 442.756 380.71 443.057C380.406 443.359 380.238 443.761 380.237 444.19L380.223 448.598C380.221 449.025 380.386 449.428 380.687 449.732C380.99 450.037 381.392 450.205 381.821 450.206L431.063 450.357C431.063 450.357 431.066 450.357 431.068 450.357ZM381.838 443.362H381.841L431.084 443.513C431.306 443.514 431.515 443.6 431.672 443.758C431.828 443.915 431.914 444.124 431.914 444.347L431.9 448.757C431.899 448.98 431.812 449.187 431.654 449.344C431.497 449.5 431.289 449.586 431.067 449.586H431.064L381.822 449.435C381.599 449.434 381.39 449.347 381.233 449.19C381.077 449.032 380.991 448.824 380.992 448.602L381.006 444.191C381.007 443.968 381.094 443.76 381.252 443.603C381.41 443.447 381.618 443.362 381.838 443.362Z" fill="#1A0260"/>
<path d="M431.069 450.239C431.464 450.239 431.835 450.086 432.115 449.807C432.396 449.527 432.552 449.155 432.553 448.758L432.568 444.349C432.568 443.953 432.416 443.58 432.136 443.299C431.856 443.018 431.484 442.861 431.087 442.86L381.844 442.709C381.842 442.709 381.841 442.709 381.839 442.709C381.444 442.709 381.072 442.862 380.793 443.141C380.512 443.421 380.356 443.793 380.355 444.19L380.341 448.599C380.34 448.995 380.493 449.369 380.773 449.65C381.053 449.931 381.425 450.087 381.822 450.088L431.065 450.239C431.065 450.239 431.067 450.239 431.069 450.239ZM381.838 443.243H381.841L431.085 443.394C431.338 443.395 431.576 443.495 431.756 443.674C431.935 443.854 432.033 444.094 432.032 444.347L432.017 448.758C432.017 449.012 431.917 449.249 431.737 449.429C431.558 449.607 431.32 449.705 431.068 449.705C431.066 449.705 431.066 449.705 431.064 449.705L381.822 449.554C381.568 449.553 381.329 449.453 381.15 449.273C380.97 449.093 380.873 448.854 380.874 448.601L380.888 444.19C380.889 443.936 380.988 443.699 381.168 443.519C381.348 443.341 381.585 443.243 381.838 443.243Z" fill="#1A0260"/>
<path d="M377.166 443.052L426.409 443.203C427.081 443.205 427.628 442.662 427.63 441.99L427.644 437.581C427.646 436.908 427.103 436.361 426.43 436.359L377.187 436.208C376.515 436.206 375.968 436.749 375.966 437.422L375.952 441.831C375.95 442.504 376.493 443.05 377.166 443.052Z" fill="white"/>
<path d="M426.41 443.591C427.292 443.591 428.012 442.874 428.015 441.992L428.028 437.583C428.03 437.155 427.864 436.752 427.562 436.448C427.26 436.144 426.859 435.977 426.43 435.976L377.188 435.825C377.187 435.825 377.185 435.825 377.183 435.825C376.756 435.825 376.356 435.989 376.053 436.29C375.749 436.592 375.581 436.993 375.58 437.422L375.566 441.831C375.564 442.259 375.73 442.662 376.032 442.966C376.334 443.27 376.735 443.437 377.164 443.438L426.407 443.591C426.409 443.591 426.409 443.591 426.41 443.591ZM377.183 436.593C377.184 436.593 377.185 436.593 377.186 436.593L426.428 436.744C426.651 436.745 426.859 436.832 427.016 436.99C427.172 437.147 427.258 437.358 427.258 437.581L427.245 441.988C427.243 442.446 426.868 442.82 426.41 442.82L377.166 442.667C376.943 442.666 376.735 442.579 376.578 442.421C376.422 442.264 376.336 442.055 376.336 441.832L376.35 437.424C376.352 436.967 376.725 436.593 377.183 436.593Z" fill="#1A0260"/>
<path d="M426.412 443.471C427.228 443.471 427.894 442.808 427.897 441.992L427.911 437.583C427.911 437.187 427.759 436.813 427.479 436.531C427.199 436.25 426.827 436.094 426.43 436.093L377.188 435.942C377.186 435.942 377.185 435.942 377.183 435.942C376.788 435.942 376.416 436.095 376.136 436.374C375.856 436.654 375.699 437.027 375.698 437.424L375.685 441.832C375.684 442.228 375.836 442.602 376.117 442.883C376.396 443.164 376.768 443.32 377.165 443.321L426.408 443.472L426.412 443.471ZM377.183 436.476H377.186L426.429 436.627C426.683 436.628 426.92 436.727 427.1 436.906C427.279 437.087 427.377 437.327 427.376 437.581L427.362 441.989C427.36 442.511 426.934 442.936 426.412 442.936C426.41 442.936 426.41 442.936 426.408 442.936L377.166 442.785C376.912 442.784 376.674 442.685 376.494 442.505C376.315 442.325 376.217 442.086 376.219 441.832L376.232 437.422C376.233 437.168 376.333 436.932 376.512 436.752C376.692 436.574 376.93 436.476 377.183 436.476Z" fill="#1A0260"/>
<path d="M380.427 436.209L429.67 436.36C430.343 436.362 430.889 435.819 430.892 435.146L430.905 430.737C430.907 430.064 430.364 429.517 429.692 429.515L380.449 429.364C379.776 429.362 379.229 429.906 379.227 430.578L379.213 434.987C379.211 435.66 379.755 436.207 380.427 436.209Z" fill="white"/>
<path d="M429.674 436.745C430.556 436.745 431.275 436.03 431.277 435.148L431.29 430.738C431.292 430.31 431.127 429.908 430.825 429.604C430.523 429.299 430.121 429.131 429.692 429.13L380.45 428.979C380.45 428.979 380.447 428.979 380.445 428.979C379.563 428.979 378.844 429.695 378.842 430.577L378.828 434.987C378.825 435.871 379.542 436.591 380.426 436.593L429.669 436.744C429.669 436.744 429.672 436.745 429.674 436.745ZM380.445 429.749H380.448L429.69 429.9C429.913 429.901 430.122 429.989 430.279 430.146C430.435 430.304 430.521 430.513 430.52 430.735L430.507 435.145C430.505 435.603 430.132 435.976 429.674 435.976H429.671L380.428 435.825C379.969 435.823 379.597 435.447 379.598 434.988L379.612 430.58C379.614 430.122 379.987 429.749 380.445 429.749Z" fill="#1A0260"/>
<path d="M429.674 436.628C430.069 436.628 430.44 436.474 430.721 436.195C431.001 435.916 431.158 435.545 431.159 435.148L431.173 430.738C431.175 429.92 430.511 429.251 429.693 429.249L380.451 429.098C380.449 429.098 380.447 429.098 380.447 429.098C379.631 429.098 378.965 429.761 378.961 430.577L378.948 434.987C378.947 435.383 379.1 435.758 379.38 436.039C379.66 436.32 380.031 436.476 380.429 436.477L429.671 436.628C429.671 436.628 429.672 436.628 429.674 436.628ZM380.445 429.633H380.448L429.691 429.784C430.215 429.785 430.64 430.212 430.638 430.737L430.625 435.145C430.624 435.399 430.523 435.637 430.344 435.816C430.165 435.995 429.926 436.092 429.674 436.092C429.674 436.092 429.672 436.092 429.67 436.092L380.428 435.941C380.174 435.941 379.936 435.841 379.757 435.661C379.577 435.481 379.479 435.242 379.481 434.988L379.494 430.58C379.497 430.056 379.922 429.633 380.445 429.633Z" fill="#1A0260"/>
<path d="M384.036 429.441L433.279 429.592C433.951 429.594 434.498 429.051 434.501 428.378L434.514 423.969C434.516 423.297 433.973 422.75 433.3 422.748L384.057 422.597C383.385 422.595 382.838 423.138 382.836 423.811L382.822 428.219C382.82 428.892 383.363 429.439 384.036 429.441Z" fill="white"/>
<path d="M433.283 429.977C433.709 429.977 434.11 429.812 434.412 429.511C434.716 429.209 434.884 428.808 434.885 428.379L434.899 423.971C434.901 423.542 434.735 423.138 434.432 422.834C434.13 422.531 433.729 422.363 433.301 422.363L384.058 422.211C384.058 422.211 384.055 422.211 384.053 422.211C383.627 422.211 383.226 422.376 382.924 422.677C382.62 422.979 382.452 423.382 382.451 423.81L382.437 428.218C382.435 428.646 382.601 429.049 382.903 429.353C383.205 429.657 383.606 429.825 384.035 429.826L433.278 429.977C433.278 429.977 433.281 429.977 433.283 429.977ZM384.052 422.982H384.055L433.298 423.133C433.521 423.134 433.729 423.221 433.885 423.378C434.042 423.535 434.128 423.745 434.128 423.968L434.114 428.378C434.113 428.601 434.026 428.809 433.868 428.966C433.711 429.122 433.503 429.207 433.282 429.207H433.279L384.036 429.056C383.813 429.055 383.605 428.968 383.448 428.81C383.292 428.653 383.206 428.444 383.206 428.221L383.22 423.811C383.221 423.589 383.308 423.38 383.466 423.223C383.624 423.067 383.832 422.982 384.052 422.982Z" fill="#1A0260"/>
<path d="M433.284 429.859C433.679 429.859 434.049 429.706 434.329 429.427C434.61 429.148 434.766 428.776 434.767 428.379L434.781 423.971C434.783 423.153 434.119 422.485 433.301 422.482L384.058 422.331C384.058 422.331 384.056 422.331 384.054 422.331C383.659 422.331 383.287 422.484 383.007 422.763C382.726 423.042 382.57 423.413 382.569 423.81L382.556 428.221C382.554 428.617 382.707 428.99 382.988 429.271C383.267 429.552 383.639 429.708 384.036 429.709L433.279 429.86C433.279 429.86 433.282 429.859 433.284 429.859ZM384.053 422.864H384.056L433.299 423.015C433.822 423.016 434.248 423.444 434.246 423.969L434.232 428.378C434.232 428.632 434.131 428.87 433.951 429.049C433.772 429.227 433.535 429.325 433.283 429.325C433.281 429.325 433.279 429.325 433.279 429.325L384.036 429.174C383.782 429.174 383.543 429.073 383.364 428.893C383.185 428.713 383.087 428.474 383.089 428.221L383.102 423.811C383.103 423.557 383.203 423.319 383.382 423.14C383.561 422.961 383.8 422.864 384.053 422.864Z" fill="#1A0260"/>
<path d="M377.166 422.61L426.409 422.76C427.081 422.763 427.628 422.219 427.63 421.547L427.644 417.138C427.646 416.465 427.103 415.918 426.43 415.916L377.188 415.765C376.515 415.763 375.968 416.307 375.966 416.979L375.952 421.388C375.95 422.061 376.493 422.607 377.166 422.61Z" fill="white"/>
<path d="M426.415 423.145C426.84 423.145 427.239 422.981 427.542 422.681C427.846 422.378 428.014 421.978 428.015 421.549L428.029 417.139C428.031 416.711 427.865 416.308 427.563 416.004C427.261 415.7 426.86 415.532 426.431 415.531L377.189 415.38C377.188 415.38 377.186 415.38 377.184 415.38C376.302 415.38 375.583 416.096 375.581 416.978L375.567 421.388C375.564 422.271 376.281 422.991 377.164 422.994L426.408 423.144C426.41 423.145 426.413 423.145 426.415 423.145ZM377.183 416.15C377.184 416.15 377.185 416.15 377.186 416.15L426.428 416.301C426.651 416.302 426.859 416.389 427.016 416.547C427.172 416.704 427.258 416.915 427.258 417.138L427.244 421.546C427.243 421.768 427.156 421.977 426.998 422.134C426.841 422.289 426.634 422.375 426.414 422.375C426.412 422.375 426.411 422.375 426.41 422.375L377.166 422.226C376.706 422.224 376.335 421.848 376.336 421.389L376.35 416.981C376.352 416.523 376.725 416.15 377.183 416.15Z" fill="#1A0260"/>
<path d="M426.414 423.029C426.809 423.029 427.179 422.875 427.459 422.596C427.74 422.316 427.896 421.945 427.897 421.549L427.911 417.139C427.911 416.743 427.759 416.369 427.479 416.087C427.199 415.806 426.827 415.65 426.43 415.649L377.188 415.498H377.185C376.368 415.498 375.701 416.162 375.698 416.979L375.685 421.388C375.683 422.206 376.346 422.874 377.164 422.878L426.407 423.028C426.41 423.029 426.412 423.029 426.414 423.029ZM377.184 416.033H377.186L426.429 416.184C426.683 416.185 426.92 416.284 427.1 416.463C427.279 416.644 427.377 416.884 427.376 417.138L427.362 421.546C427.362 421.8 427.261 422.038 427.082 422.217C426.903 422.396 426.665 422.493 426.412 422.493H426.409L377.166 422.342C376.643 422.34 376.217 421.912 376.219 421.389L376.232 416.981C376.234 416.459 376.661 416.033 377.184 416.033Z" fill="#1A0260"/>
<path d="M378.592 402.181L427.835 402.332C428.508 402.335 429.054 401.791 429.057 401.119L429.07 396.709C429.073 396.037 428.529 395.49 427.856 395.488L378.614 395.337C377.941 395.335 377.394 395.878 377.392 396.551L377.378 400.961C377.376 401.634 377.92 402.179 378.592 402.181Z" fill="white"/>
<path d="M427.841 402.717C428.267 402.717 428.667 402.553 428.969 402.253C429.272 401.951 429.44 401.548 429.442 401.12L429.455 396.711C429.457 396.283 429.291 395.88 428.989 395.576C428.687 395.272 428.286 395.104 427.857 395.103L378.615 394.952C378.615 394.952 378.612 394.952 378.61 394.952C378.183 394.952 377.783 395.118 377.48 395.419C377.176 395.721 377.008 396.121 377.007 396.55L376.993 400.959C376.991 401.387 377.157 401.79 377.459 402.093C377.761 402.397 378.162 402.565 378.591 402.566L427.834 402.717C427.836 402.717 427.839 402.717 427.841 402.717ZM378.61 395.722H378.613L427.855 395.873C428.078 395.874 428.286 395.961 428.443 396.119C428.599 396.276 428.685 396.486 428.685 396.709L428.672 401.117C428.671 401.34 428.583 401.55 428.426 401.706C428.269 401.862 428.062 401.947 427.841 401.947C427.839 401.947 427.837 401.947 427.837 401.947L378.593 401.796C378.37 401.795 378.162 401.708 378.005 401.55C377.849 401.393 377.763 401.184 377.763 400.961L377.777 396.552C377.778 396.329 377.865 396.121 378.023 395.964C378.18 395.808 378.388 395.722 378.61 395.722Z" fill="#1A0260"/>
<path d="M427.838 402.601C428.654 402.601 429.32 401.938 429.323 401.122L429.337 396.711C429.338 396.315 429.185 395.941 428.905 395.661C428.626 395.379 428.253 395.223 427.856 395.222L378.614 395.072C378.612 395.072 378.611 395.072 378.609 395.072C378.214 395.072 377.842 395.225 377.562 395.504C377.281 395.783 377.125 396.155 377.124 396.552L377.11 400.961C377.109 401.357 377.262 401.732 377.542 402.013C377.822 402.294 378.193 402.451 378.591 402.451L427.833 402.602C427.836 402.601 427.838 402.601 427.838 402.601ZM378.61 395.604H378.613L427.856 395.757C428.11 395.757 428.348 395.856 428.527 396.036C428.706 396.216 428.804 396.455 428.803 396.709L428.789 401.118C428.787 401.642 428.349 402.069 427.836 402.065L378.593 401.914C378.339 401.913 378.101 401.813 377.921 401.634C377.742 401.453 377.645 401.214 377.646 400.961L377.659 396.552C377.66 396.298 377.76 396.061 377.94 395.882C378.12 395.704 378.357 395.604 378.61 395.604Z" fill="#1A0260"/>
<path d="M374.898 395.351L424.141 395.502C424.813 395.504 425.36 394.959 425.362 394.287L425.376 389.878C425.378 389.205 424.835 388.658 424.162 388.656L374.92 388.505C374.247 388.504 373.7 389.047 373.698 389.719L373.684 394.128C373.682 394.801 374.225 395.349 374.898 395.351Z" fill="white"/>
<path d="M424.145 395.886C424.571 395.886 424.972 395.721 425.274 395.42C425.578 395.118 425.746 394.717 425.747 394.289L425.761 389.879C425.763 389.451 425.597 389.048 425.295 388.744C424.993 388.44 424.592 388.272 424.163 388.271L374.921 388.12C374.921 388.12 374.918 388.12 374.916 388.12C374.034 388.12 373.315 388.836 373.313 389.718L373.299 394.128C373.297 394.556 373.463 394.959 373.765 395.263C374.067 395.567 374.468 395.734 374.897 395.735L424.14 395.886C424.14 395.886 424.143 395.886 424.145 395.886ZM374.916 388.89H374.919L424.161 389.041C424.384 389.042 424.592 389.129 424.749 389.287C424.905 389.444 424.991 389.655 424.991 389.878L424.977 394.286C424.976 394.508 424.889 394.717 424.731 394.874C424.573 395.03 424.394 395.127 424.142 395.117L374.899 394.966C374.676 394.965 374.468 394.877 374.311 394.719C374.155 394.562 374.069 394.352 374.069 394.129L374.083 389.721C374.084 389.263 374.458 388.89 374.916 388.89Z" fill="#1A0260"/>
<path d="M424.145 395.768C424.54 395.768 424.911 395.615 425.191 395.336C425.472 395.057 425.629 394.686 425.629 394.289L425.643 389.879C425.644 389.483 425.491 389.108 425.21 388.828C424.932 388.547 424.559 388.39 424.162 388.39L374.919 388.239C374.919 388.239 374.916 388.239 374.914 388.239C374.519 388.239 374.148 388.392 373.868 388.671C373.587 388.95 373.431 389.324 373.43 389.721L373.415 394.129C373.415 394.525 373.567 394.899 373.847 395.18C374.127 395.461 374.499 395.617 374.896 395.618L424.139 395.769C424.139 395.769 424.143 395.768 424.145 395.768ZM374.915 388.773C374.917 388.773 374.917 388.773 374.919 388.773L424.161 388.924C424.415 388.925 424.654 389.025 424.833 389.205C425.013 389.385 425.11 389.624 425.108 389.878L425.095 394.286C425.094 394.54 424.994 394.778 424.815 394.957C424.636 395.136 424.397 395.233 424.145 395.233C424.143 395.233 424.143 395.233 424.141 395.233L374.899 395.082C374.645 395.082 374.407 394.982 374.227 394.802C374.048 394.622 373.95 394.383 373.951 394.129L373.966 389.721C373.966 389.467 374.066 389.228 374.246 389.049C374.424 388.871 374.663 388.773 374.915 388.773Z" fill="#1A0260"/>
<path d="M377.166 415.842L426.409 415.993C427.081 415.995 427.628 415.451 427.63 414.779L427.644 410.37C427.646 409.697 427.103 409.151 426.43 409.149L377.188 408.998C376.515 408.996 375.968 409.538 375.966 410.211L375.952 414.62C375.95 415.294 376.493 415.841 377.166 415.842Z" fill="white"/>
<path d="M426.413 416.379C426.839 416.379 427.24 416.215 427.542 415.914C427.846 415.612 428.014 415.209 428.015 414.781L428.029 410.372C428.031 409.944 427.865 409.541 427.563 409.237C427.261 408.933 426.86 408.765 426.431 408.764L377.189 408.613C377.189 408.613 377.186 408.613 377.184 408.613C376.757 408.613 376.357 408.779 376.054 409.08C375.75 409.382 375.582 409.782 375.581 410.211L375.567 414.62C375.565 415.048 375.731 415.451 376.033 415.755C376.335 416.059 376.736 416.227 377.165 416.228L426.408 416.379C426.408 416.379 426.411 416.379 426.413 416.379ZM377.183 409.383H377.186L426.428 409.534C426.651 409.535 426.859 409.622 427.016 409.78C427.172 409.937 427.258 410.147 427.258 410.37L427.244 414.779C427.243 415.001 427.156 415.21 426.998 415.367C426.841 415.523 426.633 415.609 426.412 415.609H426.409L377.166 415.458C376.943 415.457 376.735 415.37 376.578 415.212C376.422 415.055 376.336 414.845 376.336 414.622L376.35 410.213C376.351 409.99 376.438 409.782 376.596 409.625C376.753 409.468 376.961 409.383 377.183 409.383Z" fill="#1A0260"/>
<path d="M426.412 416.26C427.228 416.26 427.894 415.598 427.897 414.781L427.911 410.372C427.911 409.976 427.759 409.601 427.479 409.32C427.199 409.039 426.827 408.883 426.43 408.883L377.188 408.731H377.185C376.368 408.731 375.701 409.394 375.698 410.211L375.685 414.619C375.684 415.015 375.836 415.389 376.117 415.671C376.396 415.951 376.768 416.108 377.165 416.109L426.408 416.259L426.412 416.26ZM377.184 409.264H377.186L426.429 409.416C426.683 409.417 426.92 409.516 427.1 409.696C427.279 409.876 427.377 410.115 427.376 410.369L427.362 414.779C427.36 415.301 426.934 415.727 426.412 415.727C426.41 415.727 426.41 415.727 426.408 415.727L377.166 415.575C376.912 415.575 376.674 415.474 376.495 415.295C376.315 415.114 376.217 414.876 376.219 414.622L376.232 410.212C376.234 409.69 376.661 409.264 377.184 409.264Z" fill="#1A0260"/>
<path d="M371.741 408.998L420.983 409.149C421.656 409.151 422.203 408.608 422.205 407.935L422.219 403.526C422.221 402.854 421.677 402.307 421.005 402.305L371.762 402.154C371.089 402.151 370.542 402.695 370.541 403.368L370.526 407.776C370.524 408.449 371.068 408.996 371.741 408.998Z" fill="white"/>
<path d="M420.987 409.534C421.414 409.534 421.814 409.369 422.117 409.068C422.421 408.766 422.589 408.365 422.59 407.936L422.604 403.528C422.606 403.1 422.44 402.697 422.138 402.393C421.836 402.089 421.434 401.921 421.006 401.92L371.763 401.769C371.372 401.771 370.933 401.932 370.63 402.233C370.325 402.535 370.157 402.938 370.156 403.367L370.141 407.776C370.139 408.204 370.305 408.606 370.607 408.91C370.909 409.214 371.311 409.382 371.739 409.383L420.982 409.534C420.982 409.534 420.985 409.534 420.987 409.534ZM371.755 402.539C371.757 402.539 371.759 402.539 371.759 402.539L421.003 402.69C421.225 402.691 421.434 402.778 421.591 402.936C421.747 403.093 421.833 403.302 421.833 403.525L421.819 407.935C421.818 408.158 421.731 408.366 421.573 408.523C421.416 408.679 421.208 408.764 420.986 408.764H420.983L371.74 408.613C371.518 408.612 371.309 408.525 371.152 408.367C370.996 408.21 370.91 408.002 370.91 407.779L370.925 403.369C370.926 403.146 371.014 402.936 371.171 402.78C371.328 402.625 371.536 402.539 371.755 402.539Z" fill="#1A0260"/>
<path d="M420.987 409.417C421.382 409.417 421.754 409.264 422.033 408.984C422.315 408.705 422.471 408.333 422.471 407.936L422.485 403.528C422.486 403.132 422.334 402.758 422.053 402.477C421.774 402.196 421.402 402.039 421.005 402.039L371.762 401.888H371.758C370.941 401.888 370.276 402.55 370.273 403.367L370.259 407.776C370.257 408.594 370.922 409.262 371.739 409.264L420.982 409.416C420.984 409.417 420.985 409.417 420.987 409.417ZM371.757 402.421C371.759 402.421 371.759 402.421 371.761 402.421L421.003 402.572C421.257 402.573 421.495 402.673 421.674 402.852C421.854 403.033 421.952 403.272 421.951 403.526L421.936 407.935C421.935 408.189 421.836 408.428 421.656 408.607C421.476 408.787 421.227 408.858 420.983 408.883L371.74 408.731C371.217 408.73 370.791 408.302 370.793 407.778L370.807 403.369C370.808 402.844 371.235 402.421 371.757 402.421Z" fill="#1A0260"/>
<path d="M430.393 388.651L381.15 388.802C380.478 388.804 379.931 388.26 379.929 387.588L379.915 383.18C379.913 382.507 380.456 381.959 381.129 381.957L430.371 381.806C431.044 381.804 431.591 382.348 431.593 383.02L431.607 387.43C431.609 388.103 431.066 388.649 430.393 388.651Z" fill="white"/>
<path d="M381.144 389.186C381.147 389.186 381.149 389.186 381.152 389.186L430.395 389.036C431.278 389.032 431.995 388.312 431.992 387.43L431.978 383.02C431.976 382.138 431.257 381.422 430.375 381.422C430.373 381.422 430.372 381.422 430.37 381.422L381.128 381.573C380.699 381.574 380.298 381.742 379.996 382.046C379.694 382.35 379.528 382.753 379.53 383.181L379.544 387.591C379.545 388.02 379.713 388.42 380.017 388.723C380.32 389.022 380.719 389.186 381.144 389.186ZM430.392 388.266L381.149 388.416H381.145C380.924 388.416 380.717 388.33 380.56 388.175C380.402 388.018 380.315 387.809 380.314 387.587L380.3 383.179C380.3 382.956 380.386 382.745 380.542 382.588C380.699 382.43 380.907 382.343 381.13 382.342L430.372 382.191H430.375C430.833 382.191 431.206 382.563 431.208 383.021L431.222 387.43C431.223 387.889 430.851 388.264 430.392 388.266Z" fill="#1A0260"/>
<path d="M381.151 389.07L430.394 388.919C431.212 388.916 431.875 388.248 431.873 387.43L431.86 383.021C431.857 382.204 431.191 381.54 430.373 381.54H430.371L381.128 381.691C380.732 381.693 380.359 381.849 380.079 382.129C379.8 382.411 379.647 382.784 379.647 383.181L379.661 387.591C379.663 387.987 379.818 388.359 380.099 388.638C380.379 388.916 380.749 389.07 381.144 389.07C381.147 389.069 381.149 389.07 381.151 389.07ZM431.327 383.021L431.34 387.43C431.342 387.953 430.917 388.381 430.393 388.383L381.15 388.534C381.15 388.534 381.148 388.534 381.146 388.534C380.894 388.534 380.657 388.436 380.478 388.258C380.297 388.079 380.197 387.841 380.197 387.587L380.183 383.179C380.182 382.925 380.281 382.685 380.459 382.504C380.639 382.324 380.876 382.225 381.13 382.224L430.373 382.073H430.375C430.898 382.073 431.325 382.499 431.327 383.021Z" fill="#1A0260"/>
<path d="M425.159 368.222L375.916 368.373C375.244 368.376 374.697 367.832 374.695 367.159L374.681 362.751C374.679 362.078 375.222 361.531 375.895 361.529L425.138 361.378C425.81 361.376 426.357 361.919 426.359 362.592L426.373 367.001C426.375 367.674 425.832 368.22 425.159 368.222Z" fill="white"/>
<path d="M375.91 368.759C375.913 368.759 375.915 368.759 375.918 368.759L425.16 368.608C425.589 368.607 425.99 368.439 426.292 368.135C426.594 367.832 426.76 367.429 426.758 367.001L426.744 362.592C426.743 362.163 426.575 361.762 426.271 361.46C425.969 361.159 425.568 360.994 425.142 360.994C425.14 360.994 425.137 360.994 425.137 360.994L375.894 361.145C375.465 361.146 375.064 361.314 374.762 361.618C374.46 361.922 374.294 362.325 374.296 362.753L374.31 367.161C374.311 367.59 374.479 367.992 374.784 368.295C375.085 368.594 375.485 368.759 375.91 368.759ZM425.142 361.763C425.363 361.763 425.571 361.849 425.728 362.005C425.886 362.162 425.973 362.37 425.974 362.593L425.988 367.003C425.988 367.226 425.902 367.434 425.746 367.591C425.589 367.749 425.381 367.836 425.158 367.837L375.915 367.988H375.911C375.69 367.988 375.483 367.902 375.326 367.747C375.169 367.59 375.081 367.381 375.08 367.158L375.066 362.75C375.066 362.527 375.152 362.317 375.308 362.16C375.465 362.002 375.673 361.915 375.896 361.914L425.139 361.763H425.142Z" fill="#1A0260"/>
<path d="M375.917 368.641L425.16 368.49C425.556 368.489 425.929 368.333 426.208 368.052C426.488 367.771 426.642 367.397 426.64 367.001L426.627 362.592C426.626 362.196 426.47 361.823 426.189 361.544C425.909 361.266 425.537 361.112 425.142 361.112C425.14 361.112 425.138 361.112 425.138 361.112L375.895 361.263C375.499 361.264 375.126 361.419 374.846 361.701C374.567 361.982 374.414 362.357 374.414 362.753L374.428 367.162C374.431 367.978 375.097 368.641 375.913 368.641H375.917ZM425.812 361.923C425.992 362.102 426.091 362.34 426.092 362.594L426.105 367.003C426.107 367.256 426.008 367.495 425.83 367.676C425.651 367.856 425.412 367.955 425.158 367.956L375.916 368.107C375.402 368.111 374.964 367.684 374.962 367.16L374.948 362.751C374.947 362.497 375.046 362.258 375.224 362.078C375.404 361.897 375.641 361.798 375.895 361.798L425.138 361.647H425.14C425.394 361.646 425.632 361.744 425.812 361.923Z" fill="#1A0260"/>
<path d="M430.393 381.884L381.15 382.035C380.478 382.037 379.931 381.493 379.929 380.821L379.915 376.412C379.913 375.739 380.456 375.192 381.129 375.19L430.371 375.039C431.044 375.037 431.591 375.581 431.593 376.253L431.607 380.662C431.609 381.335 431.066 381.882 430.393 381.884Z" fill="white"/>
<path d="M381.146 382.42C381.148 382.42 381.151 382.42 381.151 382.42L430.394 382.269C430.823 382.268 431.224 382.1 431.526 381.796C431.828 381.492 431.994 381.089 431.992 380.661L431.978 376.253C431.976 375.371 431.257 374.654 430.375 374.654C430.373 374.654 430.372 374.654 430.37 374.654L381.128 374.805C380.699 374.806 380.298 374.974 379.996 375.278C379.694 375.582 379.528 375.986 379.53 376.414L379.544 380.822C379.545 381.25 379.713 381.653 380.017 381.955C380.319 382.256 380.72 382.42 381.146 382.42ZM430.375 375.424C430.833 375.424 431.206 375.796 431.208 376.254L431.222 380.664C431.222 380.887 431.136 381.096 430.98 381.253C430.823 381.411 430.615 381.498 430.392 381.499L381.149 381.65H381.146C380.925 381.65 380.717 381.565 380.56 381.409C380.402 381.252 380.315 381.042 380.314 380.82L380.3 376.411C380.3 376.188 380.386 375.978 380.542 375.821C380.699 375.663 380.907 375.577 381.13 375.576L430.372 375.424C430.374 375.424 430.375 375.424 430.375 375.424Z" fill="#1A0260"/>
<path d="M381.151 382.302L430.394 382.151C430.79 382.149 431.163 381.993 431.442 381.713C431.722 381.431 431.875 381.058 431.874 380.661L431.861 376.253C431.858 375.436 431.192 374.772 430.374 374.772H430.372L381.129 374.924C380.733 374.926 380.36 375.081 380.08 375.362C379.801 375.643 379.648 376.017 379.648 376.414L379.662 380.823C379.665 381.639 380.331 382.302 381.147 382.302H381.151ZM431.327 376.254L431.34 380.664C431.342 380.918 431.243 381.156 431.064 381.337C430.885 381.517 430.647 381.617 430.393 381.617L381.151 381.768C381.149 381.768 381.149 381.768 381.147 381.768C380.625 381.768 380.199 381.343 380.197 380.821L380.183 376.411C380.182 376.157 380.281 375.918 380.459 375.738C380.639 375.557 380.876 375.459 381.13 375.458L430.373 375.306H430.375C430.898 375.305 431.325 375.731 431.327 376.254Z" fill="#1A0260"/>
<path d="M427.314 375.04L378.071 375.191C377.399 375.193 376.852 374.65 376.849 373.977L376.836 369.567C376.834 368.895 377.377 368.349 378.05 368.347L427.292 368.196C427.965 368.193 428.512 368.736 428.514 369.409L428.528 373.818C428.53 374.49 427.986 375.038 427.314 375.04Z" fill="white"/>
<path d="M378.067 375.576C378.069 375.576 378.07 375.576 378.072 375.576L427.315 375.424C427.743 375.423 428.145 375.255 428.447 374.951C428.749 374.647 428.915 374.245 428.913 373.817L428.899 369.408C428.898 368.979 428.73 368.578 428.426 368.276C428.123 367.975 427.722 367.81 427.296 367.81C427.294 367.81 427.293 367.81 427.291 367.81L378.049 367.961C377.62 367.962 377.218 368.13 376.915 368.435C376.614 368.739 376.449 369.141 376.451 369.569L376.464 373.977C376.468 374.86 377.187 375.576 378.067 375.576ZM427.296 368.58C427.754 368.58 428.127 368.952 428.129 369.41L428.143 373.819C428.143 374.042 428.057 374.251 427.901 374.408C427.744 374.566 427.535 374.653 427.313 374.654L378.07 374.805H378.067C377.61 374.805 377.236 374.433 377.234 373.974L377.221 369.566C377.22 369.343 377.306 369.135 377.462 368.977C377.619 368.82 377.828 368.732 378.051 368.731L427.293 368.58H427.296Z" fill="#1A0260"/>
<path d="M378.072 375.458L427.314 375.306C428.132 375.304 428.796 374.636 428.795 373.818L428.781 369.409C428.778 368.593 428.112 367.929 427.295 367.929C427.295 367.929 427.293 367.929 427.291 367.929L378.049 368.08C377.653 368.081 377.28 368.237 377 368.518C376.721 368.799 376.567 369.173 376.568 369.569L376.582 373.978C376.584 374.374 376.739 374.747 377.02 375.026C377.3 375.305 377.671 375.459 378.066 375.459C378.069 375.458 378.07 375.458 378.072 375.458ZM428.248 369.41L428.262 373.818C428.263 374.342 427.837 374.77 427.314 374.771L378.071 374.923C377.827 374.898 377.578 374.826 377.398 374.647C377.218 374.468 377.119 374.229 377.118 373.975L377.104 369.567C377.103 369.313 377.202 369.074 377.38 368.893C377.56 368.713 377.797 368.614 378.051 368.613L427.294 368.462H427.297C427.82 368.462 428.246 368.886 428.248 369.41Z" fill="#1A0260"/>
<path d="M368.167 415.63C359.783 411.004 355.205 399.651 357.649 387.748C360.078 375.928 368.66 367.336 378.112 366.292L378.281 365.459L383.54 366.539C394.948 368.883 401.857 382.18 398.97 396.238C396.082 410.296 384.49 419.793 373.08 417.45L367.984 416.537L368.167 415.63Z" fill="white"/>
<path d="M376.561 418.19C386.925 418.191 396.719 409.104 399.346 396.315C402.272 382.071 395.216 368.544 383.617 366.162L377.98 365.004L377.79 365.942C368.072 367.166 359.658 376.055 357.272 387.671C354.863 399.399 359.161 410.926 367.734 415.828L367.529 416.847L373.012 417.828C374.195 418.071 375.382 418.19 376.561 418.19ZM378.582 365.914L383.463 366.916C394.646 369.214 401.433 382.333 398.593 396.161C395.753 409.987 384.359 419.367 373.157 417.072L368.439 416.227L368.6 415.429L368.353 415.292C359.909 410.632 355.662 399.338 358.026 387.825C360.37 376.423 368.646 367.723 378.154 366.674L378.433 366.643L378.582 365.914Z" fill="#1A0260"/>
<path d="M352.391 386.669C349.501 400.728 356.575 414.192 367.984 416.537C379.394 418.88 390.822 409.217 393.712 395.159C396.6 381.099 389.691 367.803 378.281 365.459C366.872 363.114 355.279 372.611 352.391 386.669Z" fill="#ECE5FF"/>
<path d="M371.38 417.306C381.697 417.306 391.477 408.132 394.126 395.243C397.056 380.978 389.986 367.43 378.365 365.044C372.717 363.881 366.861 365.496 361.871 369.584C356.906 373.651 353.392 379.688 351.975 386.583C350.559 393.471 351.438 400.435 354.449 406.191C357.471 411.969 362.247 415.791 367.898 416.952C369.06 417.19 370.223 417.306 371.38 417.306ZM374.767 365.525C375.913 365.525 377.059 365.64 378.196 365.874C389.358 368.167 396.133 381.266 393.297 395.073C390.443 408.95 379.128 418.389 368.069 416.122C362.673 415.013 358.103 411.347 355.201 405.799C352.28 400.215 351.43 393.45 352.806 386.753C354.183 380.049 357.593 374.185 362.409 370.24C366.188 367.143 370.477 365.525 374.767 365.525Z" fill="#1A0260"/>
<path d="M356.079 387.438C353.708 398.985 359.515 410.045 368.887 411.968C378.261 413.895 387.647 405.957 390.018 394.41C392.39 382.863 386.715 371.942 377.344 370.016C367.973 368.09 358.45 375.891 356.079 387.438Z" fill="white"/>
<path d="M371.73 412.644C375.42 412.644 379.097 411.235 382.325 408.539C386.361 405.167 389.226 400.177 390.394 394.488C392.805 382.753 386.985 371.605 377.42 369.64C372.769 368.685 367.948 370.013 363.842 373.378C359.756 376.725 356.865 381.69 355.701 387.36C354.537 393.026 355.261 398.755 357.737 403.49C360.224 408.246 364.156 411.39 368.808 412.344C369.778 412.545 370.754 412.644 371.73 412.644ZM374.459 370.11C375.397 370.11 376.336 370.204 377.267 370.394C386.415 372.275 391.966 383.013 389.641 394.333C388.507 399.851 385.734 404.686 381.831 407.946C377.935 411.2 373.367 412.494 368.964 411.592C364.543 410.685 360.799 407.68 358.421 403.133C356.026 398.555 355.328 393.008 356.456 387.515C357.585 382.017 360.382 377.207 364.33 373.973C367.428 371.435 370.943 370.11 374.459 370.11Z" fill="#1A0260"/>
<path d="M373.78 380.279C373.129 380.22 372.491 380.241 371.862 380.343C371.234 380.446 370.641 380.643 370.083 380.938C369.527 381.231 369.019 381.63 368.56 382.138C368.101 382.648 367.716 383.272 367.407 384.014L369.694 384.54C370.146 383.821 370.662 383.293 371.24 382.957C371.818 382.619 372.493 382.47 373.267 382.509L371.799 388.89C371.293 388.981 370.79 389.076 370.292 389.175C369.792 389.273 369.311 389.391 368.843 389.531C368.374 389.672 367.931 389.84 367.515 390.035C367.099 390.233 366.717 390.474 366.373 390.761C366.029 391.05 365.737 391.389 365.493 391.779C365.25 392.169 365.068 392.622 364.949 393.139C364.75 394.005 364.74 394.793 364.919 395.503C365.098 396.214 365.399 396.846 365.824 397.405C366.253 397.965 366.77 398.443 367.382 398.842C367.994 399.24 368.632 399.555 369.29 399.786L368.557 402.977L370.871 403.508L371.618 400.263C372.341 400.27 373.041 400.156 373.725 399.921C374.408 399.688 375.049 399.353 375.643 398.914C376.241 398.477 376.779 397.947 377.258 397.323C377.738 396.701 378.132 396.005 378.44 395.232L376.011 394.674C375.817 395.134 375.582 395.558 375.309 395.945C375.037 396.332 374.735 396.669 374.409 396.957C374.081 397.244 373.724 397.472 373.345 397.641C372.962 397.811 372.566 397.913 372.152 397.947L373.746 391.016C374.452 390.879 375.14 390.723 375.803 390.544C376.469 390.365 377.082 390.122 377.643 389.816C378.205 389.507 378.686 389.119 379.086 388.646C379.486 388.174 379.772 387.57 379.94 386.837C380.09 386.187 380.097 385.557 379.961 384.945C379.824 384.336 379.578 383.765 379.225 383.237C378.87 382.709 378.424 382.238 377.887 381.821C377.347 381.405 376.751 381.069 376.097 380.81L376.568 378.761L374.255 378.227L373.78 380.279ZM377.559 386.203C377.482 386.54 377.346 386.835 377.156 387.082C376.966 387.332 376.729 387.549 376.45 387.732C376.17 387.916 375.85 388.07 375.488 388.201C375.125 388.331 374.737 388.44 374.318 388.535L375.576 383.071C376.372 383.403 376.936 383.852 377.271 384.419C377.607 384.987 377.703 385.582 377.559 386.203ZM367.335 393.749C367.414 393.41 367.572 393.116 367.813 392.869C368.052 392.624 368.35 392.405 368.707 392.222C369.061 392.035 369.453 391.877 369.885 391.75C370.317 391.62 370.761 391.51 371.217 391.417L369.802 397.571C369.326 397.391 368.915 397.163 368.569 396.885C368.223 396.607 367.941 396.299 367.726 395.964C367.511 395.625 367.371 395.269 367.303 394.893C367.235 394.517 367.248 394.134 367.335 393.749Z" fill="white"/>
<path d="M371.16 403.971L371.926 400.644C372.581 400.62 373.227 400.5 373.85 400.287C374.569 400.042 375.249 399.684 375.872 399.224C376.495 398.769 377.065 398.209 377.564 397.56C378.063 396.914 378.478 396.178 378.797 395.375L378.964 394.958L375.782 394.227L375.656 394.525C375.472 394.959 375.25 395.363 374.994 395.727C374.743 396.082 374.46 396.4 374.153 396.67C373.859 396.928 373.534 397.137 373.187 397.291C373.01 397.369 372.833 397.431 372.654 397.477L374.063 391.347C374.706 391.218 375.323 391.075 375.901 390.919C376.591 390.733 377.239 390.476 377.825 390.155C378.43 389.824 378.952 389.401 379.378 388.898C379.816 388.38 380.132 387.716 380.313 386.925C380.476 386.223 380.483 385.529 380.334 384.862C380.188 384.21 379.922 383.592 379.542 383.025C379.166 382.465 378.688 381.96 378.12 381.518C377.639 381.148 377.109 380.834 376.542 380.581L377.026 378.474L373.962 377.768L373.477 379.869C372.912 379.842 372.347 379.873 371.8 379.962C371.134 380.07 370.496 380.284 369.904 380.596C369.305 380.911 368.757 381.343 368.273 381.879C367.785 382.42 367.374 383.088 367.049 383.864L366.873 384.286L369.871 384.976L370.017 384.744C370.435 384.081 370.911 383.591 371.43 383.289C371.829 383.056 372.275 382.925 372.78 382.894L371.478 388.555C371.054 388.632 370.632 388.712 370.213 388.795C369.703 388.895 369.203 389.018 368.729 389.16C368.242 389.306 367.778 389.484 367.348 389.685C366.899 389.899 366.488 390.16 366.124 390.462C365.753 390.774 365.431 391.147 365.164 391.57C364.898 391.997 364.699 392.494 364.571 393.049C364.359 393.97 364.349 394.825 364.543 395.592C364.732 396.348 365.06 397.035 365.515 397.634C365.97 398.229 366.527 398.742 367.169 399.16C367.704 399.508 368.264 399.798 368.836 400.024L368.092 403.263L371.16 403.971ZM371.312 399.877L370.582 403.049L369.019 402.69L369.743 399.539L369.419 399.425C368.791 399.204 368.177 398.9 367.593 398.521C367.025 398.151 366.532 397.698 366.131 397.174C365.74 396.659 365.458 396.065 365.294 395.41C365.131 394.763 365.142 394.029 365.325 393.227C365.434 392.755 365.6 392.336 365.821 391.984C366.044 391.629 366.314 391.316 366.622 391.057C366.935 390.797 367.291 390.57 367.682 390.384C368.075 390.199 368.503 390.037 368.954 389.903C369.405 389.767 369.88 389.65 370.366 389.555C370.864 389.455 371.364 389.361 371.868 389.27L372.118 389.226L373.746 382.149L373.287 382.127C372.43 382.086 371.686 382.254 371.046 382.627C370.483 382.955 369.97 383.452 369.52 384.107L367.953 383.747C368.207 383.228 368.508 382.776 368.849 382.398C369.272 381.929 369.748 381.552 370.266 381.279C370.785 381.007 371.343 380.82 371.927 380.724C372.518 380.627 373.129 380.607 373.747 380.662L374.081 380.692L374.543 378.693L376.106 379.055L375.648 381.049L375.955 381.17C376.573 381.415 377.144 381.737 377.652 382.129C378.154 382.519 378.576 382.966 378.906 383.456C379.232 383.943 379.461 384.473 379.586 385.031C379.71 385.584 379.703 386.163 379.566 386.753C379.412 387.423 379.152 387.977 378.794 388.399C378.43 388.831 377.981 389.194 377.46 389.479C376.928 389.77 376.337 390.004 375.705 390.174C375.071 390.345 374.389 390.5 373.675 390.639L373.429 390.687L371.661 398.374L372.185 398.332C372.637 398.296 373.081 398.183 373.503 397.994C373.921 397.808 374.312 397.557 374.665 397.249C375.019 396.936 375.341 396.574 375.626 396.169C375.855 395.846 376.059 395.495 376.235 395.122L377.907 395.505C377.643 396.08 377.324 396.611 376.956 397.089C376.501 397.681 375.984 398.19 375.418 398.604C374.857 399.017 374.247 399.338 373.603 399.559C372.963 399.778 372.264 399.86 371.624 399.878L371.312 399.877ZM370.078 398.087L371.726 390.92L371.139 391.04C370.666 391.136 370.206 391.252 369.773 391.382C369.326 391.514 368.906 391.683 368.527 391.882C368.142 392.081 367.808 392.323 367.538 392.602C367.25 392.897 367.057 393.253 366.961 393.662L366.96 393.664C366.86 394.103 366.848 394.54 366.924 394.962C367 395.389 367.16 395.797 367.401 396.174C367.638 396.544 367.95 396.885 368.329 397.188C368.708 397.492 369.158 397.743 369.667 397.934L370.078 398.087ZM370.704 391.925L369.529 397.035C369.262 396.904 369.021 396.754 368.808 396.584C368.495 396.334 368.241 396.057 368.049 395.758C367.863 395.466 367.739 395.152 367.681 394.823C367.624 394.505 367.634 394.173 367.71 393.836C367.774 393.562 367.898 393.334 368.089 393.138C368.302 392.92 368.568 392.726 368.883 392.563C369.219 392.386 369.592 392.237 369.992 392.119C370.227 392.049 370.463 391.984 370.704 391.925ZM373.805 389.046L374.403 388.911C374.845 388.81 375.242 388.697 375.618 388.562C376.017 388.418 376.358 388.252 376.661 388.054C376.979 387.845 377.249 387.596 377.463 387.315C377.687 387.024 377.846 386.678 377.934 386.289C378.101 385.572 377.99 384.877 377.604 384.223C377.227 383.586 376.594 383.079 375.725 382.716L375.303 382.54L373.805 389.046ZM375.843 383.624C376.341 383.894 376.709 384.226 376.94 384.615C377.226 385.099 377.305 385.591 377.183 386.117L377.182 386.118C377.119 386.398 377.007 386.643 376.851 386.847C376.688 387.061 376.483 387.249 376.238 387.41C375.986 387.575 375.698 387.716 375.357 387.839C375.189 387.899 375.016 387.955 374.836 388.008L375.843 383.624Z" fill="#1A0260"/>
<path d="M376.561 418.091C386.88 418.092 396.632 409.038 399.249 396.296C400.659 389.433 399.814 382.531 396.869 376.863C393.914 371.175 389.2 367.409 383.597 366.259L378.338 365.179C372.733 364.029 366.916 365.63 361.958 369.691C357.018 373.739 353.52 379.749 352.109 386.612C350.7 393.469 351.574 400.4 354.571 406.129C357.574 411.869 362.316 415.665 367.925 416.818L373.028 417.732C374.207 417.972 375.388 418.091 376.561 418.091ZM374.766 365.387C375.921 365.387 377.077 365.504 378.222 365.74L383.482 366.819C388.914 367.935 393.488 371.597 396.362 377.129C399.246 382.681 400.073 389.445 398.689 396.181C396.127 408.651 386.616 417.516 376.561 417.518C375.423 417.518 374.28 417.405 373.137 417.169L368.034 416.255C362.603 415.139 358 411.448 355.079 405.863C352.143 400.251 351.288 393.454 352.671 386.726C354.054 379.992 357.482 374.099 362.321 370.134C366.126 367.017 370.445 365.387 374.766 365.387Z" fill="#1A0260"/>
<path d="M341.19 449.839L390.433 449.99C391.106 449.992 391.653 449.448 391.655 448.776L391.669 444.367C391.671 443.694 391.128 443.147 390.455 443.145L341.212 442.994C340.54 442.992 339.993 443.536 339.991 444.208L339.977 448.617C339.975 449.29 340.518 449.837 341.19 449.839Z" fill="white"/>
<path d="M390.437 450.375C391.319 450.375 392.038 449.66 392.04 448.778L392.054 444.368C392.056 443.94 391.89 443.537 391.588 443.233C391.286 442.929 390.885 442.761 390.456 442.76L341.213 442.609C341.213 442.609 341.21 442.609 341.208 442.609C340.327 442.609 339.608 443.325 339.606 444.207L339.591 448.617C339.589 449.501 340.307 450.221 341.19 450.223L390.432 450.374C390.432 450.374 390.435 450.375 390.437 450.375ZM341.208 443.379H341.211L390.454 443.53C390.677 443.531 390.885 443.618 391.042 443.776C391.198 443.933 391.284 444.144 391.284 444.367L391.27 448.775C391.268 449.233 390.895 449.606 390.437 449.606H390.434L341.192 449.455C340.733 449.453 340.361 449.077 340.361 448.618L340.376 444.209C340.377 443.751 340.75 443.379 341.208 443.379Z" fill="#1A0260"/>
<path d="M390.439 450.258C390.833 450.258 391.204 450.104 391.483 449.826C391.765 449.546 391.921 449.173 391.921 448.776L391.936 444.368C391.936 443.972 391.783 443.598 391.504 443.316C391.224 443.036 390.852 442.879 390.454 442.878L341.212 442.727C341.211 442.727 341.21 442.727 341.209 442.727C340.391 442.727 339.726 443.39 339.723 444.207L339.709 448.615C339.707 449.433 340.371 450.102 341.188 450.106L390.432 450.255C390.435 450.257 390.437 450.258 390.439 450.258ZM341.209 443.26C341.21 443.26 341.211 443.26 341.211 443.26L390.454 443.412C390.708 443.412 390.946 443.512 391.126 443.691C391.305 443.872 391.403 444.111 391.402 444.365L391.387 448.774C391.387 449.028 391.287 449.266 391.107 449.446C390.928 449.624 390.691 449.721 390.438 449.721C390.437 449.721 390.436 449.721 390.435 449.721L341.191 449.571H341.192C340.668 449.569 340.242 449.141 340.244 448.617L340.258 444.208C340.258 443.686 340.686 443.26 341.209 443.26Z" fill="#1A0260"/>
<path d="M351.122 429.411L400.365 429.561C401.038 429.564 401.585 429.02 401.587 428.348L401.601 423.94C401.603 423.267 401.059 422.719 400.387 422.717L351.144 422.566C350.471 422.564 349.924 423.108 349.922 423.78L349.908 428.19C349.906 428.862 350.45 429.409 351.122 429.411Z" fill="white"/>
<path d="M400.371 429.946C400.796 429.946 401.196 429.783 401.499 429.482C401.803 429.18 401.971 428.778 401.972 428.349L401.985 423.94C401.987 423.512 401.822 423.109 401.52 422.805C401.218 422.501 400.817 422.333 400.388 422.332L351.145 422.181C351.144 422.181 351.142 422.181 351.14 422.181C350.258 422.181 349.539 422.897 349.537 423.779L349.523 428.188C349.52 429.071 350.237 429.792 351.12 429.795L400.364 429.945C400.366 429.946 400.369 429.946 400.371 429.946ZM351.139 422.951C351.14 422.951 351.141 422.951 351.142 422.951L400.385 423.102C400.607 423.103 400.816 423.19 400.972 423.348C401.129 423.506 401.215 423.715 401.214 423.937L401.201 428.347C401.2 428.569 401.113 428.779 400.955 428.935C400.798 429.091 400.591 429.176 400.37 429.176C400.368 429.176 400.367 429.176 400.366 429.176L351.122 429.026C350.662 429.024 350.291 428.649 350.292 428.19L350.306 423.781C350.308 423.323 350.681 422.951 351.139 422.951Z" fill="#1A0260"/>
<path d="M400.369 429.83C400.765 429.83 401.136 429.677 401.415 429.398C401.697 429.119 401.853 428.746 401.853 428.349L401.867 423.94C401.868 423.544 401.715 423.169 401.435 422.889C401.156 422.607 400.784 422.451 400.387 422.451L351.143 422.3C351.143 422.3 351.141 422.3 351.139 422.3C350.744 422.3 350.372 422.453 350.093 422.732C349.811 423.011 349.655 423.383 349.655 423.781L349.641 428.19C349.64 428.586 349.793 428.959 350.073 429.24C350.353 429.521 350.725 429.679 351.122 429.679L400.365 429.83H400.369ZM351.139 422.834H351.142L400.385 422.985C400.639 422.985 400.877 423.085 401.056 423.265C401.236 423.445 401.333 423.684 401.332 423.937L401.318 428.347C401.318 428.601 401.218 428.839 401.038 429.018C400.859 429.197 400.621 429.294 400.368 429.294C400.368 429.294 400.367 429.294 400.365 429.294L351.123 429.143C350.869 429.143 350.63 429.042 350.451 428.863C350.271 428.682 350.173 428.444 350.175 428.19L350.189 423.781C350.19 423.527 350.289 423.289 350.469 423.11C350.648 422.931 350.886 422.834 351.139 422.834Z" fill="#1A0260"/>
<path d="M347.427 422.58L396.67 422.731C397.342 422.733 397.889 422.189 397.891 421.516L397.905 417.107C397.908 416.435 397.364 415.888 396.691 415.885L347.449 415.735C346.776 415.733 346.229 416.277 346.227 416.95L346.213 421.358C346.211 422.03 346.755 422.578 347.427 422.58Z" fill="white"/>
<path d="M396.674 423.115C397.554 423.115 398.273 422.4 398.277 421.518L398.29 417.108C398.292 416.681 398.127 416.28 397.826 415.976C397.523 415.671 397.121 415.503 396.692 415.502L347.45 415.351C347.45 415.351 347.447 415.351 347.445 415.351C347.018 415.351 346.618 415.515 346.315 415.816C346.011 416.118 345.843 416.519 345.842 416.948L345.828 421.357C345.826 421.785 345.992 422.188 346.294 422.492C346.596 422.796 346.998 422.963 347.426 422.964L396.669 423.115C396.669 423.115 396.672 423.115 396.674 423.115ZM347.445 416.12H347.448L396.69 416.271C396.913 416.272 397.122 416.361 397.279 416.518C397.435 416.676 397.521 416.884 397.52 417.106L397.507 421.515C397.505 421.973 397.131 422.346 396.674 422.346H396.671L347.428 422.195C347.206 422.194 346.997 422.106 346.84 421.948C346.684 421.791 346.598 421.582 346.598 421.359L346.612 416.951C346.613 416.728 346.7 416.519 346.858 416.362C347.015 416.206 347.223 416.12 347.445 416.12Z" fill="#1A0260"/>
<path d="M396.674 422.998C397.069 422.998 397.441 422.845 397.72 422.566C398.001 422.286 398.157 421.915 398.158 421.518L398.172 417.108C398.173 416.712 398.02 416.338 397.74 416.057C397.46 415.776 397.088 415.62 396.691 415.619L347.449 415.468C347.447 415.468 347.445 415.468 347.445 415.468C346.628 415.468 345.962 416.131 345.959 416.948L345.946 421.357C345.945 421.753 346.098 422.128 346.378 422.409C346.658 422.69 347.029 422.845 347.427 422.846L396.669 422.997C396.669 422.997 396.672 422.998 396.674 422.998ZM347.445 416.003H347.448L396.691 416.154C396.945 416.155 397.182 416.254 397.362 416.434C397.541 416.614 397.639 416.853 397.638 417.107L397.624 421.516C397.623 421.77 397.523 422.007 397.344 422.187C397.164 422.366 396.927 422.463 396.674 422.463C396.674 422.463 396.672 422.463 396.67 422.463L347.428 422.312C347.174 422.311 346.936 422.212 346.757 422.033C346.577 421.852 346.479 421.612 346.481 421.358L346.495 416.95C346.496 416.427 346.922 416.003 347.445 416.003Z" fill="#1A0260"/>
<path d="M341.19 443.071L390.433 443.222C391.106 443.224 391.653 442.68 391.655 442.008L391.669 437.599C391.671 436.927 391.128 436.379 390.455 436.378L341.212 436.227C340.54 436.226 339.993 436.768 339.991 437.44L339.977 441.849C339.975 442.522 340.518 443.069 341.19 443.071Z" fill="white"/>
<path d="M390.437 443.607C390.864 443.607 391.264 443.442 391.567 443.141C391.871 442.839 392.039 442.438 392.04 442.009L392.054 437.601C392.056 437.173 391.89 436.769 391.588 436.466C391.286 436.162 390.885 435.994 390.456 435.993L341.213 435.841C341.213 435.841 341.21 435.841 341.208 435.841C340.327 435.841 339.608 436.558 339.606 437.44L339.591 441.848C339.589 442.732 340.307 443.454 341.19 443.456L390.432 443.607C390.432 443.607 390.435 443.607 390.437 443.607ZM341.208 436.612H341.211L390.454 436.763C390.677 436.764 390.885 436.851 391.042 437.009C391.198 437.166 391.284 437.375 391.284 437.598L391.27 442.008C391.269 442.231 391.182 442.439 391.024 442.596C390.867 442.752 390.659 442.837 390.437 442.837H390.434L341.192 442.686C340.733 442.684 340.361 442.31 340.361 441.851L340.376 437.441C340.377 436.983 340.75 436.612 341.208 436.612Z" fill="#1A0260"/>
<path d="M390.438 443.49C390.833 443.49 391.204 443.338 391.483 443.059C391.765 442.779 391.921 442.406 391.921 442.009L391.936 437.601C391.936 437.205 391.783 436.83 391.504 436.549C391.224 436.268 390.852 436.113 390.454 436.112L341.212 435.961C341.21 435.961 341.209 435.961 341.207 435.961C340.812 435.961 340.44 436.114 340.161 436.393C339.88 436.672 339.723 437.044 339.723 437.441L339.709 441.849C339.708 442.245 339.861 442.619 340.141 442.901C340.42 443.181 340.793 443.338 341.19 443.339L390.433 443.49C390.433 443.49 390.436 443.49 390.438 443.49ZM341.208 436.494H341.211L390.454 436.645C390.708 436.646 390.946 436.745 391.126 436.925C391.305 437.105 391.403 437.344 391.402 437.598L391.387 442.008C391.387 442.262 391.287 442.5 391.107 442.68C390.928 442.859 390.69 442.956 390.438 442.956C390.436 442.956 390.436 442.956 390.434 442.956L341.191 442.805C340.937 442.804 340.699 442.703 340.52 442.524C340.34 442.343 340.243 442.105 340.244 441.851L340.258 437.441C340.259 437.187 340.358 436.949 340.538 436.77C340.717 436.592 340.955 436.494 341.208 436.494Z" fill="#1A0260"/>
<path d="M344.27 436.227L393.512 436.378C394.185 436.379 394.732 435.837 394.734 435.164L394.748 430.755C394.75 430.082 394.207 429.536 393.534 429.534L344.291 429.383C343.619 429.381 343.072 429.924 343.07 430.597L343.056 435.005C343.054 435.678 343.597 436.225 344.27 436.227Z" fill="white"/>
<path d="M393.517 436.763C393.943 436.763 394.344 436.598 394.646 436.297C394.95 435.994 395.118 435.593 395.119 435.164L395.133 430.757C395.135 430.329 394.969 429.926 394.667 429.622C394.365 429.318 393.964 429.149 393.535 429.148L344.292 428.997C344.292 428.997 344.289 428.997 344.287 428.997C343.861 428.997 343.46 429.162 343.158 429.463C342.854 429.765 342.686 430.167 342.685 430.596L342.671 435.004C342.669 435.432 342.835 435.835 343.137 436.139C343.439 436.442 343.84 436.611 344.269 436.612L393.512 436.763C393.512 436.763 393.515 436.763 393.517 436.763ZM344.287 429.768H344.29L393.533 429.919C393.756 429.92 393.964 430.006 394.121 430.164C394.277 430.321 394.363 430.531 394.363 430.754L394.349 435.162C394.348 435.385 394.261 435.595 394.103 435.752C393.946 435.908 393.738 435.993 393.517 435.993H393.514L344.271 435.841C343.812 435.839 343.44 435.466 343.441 435.007L343.455 430.597C343.456 430.374 343.543 430.166 343.701 430.009C343.858 429.853 344.066 429.768 344.287 429.768Z" fill="#1A0260"/>
<path d="M393.517 436.645C393.912 436.645 394.284 436.492 394.563 436.213C394.844 435.933 395 435.561 395.001 435.164L395.015 430.755C395.015 430.359 394.862 429.986 394.583 429.705C394.303 429.424 393.931 429.266 393.533 429.266L344.291 429.115C344.289 429.115 344.288 429.115 344.286 429.115C343.891 429.115 343.519 429.269 343.24 429.549C342.959 429.828 342.803 430.199 342.802 430.597L342.788 435.005C342.786 435.822 343.45 436.491 344.267 436.494H344.268L393.511 436.645C393.514 436.645 393.515 436.645 393.517 436.645ZM344.287 429.649H344.29L393.533 429.8C393.787 429.801 394.026 429.902 394.205 430.081C394.384 430.262 394.482 430.5 394.481 430.754L394.467 435.162C394.466 435.416 394.367 435.655 394.186 435.834C394.007 436.013 393.769 436.11 393.517 436.11C393.515 436.11 393.514 436.11 393.514 436.11L344.27 435.959H344.271C343.747 435.957 343.321 435.529 343.323 435.005L343.337 430.597C343.338 430.343 343.437 430.104 343.617 429.925C343.796 429.747 344.034 429.649 344.287 429.649Z" fill="#1A0260"/>
<path d="M354.909 329.373L334.756 337.576L319.022 313.493L344.262 303.219L354.909 329.373Z" fill="white"/>
<path d="M344.44 302.795L350.041 316.555L352.351 322.235L355.331 329.555L341.19 335.305L340.35 335.645L334.63 337.975L330.5 331.655L325.01 323.246L318.54 313.346L344.44 302.795ZM339.95 335.115L340.791 334.764L354.49 329.194L351.761 322.495L349.441 316.795L344.082 303.645L319.512 313.645L325.722 323.155L331.042 331.305L334.882 337.175L339.95 335.115Z" fill="#1A0260"/>
<path d="M328.969 333.016C328.969 333.016 332.605 328.314 340.209 330.261C347.811 332.207 347.605 326.925 348.558 325.434C349.509 323.942 351.032 322.371 353.784 321.826C353.784 321.826 363.227 349.49 361.247 368.701L294.644 368.185C294.644 368.185 292.635 361.476 298.41 358.43C304.184 355.385 327.894 349.543 331.291 343.046C334.689 336.55 328.969 333.016 328.969 333.016Z" fill="#1A0260"/>
<path d="M349.45 363.887C349.545 351.573 359.685 348.014 359.799 347.975L359.513 347.142C359.395 347.182 348.668 350.93 348.569 363.881L349.45 363.887Z" fill="white"/>
<path d="M361.71 362.609C361.76 365.006 361.327 367.108 361.246 368.701L294.643 368.185C294.643 368.185 293.707 365.051 294.957 362.094L361.71 362.609Z" fill="white"/>
<path d="M294.661 361.965L294.74 361.765H295.11L348.661 362.185H349.541L361.511 362.285H362.031V362.605C362.071 364.155 361.902 365.576 361.752 366.826C361.672 367.506 361.602 368.155 361.571 368.716L361.551 369.026L294.402 368.506L294.332 368.276C294.291 368.144 293.38 364.995 294.661 361.965ZM360.94 368.375C360.98 367.875 361.041 367.325 361.11 366.755C361.24 365.605 361.401 364.325 361.39 362.935L349.49 362.845L348.61 362.835L295.18 362.425C294.28 364.725 294.72 367.125 294.901 367.865L360.94 368.375Z" fill="#1A0260"/>
<path d="M326.754 353.435L326.854 353.417C327.469 353.308 341.938 350.661 343.495 344.286C345.038 337.974 338.618 332.32 338.349 332.113L337.809 332.81C337.872 332.859 344.074 338.203 342.638 344.077C341.28 349.642 328.074 352.288 326.797 352.53L319.102 350.353L318.863 351.202L326.754 353.435Z" fill="white"/>
<path d="M326.816 347.024L327.109 346.192L334.041 348.633L333.748 349.465L326.816 347.024Z" fill="white"/>
<path d="M332.643 342.92L332.935 342.088L339.87 344.521L339.578 345.354L332.643 342.92Z" fill="white"/>
<path d="M228.21 177.376C230.14 181.246 234.06 188.695 239.15 198.256C247.71 214.316 259.599 236.315 270.989 257.335H271C289.25 291.015 306.239 322.145 306.239 322.145C311.979 323.925 318.5 324.045 325.01 323.246C325.12 323.225 325.239 323.216 325.36 323.206C325.48 323.186 325.6 323.166 325.72 323.155C334.34 322.006 342.88 319.305 349.44 316.796C349.541 316.756 349.64 316.716 349.74 316.676C349.841 316.636 349.94 316.596 350.041 316.556C356.871 313.906 361.421 311.535 361.421 311.535C361.421 311.535 332.731 254.216 307.431 206.326C305.311 202.315 303.211 198.365 301.161 194.525C286.82 167.685 274.56 145.997 270.81 142.837C261.99 135.385 216.371 153.645 228.21 177.376Z" fill="#D3F10B"/>
<path d="M295.479 273.317C295.985 272.891 296.466 272.407 296.907 271.858C299.008 269.23 299.662 265.686 298.85 261.326C296.248 247.362 290.486 225.964 290.427 225.749L289.633 225.964C289.691 226.178 295.446 247.546 298.041 261.477C298.807 265.592 298.209 268.913 296.264 271.345C293.058 275.35 287.222 275.616 287.163 275.618L287.194 276.44C287.417 276.431 292.023 276.223 295.479 273.317Z" fill="#1A0260"/>
<path d="M239.151 198.255C247.711 214.315 259.6 236.315 270.99 257.335H271.001C279.791 252.605 282.69 247.694 282.69 247.694C278.95 234.064 267.01 213.134 267.01 213.134C278.67 214.134 291.436 205.145 291.436 205.145L305.911 199.184C305.911 199.184 303.82 196.444 301.161 194.524C298.501 192.604 293.841 190.194 293.841 190.194L256.021 186.484C256.021 186.484 246.071 189.565 242.191 192.326C241.09 193.105 240.06 195.384 239.151 198.255Z" fill="#1A0260"/>
<path d="M120.123 120.21C125.45 117.091 129.022 115.097 130.206 114.442C130.175 114.403 130.154 114.376 130.154 114.376C130.154 114.376 130.275 114.334 130.495 114.282C130.585 114.233 130.64 114.204 130.64 114.204C130.64 114.204 130.668 114.218 130.71 114.238C132.355 113.922 137.451 113.632 143.068 120.296C148.444 126.676 152.881 129.046 154.258 129.871C160.791 132.23 195.844 122.863 203.261 121.907C215.364 120.347 224.302 152.119 213.078 157.819C201.233 163.835 157.412 144.716 147.203 139.868C147.043 139.854 146.865 139.826 146.664 139.78C142.198 138.762 133.693 136.75 130.664 136.676C127.721 136.605 130.059 131.707 136.893 132.072C135.981 130.958 135.107 129.916 134.773 129.764C134.429 129.61 132.774 130.303 130.551 131.613C128.797 132.646 127.836 132.635 126.471 131.126C124.565 129.016 122.884 126.289 122.635 125.603C122.198 124.404 126.811 120.52 126.811 120.52C126.811 120.52 123.677 122.71 121.457 122.749C120.415 122.766 119.221 120.737 120.123 120.21Z" fill="white"/>
<path d="M188.927 157.296C197.543 159.645 205.214 160.576 209.412 158.444C216.253 154.969 217.241 142.29 214.233 132.535C211.934 125.085 207.814 120.99 203.219 121.585C200.994 121.871 196.447 122.878 190.689 124.151C178.018 126.954 158.88 131.221 154.368 129.565C153.064 128.778 148.647 126.413 143.315 120.086C137.782 113.523 132.762 113.543 130.754 113.898L130.698 113.872L130.376 113.977C130.161 114.028 130.043 114.07 130.043 114.07L129.618 114.223L129.713 114.343C128.221 115.172 124.836 117.073 119.957 119.929C119.524 120.183 119.375 120.68 119.547 121.294C119.785 122.146 120.635 123.086 121.463 123.072C122.412 123.055 123.502 122.676 124.463 122.229C123.227 123.474 122.045 124.928 122.33 125.711C122.602 126.464 124.335 129.242 126.23 131.34C127.657 132.918 128.747 133.052 130.714 131.891C133.193 130.431 134.444 130.031 134.662 130.066C134.869 130.163 135.619 131.041 136.189 131.727C132.562 131.72 130.322 133.179 129.481 134.498C129.067 135.148 128.976 135.799 129.235 136.282C129.472 136.728 129.977 136.98 130.653 137C133.372 137.066 140.526 138.704 145.261 139.79L146.589 140.094C146.781 140.136 146.955 140.166 147.113 140.183C152.828 142.884 172.27 152.758 188.927 157.296ZM205.68 122.391C208.968 123.287 211.834 126.957 213.614 132.725C216.556 142.269 215.452 154.649 209.119 157.865C197.678 163.677 158.931 145.077 147.343 139.574L147.291 139.549L147.232 139.544C147.084 139.53 146.92 139.507 146.737 139.463L145.409 139.159C140.65 138.069 133.457 136.42 130.673 136.352C130.364 136.347 129.968 136.275 129.811 135.98C129.669 135.711 129.751 135.289 130.033 134.847C130.896 133.492 133.348 132.207 136.879 132.395L137.613 132.435L137.147 131.866C135.95 130.406 135.275 129.635 134.909 129.469C134.22 129.157 131.517 130.669 130.388 131.334C128.684 132.339 127.929 132.25 126.714 130.907C124.835 128.828 123.171 126.125 122.942 125.491C122.727 124.9 124.878 122.573 127.021 120.767L126.626 120.253C126.596 120.274 123.547 122.387 121.453 122.424C120.992 122.432 120.361 121.785 120.173 121.118C120.123 120.937 120.069 120.615 120.286 120.488C125.565 117.398 129.092 115.428 130.362 114.724L130.684 114.547L130.77 114.554C132.191 114.281 137.256 113.902 142.819 120.503C148.232 126.925 152.696 129.312 154.091 130.148C158.823 131.859 177.322 127.771 190.829 124.783C196.344 123.563 201.107 122.51 203.302 122.226C204.113 122.124 204.909 122.18 205.68 122.391Z" fill="#1A0260"/>
<path d="M130.129 139.925L136.723 132.781C136.723 132.781 132.283 137.007 130.129 139.925Z" fill="#1A0260"/>
<path d="M127.87 138.012L134.992 128.992C134.992 128.992 129.732 134.901 127.87 138.012Z" fill="#1A0260"/>
<path d="M241.5 59.6985C247.595 61.3505 258.199 79.3295 256.111 92.6585C254.023 105.987 240.833 136.023 229.145 155.493C229.145 155.493 198.326 151.339 188.849 128.323C188.849 128.323 206.514 86.1405 213.709 75.6075C220.904 65.0745 234.776 57.8775 241.5 59.6985Z" fill="white"/>
<path d="M229.339 155.896L229.466 155.685C241.612 135.451 254.488 105.438 256.481 92.7154C258.555 79.4784 248.305 61.1534 241.597 59.3354C235.013 57.5594 220.967 64.3174 213.4 75.3954C206.265 85.8394 188.68 127.755 188.504 128.178L188.443 128.322L188.503 128.466C197.952 151.417 228.785 155.822 229.096 155.864L229.339 155.896ZM241.402 60.0605C247.109 61.6075 257.84 79.2004 255.741 92.6004C253.766 105.201 241.021 134.918 228.953 155.083C226.049 154.624 198.163 149.676 189.256 128.323C190.401 125.6 207.138 85.8925 214.02 75.8185C221.418 64.9855 235.044 58.3425 241.402 60.0605Z" fill="#1A0260"/>
<path d="M218.134 84.5895C216.056 103.588 227.69 157.037 223.237 166.227C223.237 166.227 237.212 170.182 249.79 165.464C280.86 153.811 309.604 203.819 330.581 188.645C330.122 125.353 307.158 63.5825 284.612 54.5325C261.677 45.3245 221.911 50.0895 218.134 84.5895Z" fill="white"/>
<path d="M321.791 191.895C324.927 191.895 327.938 191.02 330.801 188.949L330.957 188.835L330.956 188.642C330.515 127.801 308.492 63.7145 284.752 54.1845C271.719 48.9505 250.598 47.5675 235.034 56.8975C225.06 62.8765 219.088 72.4375 217.762 84.5485C216.779 93.5435 218.843 110.145 220.84 126.198C223.086 144.251 225.207 161.303 222.9 166.063L222.706 166.464L223.136 166.585C223.277 166.626 237.374 170.52 249.923 165.814C265.685 159.901 281.173 170.263 294.838 179.404C304.364 185.778 313.508 191.895 321.791 191.895ZM330.204 188.454C320.237 195.496 308.654 187.747 295.254 178.782C281.44 169.542 265.783 159.067 249.658 165.112C238.543 169.282 226.16 166.567 223.755 165.972C225.866 160.526 223.784 143.793 221.584 126.106C219.593 110.094 217.533 93.5375 218.508 84.6295C219.807 72.7605 225.655 63.3925 235.42 57.5385C250.765 48.3415 271.603 49.7125 284.473 54.8785C305.644 63.3785 329.678 122.286 330.204 188.454Z" fill="#1A0260"/>
<path d="M240.662 144.28C240.84 144.357 258.601 151.794 270.995 139.39L270.37 138.767C258.395 150.751 241.182 143.543 241.01 143.47L240.662 144.28Z" fill="#1A0260"/>
<path d="M223.529 243.856L224.391 243.669C222.147 233.247 216.483 221.679 211.486 211.471C206.837 201.973 202.821 193.77 203.977 190.843C204.156 190.388 204.463 190.084 204.915 189.911C207.17 189.055 212.795 189.839 219.917 190.833C234.54 192.873 256.637 195.958 271.043 187.232L270.586 186.478C256.448 195.041 234.538 191.983 220.039 189.959C212.508 188.907 207.066 188.148 204.601 189.086C203.914 189.348 203.428 189.829 203.156 190.518C201.858 193.807 205.758 201.773 210.694 211.858C215.669 222.022 221.307 233.54 223.529 243.856Z" fill="#1A0260"/>
<path d="M295.433 205.468C282.871 203.186 219.711 213.749 200.663 195.897C190.44 186.315 191.328 162.534 212.059 155.803C225.633 151.397 271.096 145.709 309.794 160.028C335.152 169.409 338.516 213.3 295.433 205.468Z" fill="#D3F10B"/>
<path d="M271.859 275.384L250.43 279.16L240.119 252.303L266.957 247.576L271.859 275.384Z" fill="white"/>
<path d="M250.223 279.525L272.234 275.647L267.219 247.199L239.675 252.053L250.223 279.525ZM271.483 275.121L250.637 278.794L240.562 252.556L266.694 247.951L271.483 275.121Z" fill="#1A0260"/>
<path d="M245.733 273.484C245.733 273.484 250.278 269.653 257.301 273.157C264.323 276.661 265.235 271.453 266.479 270.196C267.723 268.937 269.542 267.72 272.348 267.767C272.348 267.767 278.631 292.527 276.65 311.738L210.047 311.224C210.047 311.224 208.039 304.514 213.813 301.468C219.587 298.423 244.877 291.322 248.274 284.825C251.672 278.329 245.733 273.484 245.733 273.484Z" fill="#1A0260"/>
<path d="M264.853 306.926C264.949 294.612 276.073 290.645 276.186 290.606L275.901 289.772C275.782 289.812 264.071 293.968 263.972 306.92L264.853 306.926Z" fill="#1A0260"/>
<path d="M277.114 305.647C277.165 308.044 276.731 310.145 276.65 311.738L210.047 311.224C210.047 311.224 209.111 308.089 210.361 305.132L277.114 305.647Z" fill="white"/>
<path d="M276.958 312.064L276.974 311.754C277.003 311.19 277.078 310.546 277.159 309.863C277.306 308.612 277.472 307.195 277.439 305.64L277.432 305.324L210.149 304.806L210.064 305.005C208.785 308.035 209.698 311.183 209.737 311.316L209.806 311.545L276.958 312.064ZM276.793 305.969C276.799 307.358 276.647 308.644 276.514 309.788C276.447 310.36 276.382 310.907 276.345 311.411L210.299 310.901C210.127 310.161 209.688 307.761 210.579 305.458L276.793 305.969Z" fill="#1A0260"/>
<path d="M242.158 296.473L242.259 296.456C242.873 296.346 257.343 293.7 258.899 287.326C260.442 281.013 255.312 274.835 255.093 274.576L254.419 275.143C254.469 275.205 259.478 281.242 258.042 287.116C256.684 292.68 243.478 295.327 242.201 295.569L234.507 293.391L234.267 294.241L242.158 296.473Z" fill="white"/>
<path d="M242.288 290.103L242.58 289.27L249.514 291.704L249.222 292.536L242.288 290.103Z" fill="white"/>
<path d="M248.017 286.031L248.309 285.2L255.244 287.637L254.952 288.468L248.017 286.031Z" fill="white"/>
<path d="M195.41 185.981C197.857 198.236 203.807 219.411 209.115 235.162C214.425 250.914 221.608 273.433 221.608 273.433C221.608 273.433 256.872 270.485 274.297 245.603C274.297 245.603 253.164 198.866 247.842 184.789C242.52 170.712 191.028 164.034 195.41 185.981Z" fill="#D3F10B"/>
<path d="M267.806 251.904L268.668 251.717C266.423 241.295 260.76 229.726 255.763 219.519C251.114 210.021 247.098 201.817 248.253 198.89C248.432 198.435 248.739 198.131 249.192 197.959C251.445 197.102 257.072 197.886 264.194 198.88C278.817 200.921 300.914 204.006 315.319 195.279L314.863 194.526C300.725 203.089 278.815 200.03 264.316 198.006C256.785 196.954 251.343 196.196 248.878 197.133C248.191 197.395 247.704 197.876 247.433 198.565C246.135 201.854 250.035 209.82 254.971 219.906C259.946 230.069 265.584 241.587 267.806 251.904Z" fill="#1A0260"/>
<path d="M245.379 236.943L246.072 236.397C245.979 236.28 236.736 224.632 226.918 217.416L226.395 218.126C236.116 225.271 245.289 236.828 245.379 236.943Z" fill="#1A0260"/>
<path d="M244.816 69.9435L244.769 69.0615C238.831 69.3795 235.43 63.9345 235.395 63.8795L234.644 64.3385C234.792 64.5825 238.344 70.2895 244.816 69.9435Z" fill="white"/>
<path d="M238.871 41.7855L245.292 62.5505C245.292 62.5505 263.409 61.9075 263.992 50.4275L259.368 36.3044L238.871 41.7855Z" fill="white"/>
<path d="M245.055 62.8835L245.303 62.8745C245.487 62.8685 263.724 62.0875 264.315 50.4435L264.299 50.3255L259.58 35.9115L238.461 41.5585L245.055 62.8835ZM263.665 50.4695C263.083 60.7515 247.677 62.0775 245.527 62.2125L239.28 42.0115L259.156 36.6965L263.665 50.4695Z" fill="#1A0260"/>
<path d="M240.463 46.9095L242.606 53.4725C255.746 52.7345 254.693 41.3384 254.64 41.3664C241.032 46.6114 240.463 46.9095 240.463 46.9095Z" fill="#1A0260"/>
<path d="M237.295 50.2135C243.123 51.1765 255.108 45.0775 258.381 40.1595C259.547 38.4065 260.084 33.3095 259.74 30.7445C258.644 22.6995 257.904 15.4465 252.341 12.3335C249.995 11.0275 243.523 9.35648 241.144 9.43648C233.3 9.71648 231.446 16.9975 230.067 24.7175C228.518 33.3795 227.021 48.5145 237.295 50.2135Z" fill="white"/>
<path d="M238.145 50.6285C244.469 50.9485 255.554 44.9925 258.651 40.3385C259.934 38.4095 260.392 33.1625 260.062 30.7005L259.918 29.6415C258.867 21.8415 257.959 15.1055 252.499 12.0495C250.082 10.7035 243.592 9.02948 241.133 9.11148C233.132 9.39748 231.182 16.6295 229.747 24.6605C227.853 35.2455 228.383 42.7215 231.319 46.8785C232.74 48.8895 234.732 50.1185 237.242 50.5325C237.53 50.5805 237.833 50.6115 238.145 50.6285ZM241.676 9.76651C244.33 9.90151 250.039 11.4225 252.183 12.6165C257.361 15.5125 258.247 22.1005 259.276 29.7285L259.42 30.7885C259.772 33.4135 259.2 38.3425 258.111 39.9795C255.025 44.6175 243.147 50.8455 237.348 49.8925C235.016 49.5065 233.166 48.3675 231.849 46.5035C229.017 42.4925 228.524 35.1825 230.386 24.7745C231.772 17.0155 233.638 10.0285 241.155 9.75949C241.312 9.75549 241.486 9.75751 241.676 9.76651Z" fill="#1A0260"/>
<path d="M232.362 15.8985C236.085 8.68451 235.959 16.4545 241.901 14.5735C248.348 12.5325 254.546 15.3445 254.089 20.3015C253.211 29.8435 256.81 28.9755 256.81 28.9755L260.886 40.8225C260.886 40.8225 268.293 33.1545 269.024 18.7655C269.534 8.73445 258.705 6.6965 250.815 2.0135C241.492 -3.5215 228.856 2.75951 232.362 15.8985Z" fill="#1A0260"/>
<path d="M235.794 35.8035L236.166 35.0035C235.036 34.4765 233.401 33.4385 233.304 32.7785C233.291 32.6985 233.3 32.6065 233.445 32.4765C236.601 29.6525 236.494 25.1535 236.487 24.9625L236.484 24.8565L236.432 24.7635C236.416 24.7355 234.813 21.9325 231.291 22.4775L231.427 23.3495C234.031 22.9435 235.329 24.6735 235.606 25.1015C235.6 25.7895 235.442 29.5045 232.857 31.8205C232.429 32.2035 232.389 32.6235 232.432 32.9075C232.633 34.2675 235.268 35.5585 235.794 35.8035Z" fill="#1A0260"/>
<path d="M260.761 37.1745C257.713 37.1745 255.242 34.7035 255.242 31.6555C255.242 28.6074 257.713 26.1365 260.761 26.1365C263.809 26.1365 266.28 28.6074 266.28 31.6555C266.28 34.7035 263.809 37.1745 260.761 37.1745Z" fill="white"/>
<path d="M260.476 37.4945C261.776 37.5595 263.051 37.1925 264.131 36.4315C265.406 35.5315 266.255 34.1885 266.519 32.6505C266.786 31.1115 266.436 29.5625 265.536 28.2875C264.637 27.0125 263.294 26.1635 261.756 25.8975C260.219 25.6335 258.667 25.9815 257.392 26.8815C256.117 27.7815 255.268 29.1255 255.003 30.6635C254.737 32.2015 255.087 33.7515 255.987 35.0265C256.886 36.3005 258.23 37.1495 259.768 37.4155C260.004 37.4555 260.241 37.4815 260.476 37.4945ZM261.015 26.4665C261.224 26.4775 261.434 26.4995 261.645 26.5355C263.012 26.7715 264.206 27.5265 265.005 28.6605C265.806 29.7945 266.116 31.1725 265.88 32.5395C265.645 33.9065 264.891 35.1015 263.757 35.9005C262.623 36.7015 261.239 37.0095 259.878 36.7765C258.51 36.5405 257.316 35.7855 256.516 34.6525C255.715 33.5185 255.405 32.1405 255.641 30.7725C255.877 29.4055 256.631 28.2105 257.765 27.4115C258.725 26.7335 259.86 26.4075 261.015 26.4665Z" fill="#1A0260"/>
<path d="M260.998 35.7255C261.878 35.7695 262.768 35.0905 262.871 35.0095L262.326 34.3165C262.123 34.4735 261.448 34.9125 260.98 34.8375C260.834 34.8165 260.728 34.7485 260.636 34.6175C260.478 34.3935 260.488 34.3445 260.771 33.9505C261.078 33.5265 261.541 32.8865 261.209 31.7845C260.98 31.0295 260.527 30.5205 260.162 30.1125C259.6 29.4835 259.515 29.3865 260.062 28.8845C261.157 27.8765 263.666 29.9325 263.692 29.9525L264.258 29.2775C264.133 29.1715 261.15 26.6925 259.465 28.2335C258.276 29.3235 258.986 30.1185 259.504 30.6995C259.826 31.0605 260.192 31.4705 260.363 32.0385C260.569 32.7225 260.332 33.0525 260.055 33.4345C259.786 33.8065 259.38 34.3695 259.913 35.1255C260.143 35.4515 260.47 35.6535 260.852 35.7105C260.901 35.7175 260.95 35.7225 260.998 35.7255Z" fill="#1A0260"/>
<path d="M232.553 37.8564C232.553 37.8564 236.709 39.7895 242.076 37.5235C242.076 37.5235 243.349 43.2674 240.167 43.9684C236.985 44.6694 232.553 37.8564 232.553 37.8564Z" fill="#1A0260"/>
<path d="M245.568 26.3895L246.1 25.6865C241.301 22.0575 239.274 24.3155 239.192 24.4135L239.862 24.9865L239.527 24.6995L239.857 24.9925C239.874 24.9735 241.482 23.3005 245.568 26.3895Z" fill="#1A0260"/>
<path d="M233.379 27.8875C232.589 27.8875 231.949 27.2472 231.949 26.4575C231.949 25.6677 232.589 25.0275 233.379 25.0275C234.169 25.0275 234.809 25.6677 234.809 26.4575C234.809 27.2472 234.169 27.8875 233.379 27.8875Z" fill="#1A0260"/>
<path d="M243.957 29.2275L244.348 28.3075C244.228 28.2565 241.378 27.0675 239.19 27.9825L239.575 28.9045C241.381 28.1525 243.93 29.2175 243.957 29.2275Z" fill="#1A0260"/>
<path d="M217.539 262.51L218.368 262.203C212.266 245.716 207.101 227.845 203.332 214.796C201.763 209.365 200.407 204.678 199.275 201.073C199.046 200.345 198.802 199.598 198.55 198.83C196.142 191.468 193.143 182.304 197.004 169.332C201.18 155.307 232.691 152.481 233.009 152.454L232.934 151.576C231.612 151.687 200.504 154.484 196.16 169.08C192.22 182.315 195.264 191.624 197.712 199.104C197.963 199.87 198.207 200.613 198.434 201.336C199.564 204.931 200.917 209.615 202.484 215.04C206.258 228.103 211.427 245.993 217.539 262.51Z" fill="#1A0260"/>
<path d="M221.245 35.1045C219.987 35.1045 218.967 32.2436 218.967 28.7145C218.967 25.1854 219.987 22.3245 221.245 22.3245C222.503 22.3245 223.523 25.1854 223.523 28.7145C223.523 32.2436 222.503 35.1045 221.245 35.1045Z" fill="#D3F10B"/>
<path d="M219.265 22.3235H221.245V35.1035H219.265V22.3235Z" fill="#D3F10B"/>
<path d="M219.265 35.1045C218.007 35.1045 216.987 32.2436 216.987 28.7145C216.987 25.1854 218.007 22.3245 219.265 22.3245C220.523 22.3245 221.543 25.1854 221.543 28.7145C221.543 32.2436 220.523 35.1045 219.265 35.1045Z" fill="white"/>
<path d="M219.264 35.3845C220.926 35.3845 221.823 31.9475 221.823 28.7145C221.823 25.4815 220.927 22.0435 219.264 22.0435C217.603 22.0435 216.706 25.4815 216.706 28.7145C216.706 31.9475 217.603 35.3845 219.264 35.3845ZM219.264 22.6035C220.209 22.6035 221.262 25.1135 221.262 28.7135C221.262 32.3135 220.209 34.8224 219.264 34.8224C218.32 34.8224 217.267 32.3135 217.267 28.7135C217.267 25.1135 218.32 22.6035 219.264 22.6035Z" fill="#1A0260"/>
<path d="M184.973 21.3304C185.02 21.3304 185.067 21.3445 185.114 21.3505L218.615 23.7595V23.7834C219.802 23.9134 220.75 26.1505 220.75 28.9135C220.75 31.7605 219.746 34.0674 218.509 34.0674C218.497 34.0674 218.487 34.0594 218.475 34.0594L184.974 37.1615C183.415 37.1615 182.152 33.6175 182.152 29.2455C182.151 24.8745 183.415 21.3304 184.973 21.3304Z" fill="#1A0260"/>
<path d="M72.9742 14.1005H75.3533V46.2405H72.9742V14.1005Z" fill="#D3F10B"/>
<path d="M75.3492 30.1675H75.3572V30.1755H75.3492V30.1675Z" fill="#D3F10B"/>
<path d="M127.56 16.5065H129.53V43.1215H127.56V16.5065Z" fill="#D3F10B"/>
<path d="M184.012 38.4734C182.195 38.4734 180.722 34.342 180.722 29.2455C180.722 24.149 182.195 20.0175 184.012 20.0175C185.829 20.0175 187.302 24.149 187.302 29.2455C187.302 34.342 185.829 38.4734 184.012 38.4734Z" fill="#D3F10B"/>
<path d="M181.152 20.0185H184.011V38.4725H181.152V20.0185Z" fill="#D3F10B"/>
<path d="M181.152 38.4734C179.336 38.4734 177.863 34.342 177.863 29.2455C177.863 24.149 179.336 20.0175 181.152 20.0175C182.969 20.0175 184.441 24.149 184.441 29.2455C184.441 34.342 182.969 38.4734 181.152 38.4734Z" fill="white"/>
<path d="M181.152 38.7535C183.153 38.7535 184.721 34.5765 184.721 29.2455C184.721 23.9145 183.153 19.7385 181.152 19.7385C179.151 19.7385 177.583 23.9145 177.583 29.2455C177.583 34.5765 179.151 38.7535 181.152 38.7535ZM181.152 20.2995C182.605 20.2995 184.161 23.8945 184.161 29.2455C184.161 34.5985 182.605 38.1924 181.152 38.1924C179.699 38.1924 178.143 34.5975 178.143 29.2455C178.143 23.8935 179.699 20.2995 181.152 20.2995Z" fill="#1A0260"/>
<path d="M131.634 18.5835C131.702 18.5835 131.77 18.6035 131.837 18.6125L180.379 22.2335C181.595 22.2335 182.581 25.5135 182.581 29.5585C182.581 33.6045 181.595 36.8835 180.379 36.8835L131.634 41.4435C129.384 41.4435 127.56 36.3265 127.56 30.0135C127.56 23.7005 129.384 18.5835 131.634 18.5835Z" fill="#1A0260"/>
<path d="M129.529 43.1215C126.909 43.1215 124.785 37.1633 124.785 29.8135C124.785 22.4637 126.909 16.5055 129.529 16.5055C132.149 16.5055 134.273 22.4637 134.273 29.8135C134.273 37.1633 132.149 43.1215 129.529 43.1215Z" fill="#D3F10B"/>
<path d="M127.56 43.1215C124.941 43.1215 122.817 37.1633 122.817 29.8135C122.817 22.4637 124.941 16.5055 127.56 16.5055C130.18 16.5055 132.303 22.4637 132.303 29.8135C132.303 37.1633 130.18 43.1215 127.56 43.1215Z" fill="white"/>
<path d="M127.56 43.4015C130.377 43.4015 132.584 37.4325 132.584 29.8135C132.584 22.1945 130.377 16.2255 127.56 16.2255C124.743 16.2255 122.536 22.1945 122.536 29.8135C122.536 37.4325 124.743 43.4015 127.56 43.4015ZM127.56 16.7865C129.98 16.7865 132.024 22.7525 132.024 29.8135C132.024 36.8745 129.98 42.8405 127.56 42.8405C125.14 42.8405 123.096 36.8745 123.096 29.8135C123.096 22.7525 125.14 16.7865 127.56 16.7865Z" fill="#1A0260"/>
<path d="M76.4113 16.8635L126.825 18.7325V18.7385C126.841 18.7375 126.856 18.7314 126.873 18.7314C129.057 18.7314 130.826 23.6974 130.826 29.8224C130.826 35.9474 129.056 40.9135 126.873 40.9135L76.4113 43.4775C73.7933 43.4775 71.6722 37.5195 71.6722 30.1695C71.6712 22.8215 73.7923 16.8635 76.4113 16.8635Z" fill="#1A0260"/>
<path d="M75.3533 46.2405C72.1892 46.2405 69.6243 39.0461 69.6243 30.1714C69.6243 21.2968 72.1892 14.1025 75.3533 14.1025C78.5173 14.1025 81.0823 21.2968 81.0823 30.1714C81.0823 39.0461 78.5173 46.2405 75.3533 46.2405Z" fill="#D3F10B"/>
<path d="M72.9751 46.2405C69.8116 46.2405 67.2471 39.0461 67.2471 30.1714C67.2471 21.2968 69.8116 14.1025 72.9751 14.1025C76.1386 14.1025 78.7031 21.2968 78.7031 30.1714C78.7031 39.0461 76.1386 46.2405 72.9751 46.2405Z" fill="white"/>
<path d="M72.9741 46.5204C76.3431 46.5204 78.9832 39.3385 78.9832 30.1705C78.9832 21.0015 76.3431 13.8195 72.9741 13.8195C69.6051 13.8195 66.9661 21.0015 66.9661 30.1705C66.9661 39.3395 69.6051 46.5204 72.9741 46.5204ZM72.9741 14.3815C75.9271 14.3815 78.4221 21.6114 78.4221 30.1714C78.4221 38.7304 75.9271 45.9604 72.9741 45.9604C70.0211 45.9604 67.5271 38.7304 67.5271 30.1714C67.5271 21.6114 70.0211 14.3815 72.9741 14.3815Z" fill="#1A0260"/>
<path d="M72.9751 41.3015C70.7842 41.3015 69.0081 36.3184 69.0081 30.1714C69.0081 24.0245 70.7842 19.0414 72.9751 19.0414C75.166 19.0414 76.9421 24.0245 76.9421 30.1714C76.9421 36.3184 75.166 41.3015 72.9751 41.3015Z" fill="#D3F10B"/>
<path d="M203.097 40.0284C205.506 57.6284 233.778 83.9935 234.404 84.3985C234.176 84.9555 233.683 86.1625 232.985 87.8015L239.729 89.4445C239.729 89.4445 242.237 99.0285 241.82 100.194C241.404 101.361 235.404 117.611 235.404 117.611C235.404 117.611 221.446 120.318 212.425 119.215C194.101 108.685 189.833 41.3065 189.821 40.7725L203.097 40.0284Z" fill="white"/>
<path d="M217.296 119.852C225.707 119.852 235.359 118.001 235.475 117.979L235.682 117.939L235.755 117.741C235.816 117.579 241.761 101.475 242.173 100.32C242.607 99.1075 240.516 90.9685 240.093 89.3495L240.036 89.1324L233.502 87.5414C234.105 86.1194 234.534 85.0685 234.745 84.5535L234.862 84.2665L234.607 84.0835C234.335 83.8845 205.86 57.4525 203.467 39.9775L203.42 39.6345L189.435 40.4164L189.444 40.7795C189.46 41.4455 193.61 108.835 212.237 119.539L212.378 119.586C213.904 119.773 215.575 119.852 217.296 119.852ZM235.125 117.282C233.365 117.607 220.814 119.84 212.545 118.852C195.257 108.766 190.571 46.4885 190.217 41.1245L202.776 40.4214C205.405 57.4424 231.17 81.9525 233.958 84.4975C233.697 85.1355 233.246 86.2315 232.641 87.6545L232.467 88.0605L239.424 89.7545C240.62 94.3545 241.7 99.4154 241.467 100.067C241.081 101.15 235.814 115.417 235.125 117.282Z" fill="#1A0260"/>
<path d="M293.237 62.6795C296.919 67.8095 299.809 78.1725 289.77 87.1855C279.731 96.1995 255.022 114.286 233.665 121.996C233.665 121.996 223.286 99.8255 228.036 72.9935C228.036 72.9935 255.679 59.4095 267.91 55.7895C280.143 52.1705 289.176 57.0205 293.237 62.6795Z" fill="white"/>
<path d="M233.47 122.464L233.791 122.348C254.963 114.705 279.517 96.8964 290.02 87.4654C299.654 78.8154 297.938 68.5895 293.541 62.4615C289.543 56.8885 280.402 51.7005 267.803 55.4305C255.681 59.0185 228.147 72.5214 227.87 72.6574L227.699 72.7414L227.666 72.9294C222.95 99.5704 233.22 121.933 233.324 122.156L233.47 122.464ZM292.932 62.8985C297.149 68.7745 298.785 78.5875 289.519 86.9065C279.113 96.2515 254.862 113.851 233.865 121.523C232.652 118.74 224.078 97.8564 228.372 73.2464C230.726 72.0964 256.455 59.5705 268.017 56.1485C280.24 52.5335 289.077 57.5265 292.932 62.8985Z" fill="#1A0260"/>
<path d="M244.977 100.232C245.096 100.316 257.072 108.516 269.834 98.8304L269.302 98.1285C257.046 107.429 245.598 99.5925 245.485 99.5115L244.977 100.232Z" fill="#1A0260"/>
<path d="M208.447 23.8995C208.447 23.8995 209.362 26.3025 209.854 27.9355C210.345 29.5685 210.224 30.7315 208.509 33.0245C206.793 35.3175 203.814 41.3265 201.128 42.1875C198.442 43.0485 191.165 45.2015 187.938 38.1055C184.711 31.0095 188.149 18.9714 191.49 22.7054C191.49 22.7054 192.498 17.8455 196.453 20.6715C196.453 20.6715 199.721 16.2445 202.139 20.2845C202.139 20.2845 207.058 14.8125 208.447 23.8995Z" fill="white"/>
<path d="M195.73 43.4084C197.357 43.4084 199.184 43.0855 201.208 42.4355C203.271 41.7745 205.406 38.3585 207.122 35.6145C207.737 34.6315 208.268 33.7815 208.718 33.1805C210.53 30.7585 210.608 29.5355 210.104 27.8605C209.642 26.3285 208.801 24.0985 208.701 23.8335C208.22 20.7105 207.256 18.9115 205.835 18.4865C204.31 18.0345 202.764 19.3105 202.184 19.8685C201.524 18.8875 200.744 18.3695 199.861 18.3265C199.822 18.3245 199.783 18.3235 199.744 18.3235C198.199 18.3235 196.851 19.7755 196.402 20.3185C195.256 19.5535 194.228 19.3405 193.346 19.6875C192.155 20.1535 191.581 21.5035 191.357 22.2115C190.688 21.6555 189.964 21.5925 189.281 22.0385C186.811 23.6505 185.069 32.4215 187.703 38.2125C189.275 41.6725 191.965 43.4084 195.73 43.4084ZM205.166 18.9115C205.34 18.9115 205.515 18.9345 205.687 18.9865C206.884 19.3445 207.75 21.0575 208.191 23.9385L208.205 23.9925C208.214 24.0155 209.122 26.4055 209.606 28.0115C210.068 29.5475 209.989 30.6135 208.302 32.8685C207.839 33.4875 207.302 34.3455 206.681 35.3385C205.098 37.8695 202.93 41.3375 201.05 41.9405C198.657 42.7085 191.379 45.0424 188.176 37.9995C185.685 32.5215 187.286 23.9635 189.564 22.4765C190.147 22.0965 190.713 22.2285 191.296 22.8805L191.64 23.2645L191.745 22.7595C191.749 22.7385 192.19 20.6975 193.536 20.1735C194.294 19.8775 195.226 20.1155 196.302 20.8845L196.51 21.0325L196.662 20.8265C196.678 20.8065 198.147 18.8455 199.742 18.8455C199.773 18.8455 199.804 18.8464 199.836 18.8484C200.614 18.8864 201.315 19.4145 201.915 20.4195L202.096 20.7215L202.332 20.4595C202.347 20.4415 203.745 18.9115 205.166 18.9115Z" fill="#1A0260"/>
<path d="M202.138 20.2845C202.56 21.2875 202.77 22.3135 202.932 23.3475C203.073 24.3855 203.161 25.4295 203.04 26.5125C202.618 25.5205 202.406 24.4875 202.246 23.4495C202.107 22.4075 202.017 21.3575 202.138 20.2845Z" fill="#1A0260"/>
<path d="M196.438 20.6765C196.831 22.0545 197.042 23.4415 197.236 24.8285C197.414 26.2225 197.561 27.6025 197.623 29.0325C197.314 28.3825 197.107 27.6965 196.938 27.0085C196.762 26.3195 196.649 25.6195 196.549 24.9205C196.375 23.5175 196.286 22.1035 196.438 20.6765Z" fill="#1A0260"/>
<path d="M191.447 22.6695C191.477 23.6745 191.438 24.6125 191.44 25.5635C191.429 26.0375 191.435 26.5095 191.435 26.9875C191.43 27.4665 191.451 27.9445 191.418 28.4535C190.923 27.5705 190.741 26.5525 190.746 25.5575C190.756 25.0575 190.803 24.5594 190.917 24.0724C191.028 23.5864 191.185 23.1055 191.447 22.6695Z" fill="#1A0260"/>
<path d="M203.507 39.8825C203.507 39.8825 202.569 40.6955 203.194 42.5705C203.819 44.4455 197.538 48.1645 197.538 48.1645L195.6 48.1015L193.569 46.4135L190.319 41.6945C190.319 41.6945 190.22 40.9035 189.35 40.0285C188.481 39.1535 191.1 35.1065 191.506 35.1035C191.912 35.1005 197.1 35.4755 197.444 36.0065C197.788 36.5375 201.757 37.8195 201.882 38.0065C202.007 38.1935 203.507 39.8825 203.507 39.8825Z" fill="white"/>
<path d="M292.165 449.327H366.145L343.827 368.651H269.845L292.165 449.327Z" fill="#C5B0FF"/>
<path d="M253.018 429.379L269.819 368.651H343.799L327 429.379H253.018Z" fill="#1A0260"/>
<path d="M253.117 429.951H327.098L294.152 312.064H220.171L253.117 429.951Z" fill="#C5B0FF"/>
<path d="M193.886 406.128L220.174 312.064H294.155L267.868 406.128H193.886Z" fill="#1A0260"/>
<path d="M193.926 406.156H267.907L226.423 258.163H152.442L193.926 406.156Z" fill="#C5B0FF"/>
<path d="M120.612 373.011L152.805 258.163H226.787L194.593 373.011H120.612Z" fill="#1A0260"/>
<path d="M268.393 406.759H224.019V405.466H267.416L283.336 349.407L284.582 349.76L268.393 406.759Z" fill="#1A0260"/>
<path d="M64.2344 119.694L72.5033 157.044L81.2444 196.504L111.334 332.303L120.434 373.393H194.423L194.343 373.013L168.893 258.164L146.494 157.044L138.213 119.694H64.2344Z" fill="#C5B0FF"/>
<path d="M29.1913 157.04L92.9352 84.4675L196.695 157.04H29.1913Z" fill="#C5B0FF"/>
<path d="M81.1543 196.523L111.314 332.624L120.354 373.393H121.684L121.604 373.013L121.164 371.053L111.564 327.714L82.4233 196.244L81.2444 196.504L81.1543 196.523Z" fill="#1A0260"/>
<path opacity="0.25" d="M111.314 332.624L120.354 373.394H137.014C137.034 373.274 137.043 373.144 137.043 373.014C137.123 372.214 137.163 371.405 137.163 370.594L137.173 366.024V365.014L122.863 364.984H122.373C122.723 364.365 123.063 363.724 123.403 363.075C123.892 362.125 124.373 361.155 124.853 360.165C132.382 344.515 137.462 324.354 138.802 308.104C140.392 289.064 136.842 275.405 126.113 280.655C116.933 285.155 112.763 307.144 111.563 327.715C111.462 329.255 111.382 330.785 111.333 332.305C111.324 332.414 111.324 332.523 111.314 332.624Z" fill="#121115"/>
<path d="M54.7113 294.232C78.3683 268.687 109.352 335.113 106.3 361.301L94.5203 361.27C83.0883 354.696 35.5583 314.92 54.7113 294.232Z" fill="#D3F10B"/>
<path d="M100.172 361.43L101.087 361.012C83.6322 322.899 55.3531 294.164 55.0681 293.878L54.3541 294.587C54.6371 294.872 82.7931 323.486 100.172 361.43Z" fill="#1A0260"/>
<path d="M61.9093 330.879C69.4563 333.25 85.6113 335.305 86.3673 335.4L86.4934 334.401C86.2894 334.377 66.0764 331.815 60.2134 329.186L59.8033 330.106C60.3843 330.366 61.0953 330.624 61.9093 330.879Z" fill="#1A0260"/>
<path d="M72.0763 313.108C74.9003 304.85 75.4894 291.638 75.4944 291.505L74.4873 291.462C74.4823 291.593 73.9023 304.663 71.1223 312.78L72.0763 313.108Z" fill="#1A0260"/>
<path d="M95.9884 318.439C103.177 333.469 107.537 350.688 106.301 361.301C89.8774 344.237 93.3724 321.231 95.9884 318.439Z" fill="#1A0260"/>
<path d="M101.223 354.951C101.558 357.6 101.987 359.625 102.472 360.84C102.541 361.002 102.611 361.153 102.68 361.291L106.29 361.303H108.431L111.254 361.315C111.335 361.176 111.416 361.026 111.496 360.876C112.352 359.337 113.174 357.717 113.973 356.063C130.322 322.082 135.135 266.822 115.234 276.553C105.26 281.435 101.212 306.982 100.424 328.907C100.424 328.919 100.424 328.919 100.424 328.93C100.054 339.25 100.401 348.772 101.223 354.951Z" fill="#D3F10B"/>
<path d="M105.804 361.214L106.795 361.392C110.137 343.016 119.23 283.765 119.32 283.167L118.325 283.016C118.236 283.611 109.144 342.851 105.804 361.214Z" fill="#1A0260"/>
<path d="M109.836 340.519L119.015 329.661L119.783 330.31L110.604 341.168L109.836 340.519Z" fill="#1A0260"/>
<path d="M102.693 308.186L103.34 307.414L113.729 316.12L113.082 316.892L102.693 308.186Z" fill="#1A0260"/>
<path d="M71.2561 366.336C71.2561 368.766 71.5451 371.172 72.1471 373.521C72.2161 373.857 72.3091 374.193 72.4131 374.528C73.2351 377.409 74.4961 380.186 76.1851 382.8L77.4691 384.802L86.9341 444.666L87.7081 449.596H88.6221L112.352 449.664L119.908 385.369L119.966 384.917L120.209 384.549L121.273 382.929C124.536 377.908 126.271 372.248 126.283 366.487L126.295 361.917V361.42L108.384 361.373L106.799 361.361H106.637L100.355 361.349H100.135L71.2681 361.269L71.2561 366.336Z" fill="white"/>
<path d="M112.682 450.035L112.72 449.707L120.323 385.05L121.584 383.132C124.89 378.044 126.643 372.288 126.654 366.487L126.666 361.049L70.8982 360.897L70.8862 366.335C70.8862 368.826 71.1902 371.274 71.7882 373.611C71.8552 373.941 71.9512 374.289 72.0592 374.635C72.8932 377.556 74.1773 380.373 75.8743 382.999L77.1152 384.935L87.3912 449.963H88.6212L112.682 450.035ZM125.925 361.788L125.913 366.485C125.901 372.143 124.189 377.76 120.963 382.727L119.599 384.872L119.541 385.322L112.023 449.294L88.0243 449.226L77.7803 384.602L76.4962 382.601C74.8382 380.036 73.5842 377.285 72.7672 374.426C72.6652 374.095 72.5762 373.771 72.5082 373.446C71.9212 371.152 71.6252 368.767 71.6252 366.339L71.6353 361.641L125.925 361.788Z" fill="#1A0260"/>
<path d="M71.6099 373.574L112.6 373.685L112.597 374.692L71.6071 374.581L71.6099 373.574Z" fill="#1A0260"/>
<path d="M105.539 384.315V385.322L119.909 385.369H120.209V384.362L105.539 384.315Z" fill="#1A0260"/>
<path d="M70.7581 366.336C70.7461 368.754 71.0351 371.161 71.6261 373.521C71.7071 373.857 71.7881 374.193 71.8921 374.528C72.7251 377.502 74.0211 380.383 75.7561 383.08L76.9941 384.988L86.9221 447.826L87.1421 449.202L87.2811 450.094L88.6232 450.106V449.099H88.1492L87.1191 442.55L77.9561 384.617L76.6021 382.535C74.9831 380.013 73.7451 377.316 72.9351 374.528C72.8311 374.193 72.7381 373.857 72.6571 373.521C72.0551 371.172 71.7551 368.754 71.7661 366.336L71.7781 361.766L107.993 361.87L126.297 361.916V360.909L111.498 360.875L108.803 360.863L106.894 360.852H105.875L102.474 360.839H99.8942L93.7742 360.817L70.7721 360.758L70.7581 366.336Z" fill="#1A0260"/>
<path d="M144.576 114.283C144.576 114.283 145.399 109.87 139.451 110.86C133.503 111.849 133.378 115.885 135.158 116.688C136.938 117.492 138.02 118.14 140.768 116.277C140.768 116.277 139.326 118.778 141.188 119.975C143.049 121.172 145.13 120.452 145.13 120.452C145.13 120.452 143.389 122.408 143.955 123.387C144.519 124.366 147.217 125.301 149.732 123.905C149.732 123.905 148.565 126.604 152.015 127.119C155.466 127.635 155.004 126.597 155.004 126.597L158.133 129.212C158.133 129.212 160.16 124.037 154.151 121.608C154.151 121.608 154.211 117.413 149.392 118.42C149.392 118.42 150.023 112.694 144.576 114.283Z" fill="white"/>
<path d="M158.272 129.746L158.435 129.328C158.456 129.273 160.464 123.939 154.466 121.387C154.429 120.867 154.23 119.566 153.192 118.71C152.359 118.024 151.197 117.795 149.739 118.026C149.755 117.202 149.64 115.397 148.432 114.383C147.599 113.683 146.425 113.504 144.937 113.853C144.952 113.251 144.843 112.214 144.065 111.419C143.138 110.476 141.569 110.179 139.398 110.54C134.643 111.331 133.955 113.845 133.857 114.597C133.72 115.647 134.19 116.606 135.025 116.983L135.271 117.095C136.772 117.778 137.9 118.294 140.08 117.083C139.778 118.117 139.783 119.455 141.013 120.245C142.22 121.022 143.498 121.053 144.332 120.949C143.827 121.676 143.235 122.787 143.675 123.548C144.255 124.554 146.715 125.545 149.248 124.495C149.188 124.931 149.202 125.504 149.502 126.043C149.915 126.785 150.745 127.255 151.969 127.438C153.754 127.703 154.775 127.615 155.176 127.158L158.272 129.746ZM150.782 118.586C151.608 118.586 152.277 118.794 152.781 119.209C153.838 120.08 153.829 121.587 153.829 121.602L153.826 121.824L154.031 121.907C158.726 123.804 158.289 127.393 157.969 128.651L154.144 125.454L154.709 126.727C154.624 126.801 154.203 127.117 152.063 126.799C151.05 126.648 150.379 126.289 150.068 125.735C149.639 124.969 150.025 124.041 150.029 124.031L150.397 123.166L149.575 123.621C147.168 124.961 144.682 124.003 144.234 123.225C143.896 122.64 144.854 121.249 145.371 120.667L146.186 119.75L145.024 120.146C145.006 120.153 143.063 120.796 141.361 119.702C139.783 118.687 140.995 116.529 141.048 116.437L141.743 115.224L140.586 116.008C138.119 117.682 137.148 117.239 135.539 116.506L135.29 116.393C134.717 116.134 134.398 115.447 134.498 114.68C134.669 113.362 136.074 111.749 139.503 111.179C141.448 110.856 142.827 111.086 143.599 111.868C144.505 112.788 144.26 114.209 144.257 114.223L144.164 114.738L144.666 114.592C146.145 114.161 147.276 114.255 148.016 114.877C149.321 115.972 149.075 118.357 149.072 118.382L149.023 118.825L149.46 118.733C149.937 118.635 150.378 118.586 150.782 118.586Z" fill="#1A0260"/>
<path d="M145.282 120.343C145.561 120.113 145.852 119.902 146.146 119.698C146.443 119.498 146.747 119.31 147.061 119.143C147.373 118.969 147.7 118.829 148.032 118.701C148.365 118.571 148.712 118.482 149.064 118.398C148.704 118.412 148.336 118.456 147.988 118.566C147.637 118.67 147.297 118.808 146.975 118.983C146.334 119.334 145.745 119.784 145.282 120.343Z" fill="white"/>
<path d="M145.486 120.593C145.759 120.368 146.044 120.162 146.33 119.964C146.641 119.755 146.931 119.579 147.213 119.429C147.477 119.283 147.764 119.153 148.15 119.003C148.473 118.877 148.816 118.791 149.14 118.714L149.052 118.076C148.606 118.093 148.226 118.152 147.891 118.258C147.518 118.368 147.156 118.518 146.822 118.699C146.097 119.095 145.496 119.578 145.033 120.137L145.486 120.593Z" fill="#1A0260"/>
<path d="M149.942 123.678C150.221 123.448 150.512 123.237 150.806 123.033C151.103 122.833 151.407 122.645 151.721 122.478C152.033 122.304 152.36 122.164 152.692 122.035C153.026 121.905 153.372 121.817 153.725 121.733C153.364 121.747 152.996 121.791 152.648 121.901C152.297 122.005 151.957 122.143 151.635 122.318C150.995 122.669 150.406 123.119 149.942 123.678Z" fill="white"/>
<path d="M150.148 123.927C150.419 123.702 150.704 123.497 150.99 123.299C151.301 123.09 151.591 122.914 151.873 122.764C152.137 122.618 152.424 122.487 152.81 122.337C153.13 122.212 153.475 122.125 153.8 122.048L153.712 121.41C153.266 121.427 152.886 121.487 152.551 121.593C152.178 121.703 151.816 121.853 151.482 122.034C150.758 122.429 150.158 122.912 149.694 123.472L150.148 123.927Z" fill="#1A0260"/>
<path d="M140.768 116.276C141.048 116.046 141.338 115.835 141.633 115.631C141.93 115.431 142.234 115.244 142.548 115.076C142.86 114.902 143.187 114.762 143.519 114.634C143.852 114.504 144.198 114.415 144.551 114.331C144.191 114.345 143.823 114.389 143.475 114.499C143.124 114.603 142.784 114.741 142.462 114.916C141.822 115.266 141.232 115.717 140.768 116.276Z" fill="white"/>
<path d="M140.973 116.526C141.246 116.301 141.53 116.095 141.817 115.898C142.122 115.692 142.412 115.516 142.701 115.362C142.968 115.215 143.263 115.08 143.636 114.936C143.966 114.807 144.321 114.719 144.627 114.646L144.539 114.008C144.093 114.025 143.713 114.085 143.378 114.191C143.003 114.302 142.642 114.452 142.308 114.634C141.587 115.026 140.985 115.509 140.52 116.069L140.973 116.526Z" fill="#1A0260"/>
<path d="M24.0211 449.787H446.953V450.807H24.0211V449.787Z" fill="#1A0260"/>
</svg>
