<svg width="118" height="93" viewBox="0 0 118 93" fill="none" xmlns="http://www.w3.org/2000/svg">
<path d="M0.798096 23.2485H117.04V84.9938C117.04 89.412 113.459 92.9938 109.04 92.9938H8.79809C4.37982 92.9938 0.798096 89.412 0.798096 84.9938V23.2485Z" fill="#C5B0FF"/>
<rect x="19.7727" y="33.2121" width="80.816" height="48.711" fill="#F7F7F7"/>
<path d="M6.85257 92.3832L5.9637 92.1213L5.14908 91.6939L4.33446 91.2666L3.57646 90.6785L2.81846 90.0904L2.48181 89.6978L2.14517 89.3051L1.5704 88.3701L0.995641 87.4351L0.607927 86.3124L0.220215 85.1897V46.436V7.68224L0.538555 6.72197L0.856895 5.7617L1.25922 4.96567L1.66155 4.16965L2.17162 3.48428L2.68168 2.79891L3.43382 2.20761L4.18596 1.61632L4.93808 1.20032L5.6902 0.784331L6.71582 0.460799L7.74145 0.137268H58.4756H109.21L109.893 0.361228L110.577 0.585188L110.958 0.673605L111.338 0.762022L112.31 1.34132L113.281 1.92063L114.068 2.69329L114.854 3.46596L115.441 4.47445L116.028 5.48295L116.38 6.514L116.731 7.54506V46.3674V85.1897L116.476 86.0128L116.221 86.8359L115.662 87.9223L115.104 89.0087L114.14 89.9868L113.175 90.965L112.15 91.5277L111.124 92.0905L110.09 92.3783L109.056 92.6661L58.3985 92.6556L7.74145 92.6451L6.85257 92.3832ZM109.757 92.2206L110.714 91.9865L111.651 91.4991L112.589 91.0117L113.292 90.4328L113.995 89.8539L114.153 89.6481L114.31 89.4423L114.68 89.0308L115.05 88.6192L115.567 87.5218L116.083 86.4243L116.27 85.6698L116.457 84.9153V54.3239V23.7324L58.4388 23.698L0.420106 23.6635L0.4615 54.4952L0.502894 85.3269L0.745193 86.0128L0.987492 86.6987L1.45833 87.6732L1.92916 88.6477L2.75736 89.5544L3.58557 90.4611L4.58298 91.0847L5.58039 91.7083L6.19494 91.9184L6.80948 92.1284L7.82246 92.3144L8.83545 92.5003L58.8175 92.4775L108.799 92.4548L109.757 92.2206ZM24.0291 82.7883L24.1665 82.6504L62.4489 82.6168L100.731 82.5833L100.766 57.7191L100.8 32.855H60.0486H19.2968V52.0604V71.2658H19.4563H19.6159L19.535 71.3469L19.4542 71.428L19.1703 71.3377L18.8865 71.2473V51.8454V32.4435H59.9798H101.073V57.6848V82.9262H62.4823H23.8916L24.0291 82.7883ZM30.6128 66.7739L31.741 66.7277L32.8692 66.7739L33.9974 66.8201H31.741H29.4846L30.6128 66.7739ZM38.8047 62.8634L38.8681 62.7606H41.1848H43.5015V62.8634V62.9663H41.1214H38.7414L38.8047 62.8634ZM45.1767 47.1562L51.5697 47.1192L57.9628 47.1562L64.3558 47.1932H51.5697H38.7836L45.1767 47.1562ZM38.852 46.1273V46.0244H51.5697H64.2874V46.1273V46.2302H51.5697H38.852V46.1273ZM116.457 15.6388L116.457 7.9566L116.214 7.06492L115.971 6.17325L115.498 5.16796L115.025 4.16268L113.889 3.03595L112.753 1.90922L111.936 1.48267L111.119 1.05611L110.096 0.733871L109.073 0.411631H58.4756H7.8782L6.85257 0.733791L5.82695 1.05595L4.93808 1.54585L4.04921 2.03574L3.02358 3.09192L1.99796 4.14811L1.48305 5.16068L0.968138 6.17325L0.740477 7.13351L0.512818 8.09378L0.461707 15.7418L0.410595 23.3898L58.434 23.3554L116.457 23.3209L116.457 15.6388ZM24.806 16.6677L24.0931 16.4134L23.4885 15.9961L22.8838 15.5787L22.5043 15.1286L22.1248 14.6785L21.7731 13.924L21.4214 13.1695L21.4189 11.8663L21.4164 10.563L21.7212 9.90053L22.026 9.23801L22.4412 8.71219L22.8563 8.18636L23.5745 7.70813L24.2927 7.22991L24.9058 7.0614L25.5189 6.89289L26.4781 6.90015L27.4373 6.9074L28.2281 7.2042L29.0188 7.50098L29.7684 8.23513L30.518 8.96928L30.857 9.71209L31.196 10.4549L31.3369 11.2197L31.4779 11.9845L31.267 12.8964L31.0562 13.8083L30.7088 14.403L30.3614 14.9977L29.7677 15.5467L29.174 16.0956L28.7341 16.3238L28.2942 16.552L27.6587 16.7455L27.0231 16.939L26.271 16.9305L25.5189 16.9219L24.806 16.6677ZM28.3409 16.1341L28.9749 15.829L29.5141 15.366L30.0533 14.903L30.5211 13.9677L30.9889 13.0323L30.9825 11.8663L30.9761 10.7002L30.5836 9.88404L30.1911 9.06785L29.5985 8.49017L29.006 7.91249L28.4159 7.62591L27.8258 7.33934L27.0764 7.20036L26.3269 7.06139L25.6191 7.19605L24.9113 7.3307L24.2579 7.67461L23.6044 8.01852L23.3189 8.26592L23.0333 8.51331L22.5517 9.14629L22.0701 9.77927L21.8286 10.6741L21.5872 11.5689L21.6802 12.316L21.7732 13.063L22.1565 13.8708L22.5397 14.6785L22.9353 15.0743L23.3309 15.4702L23.8372 15.8085L24.3436 16.1468L24.8629 16.3405L25.3822 16.5343L26.5445 16.4867L27.7069 16.4392L28.3409 16.1341ZM42.681 16.541L42.3391 16.4346L41.7523 16.1339L41.1654 15.8331L40.6438 15.3099L40.1221 14.7866L39.7264 13.978L39.3306 13.1695L39.2833 11.9821L39.236 10.7946L39.6534 9.91742L40.0707 9.0402L40.6453 8.46954L41.2198 7.89888L41.9738 7.5162L42.7278 7.13351H53.747H64.7661L65.3815 7.45871L65.9968 7.78391L66.5438 8.23174L67.0909 8.67956L67.5289 9.41553L67.967 10.1515L68.1148 11.09L68.2625 12.0285L68.1268 12.7647L67.9911 13.501L67.6995 14.0745L67.4078 14.648L66.7597 15.2981L66.1115 15.9483L65.4388 16.2737L64.7661 16.599L53.8945 16.6232L43.0229 16.6473L42.681 16.541ZM65.526 15.8199L66.1493 15.4524L66.7041 14.8485L67.259 14.2447L67.5644 13.4327L67.8699 12.6208L67.8098 11.6461L67.7498 10.6715L67.4377 10.0248L67.1256 9.37808L66.7711 8.95542L66.4166 8.53275L65.7115 8.08029L65.0064 7.62784L64.1341 7.47699L63.2618 7.32615L53.1423 7.36702L43.0229 7.40788L42.35 7.71916L41.6771 8.03044L41.1102 8.49645L40.5433 8.96246L40.0799 9.83135L39.6166 10.7002L39.6192 11.8663L39.6217 13.0323L39.9361 13.6496L40.2505 14.2669L40.5809 14.709L40.9113 15.1511L41.535 15.5816L42.1588 16.0121L42.5224 16.1239L42.8859 16.2357L53.8943 16.2116L64.9026 16.1875L65.526 15.8199ZM16.2203 9.44841L15.9591 8.96192L15.2339 8.29702L14.5087 7.63211L13.7917 7.35567L13.0747 7.07922L13.2798 7.07341L13.4849 7.06761L14.1687 7.39061L14.8524 7.71361L15.372 8.22555L15.8916 8.73748L16.2467 9.27581L16.6018 9.81413L16.5416 9.87452L16.4814 9.9349L16.2203 9.44841Z" fill="#1A0260"/>
<path d="M16.7672 85.3066L16.0834 85.1092L15.3997 84.8064L14.7159 84.5037L14.5319 84.3665L14.348 84.2293L13.6565 83.612L12.965 82.9947L12.5117 82.2882L12.0584 81.5817L11.7531 80.7106L11.4478 79.8395L11.4511 78.3305L11.4545 76.8215L11.8095 75.967L12.1645 75.1125L12.7229 74.3209L13.2813 73.5292L13.7935 73.1109L14.3057 72.6927L14.9986 72.2702L15.6915 71.8478L16.6995 71.6178L17.7075 71.3879L18.7459 71.3743L19.7843 71.3608L20.6571 71.6638L21.5299 71.9668L22.2254 72.4316L22.9209 72.8965L23.5589 73.5558L24.1968 74.2151L24.6782 75.1068L25.1596 75.9984L25.3986 77.2594L25.6375 78.5204L25.3943 79.6555L25.1512 80.7906L24.7257 81.666L24.3002 82.5414L23.3734 83.4022L22.4465 84.263L21.7265 84.6257L21.0064 84.9884L20.0496 85.2605L19.0928 85.5325L18.2718 85.5183L17.4509 85.504L16.7672 85.3066ZM18.4437 80.4911L18.7146 80.2511L20.1682 78.5699L21.6218 76.8886V76.6917V76.4948L21.463 76.3964L21.3043 76.2979L20.8819 76.7698L20.4594 77.2416L19.6234 78.1976L18.7873 79.1536L18.4349 79.5652L18.0824 79.9767L17.1479 79.0507L16.2133 78.1248H15.9774H15.7415V78.3753V78.6259L16.8198 79.6786L17.8981 80.7312H18.0354H18.1727L18.4437 80.4911ZM29.3418 75.3453L29.2756 75.1724L29.3119 71.0584L29.3481 66.9445L31.7071 66.9069L34.066 66.8694V71.1939V75.5183H31.737H29.4079L29.3418 75.3453ZM33.9292 71.1971V67.0131H31.7413H29.5533V71.1971V75.3811H31.7413H33.9292V71.1971ZM38.7483 69.2423L38.7838 62.9662H41.1086H43.4333L43.4689 69.2423L43.5045 75.5183H41.1086H38.7127L38.7483 69.2423ZM43.365 69.208V63.0348H41.177H38.989V69.208V75.3812H41.177H43.365V69.208ZM48.1512 70.8568V66.1952L48.4589 66.119L48.7666 66.0428L50.8178 66.0821L52.8691 66.1214L52.905 70.8198L52.941 75.5183H50.5461H48.1512L48.1512 70.8568ZM52.8007 70.7856V66.19H50.6127H48.4247V70.7856V75.3812H50.6127H52.8007V70.7856ZM57.5869 67.49V59.4616L59.9459 59.4992L62.3048 59.5367L62.3401 67.5275L62.3754 75.5183H59.9812H57.587L57.5869 67.49ZM62.2364 67.4931V59.6052H60.0484H57.8604V67.4931V75.381H60.0484H62.2364V67.4931ZM67.056 65.4011L67.091 55.284H69.4158H71.7405L71.7756 65.4011L71.8106 75.5182H69.4158H67.0209L67.056 65.4011ZM71.6722 65.3668V55.3525H69.4158H67.1594V65.2753V75.1981L67.2506 75.2896L67.3417 75.381H69.507H71.6722V65.3668ZM76.4919 62.3863L76.5268 49.248H78.8515H81.1763V62.3488V75.4496L78.8167 75.4871L76.457 75.5247L76.4919 62.3863ZM81.0395 62.3488V49.3851H78.8515H76.6635L76.6286 62.3865L76.5938 75.3878L78.8166 75.3501L81.0395 75.3124L81.0395 62.3488ZM85.9278 57.7189L85.9614 39.9196L85.9967 57.6537L86.0319 75.3878L88.2535 75.3501L90.4752 75.3124L90.5444 57.616L90.6135 39.9196L90.647 57.7189L90.6804 75.5182H88.2872H85.8941L85.9278 57.7189ZM29.3104 46.2643L29.3481 44.1722H31.1943H33.0404L33.0459 46.2644L33.0514 48.3566L33.0082 46.2987L32.9649 44.2408H31.2591H29.5533V46.2986V48.3563H29.413H29.2727L29.3104 46.2643ZM38.8864 46.6758L38.9206 46.23H51.57H64.2193L64.2372 46.7101L64.255 47.1902L64.1943 46.7444L64.1336 46.2986H51.57H39.0063L38.9293 46.7101L38.8523 47.1217L38.8864 46.6758ZM87.2339 39.886L88.3686 39.8397L89.4219 39.8864L90.4752 39.933L88.2873 39.9327L86.0993 39.9324L87.2339 39.886Z" fill="#566011"/>
<path d="M11.6486 76.0968L11.6389 75.9207L11.9699 75.2656L12.3008 74.6104L12.8492 73.9145L13.3975 73.2186L13.8515 72.9113L14.3055 72.6041L13.6824 73.2038L13.0593 73.8036L12.6186 74.4515L12.1778 75.0994L11.918 75.6861L11.6582 76.2728L11.6486 76.0968ZM29.5531 71.1971V67.0131H31.7411H33.9291V71.1971V75.3811H31.7411H29.5531V71.1971ZM38.9888 69.208V63.0348H41.1768H43.3648V69.208V75.3811H41.1768H38.9888V69.208ZM48.4246 70.7856V66.19H50.6126H52.8006V70.7856V75.3811H50.6126H48.4246V70.7856ZM57.8603 67.4932V59.6053H60.0483H62.2363V67.4932V75.3811H60.0483H57.8603V67.4932ZM67.2505 75.2897L67.1593 75.1982V65.2755V55.3527H69.4157H71.672V65.3669V75.3811H69.5068H67.3416L67.2505 75.2897ZM76.6285 62.3866L76.6634 49.3853H78.8514H81.0394V62.3489V75.3125L78.8165 75.3502L76.5936 75.3879L76.6285 62.3866ZM86.0307 57.6882V39.9883H88.2876H90.5445L90.5098 57.6505L90.4752 75.3125L88.253 75.3502L86.0308 75.3879L86.0307 57.6882ZM29.5531 46.2987V44.241H31.2625H32.9719V46.2987V48.3564H31.2625H29.5531V46.2987ZM38.9888 46.7102V46.2987H51.5698H64.1508V46.7102V47.1218H51.5698H38.9888V46.7102Z" fill="#A2B908"/>
<path d="M33.4277 92.7003L58.5665 92.6652L83.6148 92.7003L108.663 92.7353H58.4759L8.28881 92.7353L33.4277 92.7003ZM8.35718 92.4079L7.87856 92.323H58.4617H109.045L108.512 92.418L107.979 92.513L58.4076 92.5028L8.8358 92.4927L8.35718 92.4079ZM4.87006 91.7164L3.91281 91.1819L3.05219 90.398L2.19156 89.6142L2.26902 89.5365L2.34648 89.4588L2.55314 89.7548L2.7598 90.0507L3.56107 90.6693L4.36235 91.2878L5.29996 91.7704L6.23756 92.2531L6.03243 92.2521L5.82731 92.251L4.87006 91.7164ZM6.41055 91.9882L5.62629 91.7367L4.60611 91.0988L3.58592 90.461L2.7645 89.5617L1.94308 88.6624L1.4743 87.7491L1.00551 86.8358L0.921115 86.3557L0.836716 85.8755L1.03844 86.4242L1.24017 86.973L1.68762 87.8421L2.13507 88.7112L3.09232 89.695L4.04956 90.6788L4.93844 91.158L5.82731 91.6371L6.71618 91.9316L7.60506 92.226L7.39993 92.2328L7.19481 92.2397L6.41055 91.9882ZM110.316 91.9167L111.285 91.6062L111.957 91.221L112.629 90.8358L113.582 90.0018L114.535 89.1679L114.276 89.5108L114.018 89.8538L113.325 90.4025L112.631 90.9512L111.946 91.3523L111.261 91.7534L110.463 92.0039L109.664 92.2544L109.506 92.2409L109.347 92.2273L110.316 91.9167ZM111.893 91.6714L113.026 91.0884L114.059 90.0585L115.092 89.0286L115.668 87.9322L116.244 86.8358L116.248 86.9775L116.252 87.1191L115.748 88.0749L115.243 89.0307L114.141 90.1315L113.039 91.2323L112.062 91.7434L111.084 92.2544H110.922H110.76L111.893 91.6714ZM0.613528 85.5728L0.494073 85.3268L0.457267 54.4951L0.420462 23.6635L58.4391 23.6979L116.458 23.7324L116.458 54.118L116.459 84.5037L116.424 54.1523L116.389 23.801H58.4756H0.562447L0.568453 53.7408L0.574458 83.6806L0.693351 84.7095L0.812244 85.7383L0.772612 85.7786L0.732981 85.8188L0.613528 85.5728ZM0.088376 84.2636L0 83.1319L0.0441644 45.3384L0.0883287 7.54497L0.403992 6.6064L0.719652 5.66782L0.791853 5.74025L0.864054 5.81268L0.542311 6.74742L0.220569 7.68215V46.5388V85.3954H0.198659H0.17675L0.088376 84.2636ZM116.867 46.3673L116.867 8.64242L116.902 27.5502L116.937 46.458L116.902 65.2751L116.867 84.0922L116.867 46.3673ZM62.4759 82.9604L101.073 82.9256V57.6845V32.4434H59.9802H18.8869V51.8545V71.2657L18.7843 71.2657H18.6818L18.7169 51.786L18.752 32.3062H59.9811H101.21V57.6848V83.0633L62.5442 83.0292L23.8783 82.9952L62.4759 82.9604ZM116.683 7.97131L116.663 7.57455L116.375 6.59949L116.087 5.62443L115.605 4.7566L115.124 3.88876L114.787 3.48767L114.451 3.08658L114.565 3.09417L114.68 3.10176L114.975 3.47757L115.27 3.85338L115.751 4.73891L116.231 5.62443L116.526 6.60838L116.82 7.59233L116.762 7.98019L116.704 8.36806L116.683 7.97131ZM1.39411 4.45839L1.55712 4.11544L2.03502 3.45516L2.51292 2.79488L3.41799 2.06531L4.32306 1.33573L5.14356 0.924956L5.96406 0.514183L6.44268 0.420245L6.92131 0.326308L6.71618 0.469711L6.51106 0.613115L6.28168 0.615241L6.05231 0.617366L5.1575 1.08524L4.2627 1.55312L3.45977 2.18593L2.65685 2.81873L2.12246 3.57466L1.58807 4.33058L1.40959 4.56599L1.23111 4.8014L1.39411 4.45839ZM7.26318 0.161448L7.60506 0H58.4759H109.347L109.689 0.161448L110.031 0.322896L109.278 0.230039L108.526 0.137182H58.4759H8.42555L7.67343 0.230039L6.92131 0.322896L7.26318 0.161448Z" fill="#1A0260"/>
<path d="M10.5451 16.4078L9.92976 16.1847L9.30381 15.7499L8.67786 15.3152L8.30368 14.823L7.9295 14.3309L7.64248 13.6816L7.35547 13.0323V11.8662V10.7002L7.64248 10.0509L7.9295 9.40154L8.29677 8.9185L8.66403 8.43547L9.2969 7.9773L9.92976 7.51913L10.6392 7.29201L11.3487 7.06488H12.077H12.8054L13.5326 7.33151L14.2597 7.59815L14.7614 7.97066L15.263 8.34317L15.6487 8.76718L16.0343 9.19119L16.3781 9.94569L16.722 10.7002L16.7199 11.8662L16.7178 13.0323L16.4156 13.7182L16.1134 14.4041L15.699 14.8842L15.2845 15.3643L14.7724 15.745L14.2602 16.1257L13.4753 16.3967L12.6903 16.6676L11.9254 16.6492L11.1605 16.6309L10.5451 16.4078Z" fill="#8456FF"/>
</svg>
