<svg width="100" height="90" viewBox="0 0 100 90" fill="none" xmlns="http://www.w3.org/2000/svg">
<path d="M0 44.6862V0H49.6994H99.3988V44.6862V89.3723H49.6994H0V44.6862ZM70.4663 86.5037C70.7168 86.2076 70.7062 86.0483 70.2455 83.1831C70.0867 82.1959 69.9213 81.054 69.8779 80.6455L69.7989 79.9028L70.5434 79.6864C72.6603 79.0709 74.014 78.013 74.8146 76.3484C75.5224 74.8769 75.6621 73.9803 75.6011 71.2998C75.5551 69.2747 75.5163 68.9279 75.2654 68.3017C74.9351 67.4771 73.8692 66.2374 73.1135 65.7989C71.2817 64.7358 67.568 64.2935 61.4064 64.4045C57.7282 64.4707 43.891 65.0247 42.2723 65.1705C41.8638 65.2073 40.5827 65.3207 39.4253 65.4225C35.964 65.7271 34.5973 65.9568 33.3599 66.4419C31.1432 67.3108 30.1589 68.3248 29.4853 70.4333C28.6011 73.2008 28.5894 76.4002 29.4573 78.1014C29.6957 78.5686 30.8183 79.6976 31.3019 79.9564C31.982 80.3204 33.0776 80.5994 34.5287 80.7782C37.4425 81.1371 40.8813 81.1375 64.1168 80.7814L64.9178 80.7691L65.3591 81.5737C66.3504 83.3811 68.0834 85.6896 68.9921 86.4131C69.6812 86.9618 70.0591 86.9852 70.4663 86.5037ZM26.3566 65.9121C27.4838 64.8577 29.3041 62.2394 30.1156 60.5052L30.504 59.6753L31.1273 59.6111C32.8061 59.4384 41.4937 59.169 47.3475 59.1081C52.3685 59.0559 54.5838 58.9822 56.7873 58.794C62.0572 58.3438 63.3411 58.0984 65.0241 57.2194C66.9046 56.2373 67.3405 55.0215 67.3362 50.7717C67.3334 47.9654 67.2293 47.0527 66.8073 46.131C66.2573 44.9296 65.3378 44.2482 63.7543 43.8685C62.8884 43.6608 57.3116 43.3941 56.0743 43.5012C55.5637 43.5454 49.3528 43.6332 42.2723 43.6963C28.8411 43.816 26.5249 43.8981 25.3697 44.2956C23.2244 45.0337 22.0521 46.2425 21.556 48.2282C21.2658 49.3894 20.9719 53.554 21.0853 54.896C21.1666 55.8581 21.5191 56.9607 21.9796 57.6939C22.5687 58.6316 23.8014 59.4482 25.0354 59.7181C25.4362 59.8058 25.4369 59.8146 25.1837 61.459C24.9519 62.9644 24.6331 65.4523 24.6331 65.7558C24.6331 66.078 25.0787 66.4722 25.443 66.4722C25.6455 66.4722 25.9712 66.2726 26.3566 65.9121ZM37.973 53.6327C38.1955 53.6052 38.5297 53.6057 38.7157 53.6341C38.9018 53.6624 38.7194 53.6849 38.3112 53.6842C37.9027 53.6838 37.7506 53.6603 37.973 53.6327ZM61.2766 41.1299C63.3541 40.8334 63.9607 40.6863 64.745 40.2889C66.6325 39.3324 67.5002 36.7357 67.2093 32.9139C67.1426 32.0369 67.0008 30.9429 66.8943 30.4829C66.3663 28.2027 64.8544 26.7653 62.2958 26.111C60.2834 25.5963 59.2733 25.5605 47.3475 25.582C32.2914 25.6092 26.5691 25.8398 24.6025 26.4988C22.9078 27.0665 22.08 27.7504 21.4368 29.1139C20.8507 30.3566 20.7625 31.2419 20.9069 34.4329C21.0361 37.2852 21.1282 37.8142 21.6886 38.9176C22.217 39.9582 23.7624 41.0834 25.0106 41.3363C25.3263 41.4002 32.7998 41.4348 42.5199 41.4172C58.9287 41.3875 59.5367 41.3781 61.2766 41.1299ZM41.9629 31.6188C41.9629 31.376 41.9041 31.0557 41.8323 30.907C41.7061 30.6458 41.7082 30.6448 41.8942 30.8769C42.068 31.0939 42.1747 32.0602 42.0248 32.0602C41.9907 32.0602 41.9629 31.8615 41.9629 31.6188ZM67.9629 25.2492C68.462 24.9821 68.4697 24.7674 68.0816 21.9735C67.8772 20.5022 67.71 19.0857 67.71 18.8256V18.3527L68.4837 18.139C69.6933 17.8047 71.1274 16.9886 71.7545 16.2777C72.8683 15.0148 73.4901 13.1681 73.6093 10.7692C73.7281 8.37762 73.3199 6.64271 72.3346 5.35093C71.9121 4.79698 70.9281 4.16383 69.8778 3.77015C68.0349 3.07939 62.8233 2.63146 58.3024 2.77527C52.5596 2.95794 42.1973 3.33983 41.1583 3.40709C38.9532 3.54985 34.2098 3.97148 33.4218 4.09477C30.8737 4.49346 28.9207 5.59874 28.0058 7.15994C26.8396 9.14979 26.3093 13.2365 26.9511 15.2874C27.8289 18.0927 29.4665 18.8702 35.4023 19.3C36.9444 19.4117 48.431 19.3903 58.6789 19.2567L62.707 19.2042L63.7199 20.8974C64.7645 22.6436 66.0242 24.2697 66.8776 24.9735C67.3977 25.4024 67.5869 25.4504 67.9629 25.2492Z" fill="#C5B0FF"/>
<path d="M68.8746 86.1434C67.8713 85.2348 66.5162 83.402 65.4679 81.5359L64.9251 80.5696L63.9348 80.6371C60.8119 80.8498 41.2541 81.0849 38.002 80.9488C35.5841 80.8477 33.0892 80.5114 32.0409 80.1455C30.6173 79.6486 29.4847 78.3775 29.1325 76.8816C28.9397 76.0625 28.914 73.3863 29.0889 72.3437C29.1567 71.9397 29.3935 71.0613 29.615 70.3917C30.1441 68.7926 30.9084 67.823 32.2137 67.0946C34.1865 65.9937 36.6923 65.5945 43.8817 65.2359C45.3795 65.1612 47.6355 65.0448 48.895 64.9773C58.4456 64.465 65.1428 64.3588 68.0816 64.6729C69.0007 64.7711 70.4129 65.0188 71.2198 65.2233C72.8373 65.6332 73.5748 66.0689 74.4417 67.1269C75.8303 68.8215 76.0472 72.8636 74.91 75.8563C74.4991 76.9378 73.6974 77.9358 72.708 78.5975C72.213 78.9286 71.6241 79.2391 71.3993 79.2877C71.1745 79.3362 70.6916 79.4869 70.3262 79.6227L69.6618 79.8695L69.7276 80.3813C69.7637 80.6628 69.9377 81.8957 70.1142 83.1212C70.5522 86.1626 70.5433 86.0616 70.4001 86.3396C70.0823 86.9568 69.7215 86.9104 68.8746 86.1434ZM34.7326 74.8905C35.121 74.5506 35.8552 74.0479 36.3641 73.7734C37.2322 73.3051 37.2998 73.2879 37.4561 73.4939C37.5477 73.6147 37.6245 73.7464 37.6267 73.7865C37.6294 73.8266 37.7768 73.9261 37.9554 74.0075C38.3943 74.2075 39.3188 73.9348 40.6589 73.2102C41.2172 72.9084 41.7077 72.6614 41.749 72.6614C41.7903 72.6614 41.8632 72.9219 41.9109 73.2404C42.0082 73.8892 42.4398 74.3944 42.8967 74.3944C43.0686 74.3944 43.5457 74.0579 44.1427 73.5157C45.0812 72.6632 45.1157 72.6445 45.3005 72.8845C46.1571 73.997 46.1857 74.023 46.5543 74.023C46.7625 74.023 47.2099 73.8432 47.5703 73.6147C47.9244 73.3901 48.4033 73.1293 48.6345 73.0351C49.0348 72.8721 49.0682 72.8796 49.3371 73.1922C49.7422 73.6632 50.3834 74.0225 50.8136 74.0196C51.0179 74.0182 51.5192 73.8786 51.9277 73.7093C53.0227 73.2556 53.442 73.2181 54.0939 73.5157C54.8905 73.8794 55.7528 73.8608 56.142 73.4716C56.3091 73.3045 56.4458 73.0235 56.4458 72.8471C56.4458 72.4159 55.9304 71.9187 55.4832 71.9187C55.288 71.9187 54.8629 71.8283 54.5385 71.7178C53.737 71.4446 52.2684 71.5327 51.4339 71.9039L50.8163 72.1786L50.2777 71.5535C49.6064 70.7743 49.2718 70.7466 47.9582 71.3617C47.4492 71.6 46.9878 71.7949 46.9327 71.7949C46.8777 71.7949 46.6499 71.5406 46.4267 71.2297C45.9902 70.6219 45.5522 70.3775 45.136 70.5096C44.9929 70.555 44.5849 70.8071 44.2293 71.0698C43.5223 71.592 43.4227 71.6348 43.5232 71.3729C43.6386 71.0722 43.2377 70.4692 42.8766 70.4002C42.4389 70.3165 41.5402 70.6395 40.1757 71.3708C39.5027 71.7315 39.0509 71.909 39.0225 71.8237C38.7905 71.1277 38.0838 70.8666 37.4021 71.225C37.2214 71.32 36.463 71.696 35.7167 72.0605C34.6824 72.5657 34.1747 72.9038 33.5814 73.4823C33.1281 73.9243 32.803 74.3468 32.803 74.494C32.803 74.8672 33.3923 75.5085 33.7352 75.5085C33.9078 75.5085 34.3141 75.2567 34.7326 74.8905ZM60.7074 73.7255C61.3519 73.2434 62.8388 72.5376 63.2099 72.5376C63.2844 72.5376 63.3781 72.7395 63.4182 72.9862C63.5818 73.9947 64.3898 74.2156 65.1174 73.4508C65.6005 72.9431 66.6162 72.4168 67.1167 72.415C67.301 72.4146 67.6593 72.5547 67.9131 72.727C68.2146 72.9315 68.5276 73.0345 68.816 73.0241C69.0588 73.0153 69.4407 73.0823 69.6646 73.1731C70.2671 73.4174 70.7286 73.1356 70.7821 72.4907C70.8163 72.0771 70.7547 71.9496 70.2869 71.4659C69.789 70.9511 69.7167 70.9172 69.2246 70.9678C68.9342 70.9977 68.6673 70.9747 68.6314 70.9168C68.5956 70.8588 68.3407 70.7506 68.0651 70.6764C67.477 70.518 66.0515 70.6959 65.4609 71.0013C65.1079 71.1838 65.0794 71.1783 64.7979 70.8745C64.4441 70.4928 63.858 70.4579 62.7267 70.7511C61.7021 71.0166 59.9609 71.9146 59.3238 72.5062C58.7675 73.0228 58.6361 73.5243 58.9525 73.9232C59.3472 74.4209 59.8539 74.3638 60.7074 73.7255ZM66.3089 24.2422C65.3011 23.1898 63.9601 21.2758 63.2398 19.8619L62.8207 19.0391L62.0161 19.1107C60.4622 19.2489 36.6251 19.3344 35.093 19.2073C33.2491 19.0543 30.6942 18.6448 29.9613 18.3848C28.3734 17.8216 27.3873 16.6984 26.9867 14.9965C26.7517 13.9983 26.8023 11.6612 27.0906 10.1955C27.7753 6.71531 29.1698 5.24031 32.5564 4.41437C34.4905 3.94267 36.9996 3.72943 44.4955 3.39968C46.745 3.30072 49.8388 3.15613 51.3707 3.07836C55.1084 2.8886 64.7983 2.87927 65.8535 3.06442C66.296 3.14206 67.1594 3.29165 67.7721 3.39684C69.479 3.68987 70.1304 3.89912 71.0324 4.4441C72.4962 5.32856 73.1896 6.57831 73.4266 8.75973C73.567 10.0521 73.4071 12.2745 73.0816 13.5543C72.8172 14.5936 72.0523 15.8266 71.1851 16.6114C70.4763 17.2529 70.0766 17.4597 68.3601 18.0736L67.5864 18.3502L67.5906 19.0469C67.5928 19.4301 67.6777 20.1892 67.7789 20.7338C67.9807 21.8199 68.3227 24.1967 68.3265 24.5402C68.3297 24.8436 67.8879 25.2519 67.5553 25.2525C67.3679 25.2528 66.9604 24.9224 66.3089 24.2422ZM35.9651 13.1886C36.3177 12.836 36.3437 12.6075 36.0773 12.2009C35.8061 11.787 35.2178 11.5791 34.3096 11.5762C33.4441 11.5735 33.1744 11.7632 33.1744 12.3745C33.1744 12.9356 33.4948 13.2446 34.0788 13.2468C34.3643 13.2478 34.6814 13.3027 34.7836 13.3687C35.1184 13.5851 35.6496 13.5041 35.9651 13.1886ZM49.8856 12.9307C50.2886 12.7282 50.5657 12.4115 50.7713 11.918L50.9374 11.5196L51.477 11.7633C52.1642 12.0737 52.2745 12.0695 52.6837 11.7176L53.0202 11.4281L53.5733 11.7372C53.9738 11.961 54.3752 12.0623 55.0285 12.1042C55.8714 12.1583 55.9517 12.1411 56.2502 11.8426C56.5092 11.5836 56.5696 11.405 56.5696 10.8986C56.5696 10.5551 56.5905 10.2741 56.6159 10.2741C57.1697 10.2741 59.2378 11.5473 60.0627 12.3962C60.4633 12.8084 60.7471 12.9973 60.9658 12.9973C61.3768 12.9973 61.8923 12.4809 61.8923 12.0693C61.8923 11.3153 59.5958 9.51889 57.7186 8.80445C55.9621 8.13593 55.1873 8.32591 55.0162 9.46709C54.8937 10.2837 54.823 10.3353 54.2363 10.036C53.9557 9.89284 53.6317 9.62327 53.5162 9.43692C53.1143 8.78866 52.693 8.41729 52.3594 8.41729C51.9569 8.41729 51.5495 8.84061 51.4361 9.37662C51.3388 9.8367 51.3113 9.84493 50.7109 9.59405C49.9294 9.26751 49.3618 9.69265 49.1964 10.7284C49.0637 11.5601 48.586 11.5582 46.9983 10.72C46.2908 10.3464 46.0289 10.2741 45.3848 10.2741C44.9249 10.2741 44.3233 10.3769 43.888 10.5299C42.8841 10.8827 42.0551 10.963 41.4562 10.7653C40.8387 10.5615 40.3546 10.7074 40.1362 11.1629C39.8979 11.6602 40.1221 12.097 40.7609 12.3796C41.6859 12.7887 42.1681 12.8012 43.5503 12.4518C45.3149 12.0057 45.8287 12.0241 46.6656 12.5632C47.0347 12.8011 47.5342 13.0284 47.7755 13.0685C48.0167 13.1086 48.2699 13.1587 48.3379 13.1798C48.5651 13.2504 49.5718 13.0883 49.8856 12.9307Z" fill="#5B23FF"/>
<path d="M25.7473 53.9343C25.5107 53.8153 25.4285 53.6648 25.3982 53.2953C25.3603 52.8355 25.406 52.7662 26.3347 51.8746C27.774 50.4927 29.5784 49.5185 30.783 49.4728C31.4386 49.448 31.6035 49.6156 31.8889 50.5968C31.9929 50.9542 32.1493 51.2467 32.2365 51.2467C32.5549 51.2467 33.2464 50.6679 33.6453 50.0674C33.8702 49.7288 34.1862 49.4008 34.3474 49.3384C34.7554 49.1807 35.2326 49.5144 35.3444 50.0356C35.4697 50.6195 35.4877 50.6312 35.9583 50.4346C36.9228 50.0316 37.558 50.3713 37.7294 51.3817C37.8216 51.9253 37.8242 51.9276 38.3818 51.9642C38.8564 51.9953 39.0256 51.9375 39.493 51.5844C40.6624 50.7012 41.7271 50.5532 43.6414 51.0078C44.6532 51.2481 44.7574 51.252 45.3146 51.0697C45.6414 50.9628 46.0151 50.8753 46.1449 50.8753C46.7081 50.8753 47.0024 51.7594 46.5695 52.1512C45.9105 52.7476 44.7771 52.8734 43.1302 52.5328C41.7871 52.255 41.2012 52.3386 40.1819 52.9534C38.6074 53.903 36.9786 53.7682 36.4548 52.6447C36.3343 52.3864 36.2235 52.16 36.2085 52.1415C36.1935 52.123 35.8643 52.2291 35.4769 52.3773L34.7727 52.6468L34.4169 52.3838L34.0611 52.1207L33.3107 52.5077C32.7107 52.8172 32.3997 52.897 31.7584 52.9062C30.7719 52.9205 30.5644 52.753 30.48 51.8749C30.4107 51.1531 30.322 51.1185 29.5488 51.5117C28.6706 51.9582 27.6991 52.6756 26.9894 53.4016C26.2593 54.1485 26.2126 54.1685 25.7473 53.9343ZM51.2042 53.0009C50.558 52.2868 51.443 51.3705 52.7791 51.3705C53.3434 51.3705 53.4942 51.4179 53.6537 51.6456C54.0574 52.2219 53.7142 52.888 53.015 52.8857C52.8255 52.8852 52.52 52.9616 52.3362 53.0559C51.8769 53.2914 51.4483 53.2705 51.2042 53.0009ZM25.1374 35.9426C24.9963 35.7632 24.8809 35.5593 24.8809 35.4893C24.8809 35.1666 25.5684 34.246 26.1837 33.7447C27.4367 32.724 28.6764 32.3077 30.463 32.3077C31.433 32.3077 31.4572 32.3152 31.6638 32.6783C31.9115 33.1135 31.9769 33.1258 32.4126 32.819C33.4873 32.0621 34.5106 31.8486 35.2445 32.2281C35.6567 32.4413 36.0884 32.924 36.2104 33.3082C36.2518 33.4387 36.3341 33.5455 36.3932 33.5455C36.4523 33.5455 36.9495 33.224 37.4982 32.831C39.0471 31.7215 40.8499 30.6675 41.1987 30.6675C41.6363 30.6675 41.9631 31.1142 41.9631 31.7123V32.2036L42.3654 32.1009C42.5867 32.0444 43.2772 31.9982 43.8999 31.9982C44.8581 31.9982 45.0742 32.0362 45.3052 32.2455C45.5306 32.4496 45.5675 32.5869 45.5173 33.0328C45.4699 33.4526 45.5085 33.6249 45.6903 33.8068C45.9812 34.0976 46.0371 34.0971 47.1001 33.7931C47.5763 33.6569 48.0914 33.5455 48.2448 33.5455C48.8426 33.5455 49.2258 34.3342 48.8641 34.8201C48.6639 35.0891 46.9429 35.5261 46.0839 35.5261C45.717 35.5261 45.2591 35.4445 45.0663 35.3448C44.5932 35.1002 44.0705 34.4584 43.9814 34.0127C43.9413 33.8122 43.8249 33.616 43.7229 33.5768C43.6208 33.5376 43.0405 33.5717 42.4334 33.6526C41.1885 33.8183 40.791 33.7193 40.5125 33.1742C40.4255 33.004 40.298 32.8788 40.2293 32.896C40.0351 32.9446 37.7593 34.5205 37.1231 35.0469C36.8099 35.3061 36.3951 35.5784 36.2015 35.652C35.7046 35.8409 35.3007 35.5093 35.0455 34.7031C34.9355 34.3556 34.7535 33.939 34.641 33.7774L34.4365 33.4836L33.8983 33.7651C33.6023 33.9199 32.9809 34.3795 32.5174 34.7863C31.7048 35.4996 31.4443 35.6144 31.013 35.4489C30.8059 35.3695 30.3288 34.546 30.3255 34.2622C30.3203 33.8308 30.1364 33.7638 29.3842 33.9192C28.3225 34.1386 27.6028 34.5509 26.6923 35.4613C26.2412 35.9125 25.7766 36.2688 25.6394 36.2688C25.5044 36.2688 25.2785 36.122 25.1374 35.9426Z" fill="#1A0260"/>
</svg>
