<svg width="79" height="89" viewBox="0 0 79 89" fill="none" xmlns="http://www.w3.org/2000/svg">
<path d="M42.1234 84.5515L41.7705 84.1321L38.8713 84.1111L35.9722 84.09L34.7938 83.9374L33.6155 83.7847L31.8769 83.4567L30.1382 83.1287L28.5383 82.6642L26.9383 82.1998L25.3674 81.6127L23.7965 81.0255L21.9633 80.1209L20.1301 79.2163L18.3826 78.1018L16.635 76.9873L15.2534 75.9057L13.8718 74.8241L12.3246 73.3422L10.7775 71.8602L9.55042 70.3963L8.32335 68.9325L7.74596 68.1469L7.16856 67.3614L6.2809 65.9866L5.39324 64.6119L4.43018 62.7135L3.46713 60.8151L2.87451 59.3094L2.28189 57.8038L1.74807 56.064L1.21426 54.3242L0.940961 52.9872L0.667662 51.6503L0.411588 49.9482L0.155517 48.2462L0.0777576 45.6931L0 43.1401L0.148476 41.2865L0.296953 39.4329L0.683971 37.2933L1.07099 35.1536L1.59069 33.3207L2.11038 31.4877L2.58864 30.2523L3.06691 29.017L3.63085 27.7622L4.1948 26.5074L4.94185 25.1352L5.6889 23.7631L6.63512 22.3229L7.58135 20.8827L8.67624 19.508L9.77113 18.1333L11.2192 16.6461L12.6674 15.1589L13.8457 14.1389L15.024 13.1188L15.9545 12.4184L16.8849 11.7179L18.2042 10.8669L19.5234 10.0159L19.669 9.4435L19.8146 8.87114L19.8669 8.92348L19.9193 8.97581L19.7987 9.49584L19.6781 10.0159L19.675 13.9764L19.6719 17.9369H19.632H19.5921L17.8397 17.2122L16.0872 16.4875L15.9173 16.3465L15.7474 16.2055L15.5607 16.2772L15.3739 16.3489L15.2145 17.0609L15.0552 17.773L15.1466 18.5043L15.238 19.2357L15.8187 20.429L16.3995 21.6223L17.4815 22.6927L18.5635 23.7631L19.1142 24.0904L19.6648 24.4177L19.6684 32.7086L19.6719 40.9996L18.6003 41.4807L17.5288 41.9618L15.6872 42.8782L13.8457 43.7947L13.8035 44.1627L13.7613 44.5307L14.1006 44.9755L14.4399 45.4204L14.9269 45.5117L15.4138 45.6031L16.0454 45.9917L16.6771 46.3803L17.4661 46.6259L18.2551 46.8715H18.7016H19.1482V46.9731V47.0748L17.8198 48.1842L16.4915 49.2936L15.1686 50.4582L13.8457 51.6228L13.801 51.6594L13.7563 51.696L13.8394 51.9577L13.9225 52.2194L14.5431 52.6177L15.1637 53.0159L16.0103 53.2335L16.857 53.451L17.9699 53.3726L19.0827 53.2942L19.3702 53.2117L19.6576 53.1292L19.6975 59.2633L19.7374 65.3975L20.0384 66.0521L20.3395 66.7068L20.824 67.2085L21.3085 67.7103L21.7013 67.9163L22.094 68.1223L22.7487 68.2967L23.4033 68.4712L26.1106 68.4725L28.8179 68.4739L28.8986 69.2267L28.9793 69.9795L29.1094 70.8305L29.2395 71.6816L29.5784 72.729L29.9172 73.7764L30.5142 74.9435L31.1112 76.1107L31.8489 77.1038L32.5866 78.0969L33.3726 78.8502L34.1586 79.6034L34.9999 80.2579L35.8412 80.9123L37.1505 81.5577L38.4598 82.2031L39.6381 82.5548L40.8164 82.9065L41.3099 83.4475L41.8034 83.9886L42.2047 84.4796L42.6059 84.9705H42.5411H42.4763L42.1234 84.5515ZM18.2451 58.88L18.6899 58.5815L18.866 58.0289L19.0421 57.4764L18.866 56.9239L18.6899 56.3714L18.2451 56.0729L17.8002 55.7744H17.3152H16.8302L16.3873 56.0729L15.9443 56.3714L15.7807 56.6948L15.6171 57.0182L15.6151 57.4502L15.6132 57.8822L15.8069 58.2569L16.0007 58.6316L16.3483 58.905L16.6959 59.1785H17.248H17.8002L18.2451 58.88ZM16.5892 58.2025L16.2678 57.8811V57.4764V57.0717L16.5892 56.7504L16.9105 56.429H17.2524H17.5943L17.8296 56.5549L18.0649 56.6809L18.2296 57.0786L18.3944 57.4764L18.2387 57.8522L18.0831 58.228L17.7585 58.3759L17.4338 58.5238H17.1722H16.9105L16.5892 58.2025ZM7.22872 40.135L7.38649 39.9449L7.34295 39.7236L7.2994 39.5022L7.08126 39.3648L6.86311 39.2275L6.65575 39.3996L6.44839 39.5716V39.811V40.0503L6.67751 40.1837L6.90663 40.3172L6.98879 40.3212L7.07095 40.3252L7.22872 40.135ZM62.6276 76.8908L62.3434 75.7406L61.8248 73.8094L61.3063 71.8783L60.7741 69.8816L60.2418 67.885L59.7921 66.2157L59.3424 64.5464L58.8753 62.8116L58.4081 61.0769L57.8324 58.9821L57.2568 56.8873L56.7201 54.9234L56.1835 52.9595L55.9338 50.0791L55.6841 47.1987L55.418 42.6818L55.152 38.1649L55.0168 36.3974L54.8816 34.6299L54.7619 33.1242L54.6423 31.6186L54.5672 30.1129L54.492 28.6073L54.3484 26.5779L54.2048 24.5486L54.0861 24.2362L53.9674 23.9238L53.3163 24.0009L52.6652 24.078V16.8416V9.60511L52.4694 8.94584L52.2736 8.28657L51.7219 7.65974L51.1701 7.03291L50.3793 6.65878L49.5884 6.28464L36.2995 6.25759L23.0105 6.23054L26.0218 6.15182L29.0331 6.07312L30.4733 5.72529L31.9135 5.37746L33.0263 5.18591L34.1392 4.99436L36.0376 4.83659L37.936 4.67883L40.2272 4.75823L42.5184 4.83763L43.9586 5.03032L45.3988 5.22301L47.0103 5.5638L48.6218 5.90458L49.6943 6.21812L50.7668 6.53166L51.2905 6.71511L51.8142 6.89855L51.856 7.18066L51.8978 7.46277L52.0524 7.48271L52.2069 7.50266L52.3379 7.5215L52.4688 7.54034L52.7604 7.70094L53.0519 7.86154L53.3022 7.70522L53.5525 7.54891L54.2544 7.84971L54.9564 8.15051L56.3476 8.84702L57.7389 9.54353L58.9662 10.2848L60.1934 11.0261L61.4961 11.9531L62.7988 12.88L64.1146 14.0197L65.4304 15.1594L66.8222 16.5809L68.2139 18.0023L69.1439 19.1539L70.0738 20.3054L70.9147 21.5115L71.7555 22.7175L72.3599 23.7398L72.9643 24.762L73.8258 26.4496L74.6874 28.1372L75.0419 27.875L75.3965 27.6129L75.736 27.742L76.0755 27.871L76.158 28.0045L76.2404 28.138L75.8925 27.9575L75.5446 27.777L75.3318 27.852L75.1189 27.927L74.8898 28.1238L74.6607 28.3206V28.6276V28.9346L74.9226 29.1965L75.1844 29.4583L75.479 29.4735L75.7736 29.4887L75.539 29.5496L75.3045 29.6105L75.3917 29.8945L75.4789 30.1784L75.8584 31.2258L76.2378 32.2732L76.769 34.2889L77.3001 36.3046L77.6272 38.4785L77.9542 40.6525L78.0247 43.5328L78.0952 46.4132L77.8797 48.3116L77.6641 50.21L77.4002 51.7157L77.1363 53.2213L76.6802 54.9234L76.2241 56.6254L75.6881 58.1311L75.152 59.6367L74.1455 61.7315L73.1391 63.8263L72.2074 65.3605L71.2758 66.8946L70.3279 68.1754L69.3801 69.4561L68.2404 70.7654L67.1007 72.0747L65.8728 73.2543L64.6449 74.4339L63.6302 75.2685L62.6155 76.1031V76.2303V76.3574L62.8193 77.1436L63.023 77.9298L62.9674 77.9854L62.9118 78.041L62.6276 76.8908ZM67.3219 18.9271L67.478 18.7391L67.3334 18.4689L67.1887 18.1987H67.0731H66.9575L66.7504 18.2782L66.5433 18.3576V18.6491V18.9406L66.6306 19.0279L66.7179 19.1152H66.9419H67.1659L67.3219 18.9271ZM24.3198 66.9482L24.0579 66.8914L23.4935 66.687L22.9291 66.4826L22.9824 66.4292L23.0358 66.3759L23.5468 66.6068L24.0579 66.8376L30.3957 66.8774L36.7336 66.9171L36.8538 66.7464L36.974 66.5758L36.9204 66.7722L36.8669 66.9686L30.7242 66.9867L24.5816 67.0049L24.3198 66.9482ZM21.1763 37.3793L21.1763 10.9323L21.2103 24.199L21.2442 37.4656L21.2103 50.646L21.1763 63.8263L21.1763 37.3793ZM26.6413 45.1909L26.4752 45.0855L26.5104 41.9525L26.5455 38.8195L29.6059 38.7843L32.6663 38.7491L32.8463 38.8985L33.0263 39.0479V42.017V44.9861L32.8692 45.1432L32.7121 45.3003L29.7598 45.2985L26.8074 45.2967L26.6413 45.1909ZM32.8299 42.0272V38.9504L29.7204 38.9153L26.611 38.8802V41.9375V44.9948L26.7006 45.0845L26.7902 45.1741L29.8101 45.139L32.8299 45.1039V42.0272ZM28.1103 41.9947L28.1166 40.3906L29.6552 40.3841L31.1938 40.3776L29.6919 40.4209L28.1901 40.4643L28.147 42.0315L28.104 43.5987L28.1103 41.9947ZM42.1475 45.213L42.0602 45.1258V44.5005V43.8752L41.5355 43.8221L41.0108 43.769L41.5683 43.7818L42.1257 43.7946L42.1911 44.4493L42.2566 45.1039H43.2592H44.2618L44.1102 45.2001L43.9586 45.2963L43.0967 45.2981L42.2348 45.2999L42.1475 45.213ZM39.4038 39.0652L39.3108 38.9722V38.3472V37.7221L39.4089 37.6611L39.5071 37.6001L39.4623 38.308L39.4174 39.0159H40.1428H40.8681L40.9202 38.3285L40.9723 37.6412L40.9598 38.3613L40.9473 39.0813L40.222 39.1198L39.4967 39.1582L39.4038 39.0652ZM26.5059 36.3132L26.48 34.8543L26.6871 34.7748L26.8942 34.6953H28.4469H29.9996L30.0604 34.7935L30.1213 34.8917H28.3989H26.6764L26.6041 36.3319L26.5318 37.7721L26.5059 36.3132ZM48.2994 34.7608L48.3717 32.9278L48.4727 32.3387L48.5737 31.7495L48.5804 32.0768L48.587 32.4041L48.4071 34.4989L48.2271 36.5938L48.2994 34.7608ZM36.0366 36.1736L36.5613 36.1205V35.5549V34.9892L36.7426 34.8388L36.9239 34.6883L38.934 34.7246L40.944 34.7608L40.9902 35.0227L41.0363 35.2845L40.86 35.0517L40.6836 34.8189L38.7207 34.8553L36.7577 34.8917L36.6922 35.5464L36.6268 36.201L36.0694 36.2138L35.512 36.2267L36.0366 36.1736ZM26.507 30.6694L26.48 27.4944L26.5782 27.4942L26.6764 27.494L26.6427 29.5563L26.6089 31.6186L26.5714 32.7314L26.5339 33.8443L26.507 30.6694ZM32.8299 30.6365V27.5193L32.9281 27.58L33.0263 27.6408V30.6366V33.6325L32.9281 33.6931L32.8299 33.7537V30.6365ZM28.108 32.167L28.0421 31.9953L28.0794 30.4977L28.1166 29.0001L29.6877 28.994L31.2588 28.988L29.7205 29.0308L28.1821 29.0736V30.6366V32.1997L29.7859 32.2409L31.3898 32.2821L29.7818 32.3104L28.1739 32.3387L28.108 32.167ZM40.2272 30.7283V30.0344L40.3843 29.8773L40.5415 29.7202H41.0783H41.615L41.7722 29.8773L41.9293 30.0344V30.7283V31.4222L41.8311 31.4224L41.7329 31.4227V30.6696V29.9165H41.0783H40.4236V30.6696V31.4227L40.3254 31.4224L40.2272 31.4222V30.7283ZM50.0467 27.0667V26.9795L50.6418 26.3094L51.2369 25.6393L51.1982 18.0951L51.1595 10.551L51.2422 10.938L51.3249 11.3251L51.3404 18.4853L51.3559 25.6455L50.8177 26.2754L50.2795 26.9053L50.1631 27.0296L50.0467 27.154V27.0667ZM27.4888 9.75491L27.2698 9.29573H27.3298H27.3898L27.5929 9.68851L27.796 10.0813H36.2153H44.6347L44.9808 9.45939L45.327 8.83749L45.3279 8.96842L45.3288 9.09934L45.0322 9.62305L44.7356 10.1467L36.2216 10.1804L27.7075 10.2141L27.4888 9.75491ZM14.7378 2.63178L14.3206 2.37068L14.1814 2.11043L14.0421 1.85018V1.37024V0.890295L14.4872 0.445148L14.9324 0H15.4591H15.9858L16.3887 0.402849L16.7915 0.805697V1.42576V2.04582L16.4192 2.40255L16.0468 2.75927L15.6009 2.82608L15.155 2.89289L14.7378 2.63178Z" fill="#C5B0FF"/>
<path d="M22.5267 68.1601L21.9121 67.9946L21.6757 67.8157L21.4393 67.6368L21.0021 67.2372L20.5649 66.8376L20.2165 66.183L19.8682 65.5283L19.8343 37.5246L19.8003 9.52083L20.1357 8.78637L20.471 8.05191L20.9552 7.54984L21.4393 7.04778L21.963 6.76429L22.4867 6.4808L35.9638 6.44566L49.4408 6.41052L50.0606 6.61638L50.6804 6.82224L51.2515 7.32496L51.8226 7.82769L52.2111 8.59442L52.5996 9.36116L52.6365 16.7325L52.6734 24.1039L52.4074 24.4421L52.1414 24.7803V24.9501V25.1199L51.7486 25.3996L51.3558 25.6793L51.3501 18.1748L51.3443 10.6704L51.1728 10.1904L51.0014 9.7104L50.5176 9.05132L50.0338 8.39225L49.295 8.03081L48.5563 7.66937L47.1825 7.66425L45.8088 7.65913L45.2538 8.70654L44.6989 9.75394L44.5517 9.91857L44.4046 10.0832L36.1296 10.0495L27.8546 10.0158L27.219 8.78818L26.5834 7.56057L25.2551 7.63166L23.9268 7.70276L23.4031 7.87467L22.8794 8.04657L22.2865 8.63841L21.6935 9.23024L21.4648 9.71536L21.2361 10.2005L21.1067 10.9008L20.9772 11.601L21.0118 37.8446L21.0465 64.0882L21.3263 64.6933L21.6061 65.2985L22.1029 65.8484L22.5997 66.3983L23.1324 66.6834L23.665 66.9685L30.2911 67.0058L36.9171 67.043L36.8103 67.5949L36.7035 68.1469L36.6978 68.245L36.6921 68.3432L29.9167 68.3344L23.1413 68.3256L22.5267 68.1601ZM16.835 59.0222L16.4204 58.9147L16.0822 58.5128L15.744 58.1109V57.4764V56.8419L16.0797 56.4429L16.4155 56.0439L16.8772 55.9164L17.3389 55.7889L17.8132 55.9453L18.2875 56.1017L18.5869 56.5465L18.8862 56.9914V57.4368V57.8822L18.6965 58.249L18.5068 58.6158L18.2056 58.8114L17.9043 59.0071L17.577 59.0683L17.2496 59.1296L16.835 59.0222ZM17.8461 58.5199L18.098 58.3851L18.304 57.9867L18.5101 57.5882L18.4262 57.2066L18.3424 56.825L18.0075 56.5615L17.6726 56.2981H17.2874H16.9022L16.5195 56.6808L16.1368 57.0635V57.4764V57.8893L16.5195 58.272L16.9022 58.6547H17.2482H17.5942L17.8461 58.5199ZM74.9487 29.1702L74.7915 29.0131V28.6668V28.3205L75.031 28.1038L75.2704 27.8872H75.5344H75.7984L76.015 28.1266L76.2317 28.366V28.7112V29.0563L75.9785 29.1918L75.7252 29.3273H75.4155H75.1058L74.9487 29.1702ZM7.07018 16.6171L6.84106 16.4836V16.1534V15.8233L7.0281 15.6362L7.21514 15.4492H7.52562H7.8361L7.99321 15.6063L8.15032 15.7634V16.0355V16.3075L7.88697 16.533L7.62363 16.7585L7.46147 16.7545L7.2993 16.7505L7.07018 16.6171ZM52.9036 7.55301L52.6838 7.33181H52.4203H52.1568L52.0689 7.18948L51.9809 7.04715L52.1266 6.90144L52.2723 6.75574V6.51597V6.27619L52.4775 6.19745L52.6827 6.11871L52.831 6.26702L52.9793 6.41533H53.2804H53.5816V6.66318V6.91102L53.3946 6.98276L53.2077 7.0545L53.1655 7.41435L53.1233 7.7742L52.9036 7.55301Z" fill="#2D00A6"/>
<path d="M45.6729 88.0001L44.6197 87.0002L44.0774 86.411L43.535 85.8219L42.4131 84.5485L41.2912 83.2751L41.1753 83.0681L41.0594 82.861L39.7596 82.4812L38.4598 82.1015L37.216 81.4868L35.9722 80.8721L35.2521 80.3191L34.532 79.766L33.7054 79.0269L32.8789 78.2877L32.2582 77.4724L31.6376 76.6571L31.1684 75.8715L30.6992 75.086L30.3701 74.4285L30.0409 73.771L29.7571 72.9228L29.4732 72.0747L29.2204 70.6514L28.9676 69.2281V68.7857V68.3433H32.824H36.6804L36.7664 67.8523L36.8524 67.3613L37.0249 66.7722L37.1975 66.183L37.4803 65.2075L37.7632 64.232L38.2923 63.1782L38.8214 62.1243L39.2204 61.5351L39.6195 60.946L40.9464 59.1785L42.2734 57.411L43.3178 55.9053L44.3623 54.3997L44.7824 53.7335L45.2025 53.0674L45.596 51.7697L45.9896 50.4719L46.4457 47.7879L46.9018 45.1039L47.4305 42.1581L47.9592 39.2123L48.1484 38.1151L48.3376 37.0179L48.4709 34.9074L48.6043 32.7969L48.7327 31.7856L48.8611 30.7743L49.0639 29.8998L49.2667 29.0252L49.5051 28.4889L49.7435 27.9527L50.211 27.2326L50.6785 26.5125L51.3608 25.805L52.0431 25.0975L52.1407 25.2813L52.2382 25.4651L52.5231 27.1017L52.808 28.7382L53.0432 29.0655L53.2784 29.3929L53.7113 29.6874L54.1441 29.982H54.2494H54.3547L54.4012 29.1637L54.4477 28.3454L54.473 29.4242L54.4982 30.503L54.8881 36.5597L55.2781 42.6164L55.345 43.2055L55.4119 43.7947L55.6826 48.1152L55.9532 52.4358L56.4135 54.1378L56.8737 55.8399L57.3225 57.5092L57.7713 59.1785L58.2373 60.9132L58.7033 62.648L59.21 64.481L59.7167 66.3139L60.2582 68.3433L60.7997 70.3726L61.2417 72.0092L61.6836 73.6458L62.026 74.955L62.3683 76.2643L62.9337 78.49L63.4991 80.7158L63.5837 81.6977L63.6684 82.6796L63.5675 82.8301L63.4666 82.9806L61.5027 83.9619L59.5388 84.9432L58.0332 85.5585L56.5276 86.1739L55.1528 86.6651L53.7781 87.1563L52.3379 87.5886L50.8977 88.0209L48.8119 88.5105L46.726 89L45.6729 88.0001ZM15.8686 53.1177L15.273 52.9478L14.7885 52.6484L14.304 52.349V52.3065V52.2639L14.5656 52.3324L14.8272 52.4008L15.1417 52.1947L15.4562 51.9887L16.5309 50.79L17.6057 49.5913L17.3341 49.3198L17.0626 49.0483L16.8225 49.2364L16.5823 49.4245L16.9161 49.119L17.2498 48.8135L17.8389 48.3167L18.4281 47.8199L18.8536 47.465L19.2791 47.11V47.0169V46.9239L18.4739 46.7575L17.6687 46.5912L16.9781 46.3328L16.2875 46.0745L15.8136 45.7529L15.3397 45.4313L15.051 45.4179L14.7622 45.4045L15.1703 45.307L15.5784 45.2096L16.7214 44.4411L17.8644 43.6727L18.1135 43.356L18.3627 43.0393V42.4678V41.8963L18.1335 41.885L17.9044 41.8738L18.2317 41.7738L18.559 41.6739L19.1103 41.3923L19.6615 41.1107H19.7322H19.8028V47.0538V52.9969L19.5737 53.087L19.3446 53.177L17.9044 53.2322L16.4642 53.2875L15.8686 53.1177ZM28.2803 33.6811L29.7532 33.6394L31.2261 33.6811L32.699 33.7229H29.7532H26.8074L28.2803 33.6811ZM39.6127 33.681L41.1585 33.6395L42.624 33.6812L44.0896 33.7229L41.0783 33.7227L38.067 33.7226L39.6127 33.681ZM19.1048 23.9601L18.4865 23.5679L17.4701 22.5526L16.4537 21.5373L16.0337 20.6863L15.6136 19.8353L15.4036 18.9733L15.1935 18.1113L15.3224 17.4022L15.4512 16.6931L15.4667 17.114L15.4823 17.5349L15.7114 17.6518L15.9405 17.7687L16.857 18.0084L17.7735 18.2481L17.8697 18.387L17.9659 18.526L17.9679 18.4404L17.9699 18.3548L18.6259 18.6041L19.2819 18.8533H19.4769H19.6719V18.5522V18.2511L19.5082 18.0862L19.3446 17.9213L19.5737 18.0086L19.8028 18.0958V21.224V24.3522H19.763H19.7232L19.1048 23.9601Z" fill="#D3F10B"/>
<path d="M14.1581 52.1227L13.8522 51.875L14.5638 51.2389L15.2753 50.6028L15.6079 50.2729L15.9406 49.943L16.5071 49.5011L17.0736 49.0592L17.3383 49.3238L17.6029 49.5885L16.6039 50.7113L15.6048 51.8342L15.2641 52.1023L14.9233 52.3703H14.6936H14.4639L14.1581 52.1227ZM14.1826 44.8122L13.7803 44.3242L13.7823 44.2558L13.7843 44.1874L13.8805 44.0384L13.9766 43.8893L15.9502 42.8928L17.9238 41.8962H18.1432H18.3627V42.4833V43.0704L18.0026 43.4549L17.6426 43.8393L16.5397 44.5698L15.4369 45.3003H15.0109H14.5849L14.1826 44.8122ZM26.6728 41.9617L26.6765 38.9504L29.7206 38.9467L32.7647 38.943L29.7557 38.9818L26.7467 39.0207L26.708 41.9968L26.6692 44.973L26.6728 41.9617ZM41.7984 37.7066L40.8164 37.6229L41.7657 37.5993L42.7149 37.5757V36.9865V36.3974H41.873H41.031L40.9743 36.6919L40.9176 36.9865L40.8998 36.6368L40.8819 36.2871L41.87 36.244L42.8581 36.201L42.8314 37.0193L42.8046 37.8375L42.7925 37.814L42.7804 37.7904L41.7984 37.7066ZM36.0049 37.6101L36.6923 37.562V36.9869V36.4117L36.0704 36.3701L35.4485 36.3286L36.1359 36.2648L36.8234 36.201L36.8233 36.9538L36.8232 37.7066L36.0704 37.6824L35.3176 37.6582L36.0049 37.6101ZM26.6673 30.6366V27.5599L26.7088 29.0983L26.7503 30.6366L26.7088 32.175L26.6673 33.7134V30.6366ZM38.0579 30.6366V27.5599L38.0993 29.0983L38.1408 30.6366L38.0993 32.175L38.0579 33.7134V30.6366ZM53.7113 29.6874L53.2785 29.3928L53.0449 29.0655L52.8114 28.7382L52.4836 26.9277L52.1558 25.1172L52.2788 24.7938L52.4017 24.4705L52.8566 24.2804L53.3115 24.0903H53.5698H53.8281L53.9095 24.222L53.9909 24.3538L54.1774 26.546L54.3638 28.7382L54.3656 29.3601L54.3674 29.982H54.2559H54.1443L53.7113 29.6874ZM18.5918 18.598L17.9699 18.3549L17.9679 18.4405L17.9659 18.526L17.8697 18.387L17.7735 18.248L16.8571 18.0083L15.9406 17.7686L15.7115 17.6517L15.4823 17.5348V17.0157V16.4966H15.6794H15.8764L16.5631 16.8339L17.2498 17.1711L18.2921 17.5608L19.3344 17.9506L19.5032 18.0907L19.672 18.2307V18.542V18.8533L19.4428 18.8472L19.2137 18.8411L18.5918 18.598Z" fill="#8456FF"/>
<path d="M26.7418 42.0272V39.0159H29.7531H32.7644V42.0272V45.0385H29.7531H26.7418V42.0272ZM31.4262 41.9944L31.3896 40.2597H29.6876H27.9856L27.949 41.9944L27.9125 43.7292H29.6876H31.4627L31.4262 41.9944ZM29.1236 41.9944L29.1639 41.438L29.7203 41.3978L30.2768 41.3575V41.9542V42.5509H29.6801H29.0834L29.1236 41.9944ZM35.4898 43.7289L35.4483 42.4194L36.0631 42.4197L36.6778 42.42L36.7177 43.0418L36.7576 43.6637L37.3795 43.7036L38.0014 43.7435V44.391V45.0384H36.7663H35.5312L35.4898 43.7289ZM39.5725 44.391V43.7292H40.2343H40.8961L40.8562 44.3511L40.8163 44.973L40.1944 45.0129L39.5725 45.0528L39.5725 44.391ZM42.3219 44.3839V43.7173L43.2057 43.756L44.0894 43.7947V44.3838V44.973L43.2057 45.0117L42.3219 45.0504V44.3839ZM41.5818 43.634L41.038 43.5845L40.9916 43.0022L40.9453 42.42H41.5682H42.191V43.0746V43.7292L42.1583 43.7063L42.1256 43.6834L41.5818 43.634ZM34.0992 41.6671L34.1391 41.0452H34.7282H35.3174L35.3573 41.6671L35.3972 42.289H34.7282H34.0592L34.0992 41.6671ZM38.2633 41.6344V40.9798H39.5585H40.8538L40.9332 40.7727L41.0127 40.5656V40.124V39.6825L41.8964 39.6438L42.7802 39.6051V38.6231V37.6412L41.8637 37.5757L40.9472 37.5103L40.966 37.2484L40.9848 36.9866L40.9988 36.692L41.0127 36.3974H41.8565H42.7004L42.7403 37.0193L42.7802 37.6412L43.4348 37.7066L44.0894 37.7721L44.1277 39.0814L44.166 40.3906L44.0925 40.6852L44.019 40.9798H42.4504H40.8818V41.6344V42.2891H39.5725H38.2632L38.2633 41.6344ZM35.4483 40.3581V39.736L36.103 39.6705L36.7576 39.605L36.7961 38.6558L36.8346 37.7066H37.418H38.0014V39.1361V40.5656L38.0809 40.7727L38.1604 40.9798L36.8044 40.98L35.4484 40.9802L35.4483 40.3581ZM34.0736 38.6303V37.7066H34.7342H35.3948L35.3561 38.5904L35.3174 39.4741L34.6955 39.514L34.0736 39.5539L34.0736 38.6303ZM39.5725 38.3684V37.7066H40.2343H40.8961L40.8562 38.3285L40.8163 38.9504L40.1944 38.9903L39.5725 39.0302L39.5725 38.3684ZM26.7151 37.4121L26.6604 37.2484L26.7145 36.1028L26.7687 34.9572H28.3918H30.0149V35.6118V36.2665H28.9675H27.9201V36.9211V37.5757H27.345H26.7698L26.7151 37.4121ZM30.1459 36.9937V36.4117L30.7677 36.3718L31.3896 36.3319L31.4292 35.6446L31.4688 34.9572H32.1097H32.7507L32.7902 35.6446L32.8298 36.3319L33.3862 36.3722L33.9427 36.4124V36.9941V37.5757H32.0443H30.1458L30.1459 36.9937ZM35.4813 37.2508L35.5434 36.9259L35.4606 36.5962L35.3779 36.2665H34.7258H34.0736V34.368V32.4696H34.6468H35.2199L35.3774 32.2798L35.535 32.0899L35.4917 31.5924L35.4483 31.0949L36.0702 31.055L36.6921 31.0151V32.3315V33.6479H36.1292H35.5662L35.4418 33.7718L35.3174 33.8956L35.3829 35.1137L35.4483 36.3319L36.0702 36.3718L36.6921 36.4117V36.9937V37.5757H36.0557H35.4192L35.4813 37.2508ZM36.8231 35.6084V34.9504L38.8197 34.9865L40.8163 35.0227L40.8562 35.6446L40.8961 36.2665H38.8596H36.8231V35.6084ZM42.8457 35.6118V34.9428L43.4675 34.9827L44.0894 35.0227V35.6118V36.201L43.4675 36.2409L42.8457 36.2808V35.6118ZM26.7418 30.6366V27.6253H29.7531H32.7644V30.6366V33.6479H29.7531H26.7418V30.6366ZM31.4262 30.6694L31.4627 28.9346H29.6914H27.9201V30.6148V32.295L28.0111 32.386L28.1021 32.477L29.7459 32.4406L31.3896 32.4041L31.4262 30.6694ZM29.0984 30.6366V29.982H29.6876H30.2768V30.6366V31.2913H29.6876H29.0984V30.6366ZM38.1323 30.6366V27.6204L41.1109 27.6556L44.0894 27.6908V30.6366V33.5825L41.1109 33.6177L38.1323 33.6528V30.6366ZM42.8167 30.6694L42.8533 28.9346H41.082H39.3107V30.6148V32.295L39.4017 32.386L39.4927 32.477L41.1364 32.4406L42.7802 32.4041L42.8167 30.6694ZM40.489 30.6366V29.982H41.0609H41.6328L41.7067 30.5325L41.7805 31.0831L41.7162 31.1872L41.6519 31.2913H41.0704H40.489V30.6366ZM34.1609 30.8112L34.0736 30.7239V30.222V29.7202H34.6569H35.2401L35.3245 30.1699L35.4088 30.6196L35.3227 30.7591L35.2365 30.8985H34.7423H34.2482L34.1609 30.8112ZM35.4494 29.4601L35.4078 29.3927L35.4787 28.509L35.5497 27.6253H36.1209H36.6921V28.5286V29.4319L36.0916 29.4797L35.4911 29.5275L35.4494 29.4601Z" fill="#1A0260"/>
</svg>
