<svg width="394" height="360" viewBox="0 0 394 360" fill="none" xmlns="http://www.w3.org/2000/svg">
<g clip-path="url(#clip0_109_32)">
<path d="M141.573 287.497L137.787 295.969C140.865 295.48 143.727 298.103 143.791 301.472C143.855 304.841 141.11 308.345 138.033 308.824C138.621 311.439 141.159 312.592 143.362 313.649C145.566 314.706 147.94 316.46 147.776 319.246C147.645 321.484 145.791 323.46 143.822 324.254C141.853 325.048 139.787 324.926 137.793 324.793C140.815 327.947 141.109 333.877 138.455 338.131C135.802 342.385 130.502 344.479 126.534 342.841C129.338 346.322 128.728 352.697 125.249 356.289C121.741 359.91 116.657 360.261 112.213 359.879C100.895 358.924 90.1116 354.659 81.2111 347.618C77.8135 344.924 74.64 341.755 72.7019 337.622C70.7637 333.489 70.1927 328.255 71.998 323.552C71.5111 329.444 65.6017 334.098 60.2857 334.358C54.9696 334.618 50.3282 331.63 46.3839 328.223C41.1386 323.691 36.2821 317.339 37.002 309.501C37.3584 305.621 39.0566 301.889 40.7221 298.274L43.9511 291.267C45.2546 288.437 46.5878 285.561 48.5498 283.187C50.5118 280.812 53.2351 278.975 55.9603 278.992C55.3372 276.151 54.7113 273.204 55.2335 270.186C55.7557 267.167 57.7552 264.042 60.4746 263.335C63.9355 262.435 66.8685 265.622 70.3487 265.322C73.6978 265.033 76.4656 261.678 79.7177 260.349C81.0567 259.771 82.5356 259.596 83.9731 259.844C85.4106 260.092 86.7444 260.753 87.8111 261.746C89.8728 263.755 90.7321 267.149 89.9923 270.36C89.3443 273.172 87.6195 275.653 86.5727 278.366C85.5259 281.079 85.3634 284.567 87.3739 286.048C89.8 287.836 93.4927 285.403 95.3881 282.46C97.2835 279.517 98.3718 275.953 100.769 273.478C103.597 270.557 108.026 269.872 110.938 271.906C113.851 273.94 114.965 278.494 113.496 282.365C112.296 285.53 109.546 288.732 110.499 291.713C111.508 294.863 115.919 294.464 118.58 292.238C121.241 290.012 123.007 286.658 125.636 284.382C128.305 282.07 131.791 281.057 134.851 281.704C136.404 282.063 137.84 282.807 139.029 283.867C140.217 284.927 141.119 286.268 141.651 287.767" fill="#F7F7F7"/>
<path d="M80.2751 263.688L88.1308 267.331C89.3116 267.913 90.6509 268.093 91.944 267.844C93.0845 267.575 93.8551 266.879 94.0577 265.934L95.8855 257.414C96.2307 255.806 94.8969 253.905 92.7142 252.893L88.3758 250.881C86.1931 249.869 83.8766 250.078 82.8684 251.378L77.5225 258.267C76.9295 259.031 76.8936 260.067 77.423 261.111C78.0662 262.258 79.0679 263.163 80.2751 263.688Z" fill="#1A0260"/>
<path d="M323.864 106.214C316.479 86.0408 304.954 67.6296 290.027 52.1588C277.362 39.0383 257.652 39.5835 257.652 39.5835L257.54 39.4441C252.796 33.6061 246.43 29.2961 239.241 27.0549C232.053 24.8137 224.361 24.7411 217.131 26.8461C215.251 27.3843 213.806 27.6229 213.119 27.3832C200.585 23.0054 201.174 13.1244 190.36 5.16428C171.426 -8.77337 108.623 7.19194 99.7671 32.8389C92.5897 53.6251 60.5512 63.7001 48.5814 79.5999C46.7097 82.086 44.8733 84.601 43.0723 87.1447C42.2278 88.3265 41.3929 89.5172 40.5674 90.7167C32.0868 102.973 24.4789 115.809 17.7997 129.128C13.4197 137.831 9.61304 146.809 6.4039 156.006C-6.07907 192.425 -1.8103 219.559 32.6093 212.855C36.6838 212.06 40.6603 211.348 44.539 210.72C50.1555 209.805 55.5762 209.053 60.801 208.464C67.8368 207.666 74.5305 207.143 80.882 206.895C83.0176 206.809 85.1141 206.752 87.1713 206.722C117.59 206.302 140.153 212.015 157.342 220.884C160.256 222.384 163.017 223.97 165.626 225.644C169.61 228.186 173.415 230.998 177.012 234.062C181.991 238.325 186.582 243.02 190.732 248.091L190.96 248.369C211.065 272.912 217.681 300.082 231.666 304.866C291.449 325.319 329.259 251.176 333.136 178.648C333.332 174.993 333.44 171.348 333.461 167.715C333.473 166.09 333.465 164.47 333.437 162.855C333.375 158.64 333.189 154.452 332.877 150.315C332.761 148.733 332.626 147.159 332.472 145.594C332.303 143.907 332.119 142.229 331.906 140.562C330.385 128.341 327.724 116.714 323.864 106.214Z" fill="#C5B0FF"/>
<path d="M138.568 146.118C143.342 148.336 143.421 158.273 141.924 161.492L139.211 167.32L121.917 159.301L124.63 153.474C126.13 150.255 133.79 143.907 138.568 146.118Z" fill="#1A0260"/>
<path d="M185.04 229.784C185.344 229.784 185.644 229.711 185.914 229.571C186.184 229.431 186.416 229.227 186.59 228.978C186.765 228.73 186.876 228.442 186.916 228.141C186.955 227.84 186.921 227.534 186.817 227.249C186.732 227.016 186.602 226.802 186.434 226.619C186.266 226.437 186.063 226.289 185.838 226.185L96.5286 184.775C96.3035 184.67 96.0599 184.611 95.8119 184.601C95.5638 184.59 95.3161 184.629 95.0829 184.714C94.8497 184.799 94.6356 184.929 94.4527 185.096C94.2699 185.264 94.1219 185.466 94.0173 185.691C93.8066 186.144 93.7849 186.663 93.957 187.133C94.1291 187.603 94.4809 187.985 94.9353 188.197L184.245 229.607C184.494 229.724 184.765 229.784 185.04 229.784Z" fill="#1A0260"/>
<path d="M115.181 163.017L140.709 174.854L100.663 260.873L75.1348 249.036L115.181 163.017Z" fill="#F7F7F7"/>
<path d="M211.013 54.7349C215.787 56.9532 215.866 66.8895 214.369 70.109L211.656 75.9365L194.362 67.9178L197.075 62.0903C198.575 58.8722 206.235 52.5241 211.013 54.7349Z" fill="#1A0260"/>
<path d="M104.039 273.577L111.894 277.219C113.075 277.801 114.414 277.981 115.707 277.732C116.848 277.463 117.619 276.767 117.821 275.822L119.649 267.302C119.994 265.695 118.66 263.793 116.478 262.781L112.139 260.77C109.957 259.757 107.64 259.967 106.632 261.266L101.286 268.155C100.693 268.919 100.657 269.956 101.186 270.999C101.83 272.146 102.831 273.052 104.039 273.577Z" fill="#1A0260"/>
<path d="M128.191 285.536L136.047 289.178C137.227 289.76 138.567 289.94 139.86 289.691C141 289.422 141.771 288.726 141.973 287.781L143.801 279.261C144.146 277.654 142.813 275.752 140.63 274.74L136.292 272.728C134.109 271.716 131.792 271.925 130.784 273.225L125.438 280.114C124.845 280.878 124.809 281.915 125.339 282.958C125.982 284.105 126.984 285.01 128.191 285.536Z" fill="#1A0260"/>
<path d="M180.814 86.266L206.343 98.1031L125.395 271.979L99.8662 260.142L180.814 86.266Z" fill="#F7F7F7"/>
<path d="M154.326 175.899L157.19 169.608L155.541 168.849L152.685 175.12L111.332 266.625L112.98 267.389" fill="#1A0260"/>
<path d="M122.017 170.67L124.881 164.38L123.232 163.62L120.376 169.891L79.0235 261.396L80.6708 262.16" fill="#1A0260"/>
<path d="M168.764 100.181L203.355 116.22C205.557 112.8 212.196 95.2786 210.705 90.0799L211.824 85.1224L187.94 74.048L184.743 77.9727C179.998 79.4258 170.759 95.8836 168.764 100.181Z" fill="#F7F7F7"/>
<path d="M186.942 74.2601L211.589 85.6882C212.498 86.11 213.467 85.955 213.753 85.3419C213.794 85.2535 213.819 85.1587 213.828 85.0617L215.103 71.4811C215.158 70.8995 214.659 70.2405 213.898 69.8874L197.553 62.3085C196.791 61.9554 195.965 62.0002 195.555 62.4169L185.978 72.1482C185.488 72.646 185.754 73.4979 186.572 74.0512C186.689 74.1306 186.813 74.2004 186.942 74.2601Z" fill="#F7F7F7"/>
<path d="M167.611 180.66C167.878 180.66 168.144 180.629 168.403 180.567C168.768 180.491 169.112 180.333 169.407 180.104C169.702 179.876 169.94 179.583 170.104 179.248L185.172 146.881C185.796 145.541 184.959 143.828 183.306 143.062L161.242 132.831C159.589 132.064 157.737 132.531 157.113 133.871L142.045 166.238C141.894 166.579 141.824 166.95 141.839 167.322C141.854 167.694 141.955 168.058 142.132 168.386C142.519 169.127 143.146 169.717 143.911 170.058L165.975 180.288C166.487 180.529 167.045 180.656 167.611 180.66Z" fill="#1A0260"/>
<path d="M164.593 185.559L190.122 197.396L150.076 283.414L124.548 271.577L164.593 185.559Z" fill="#F7F7F7"/>
<path d="M196.044 75.6789L203.531 79.1502C204.975 79.82 206.925 78.7038 207.875 76.6623C208.825 74.6208 208.423 72.4144 206.979 71.7446L199.492 68.2733C198.047 67.6034 196.098 68.7196 195.148 70.7611C194.198 72.8026 194.6 75.009 196.044 75.6789Z" fill="#1A0260"/>
<path d="M187.482 168.429C192.257 170.647 192.335 180.583 190.838 183.803L188.125 189.63L170.832 181.612L173.545 175.784C175.045 172.566 182.705 166.218 187.482 168.429Z" fill="#1A0260"/>
<path d="M266.791 148.595C268.477 149.716 270.202 147.048 268.484 145.976C266.798 144.855 265.072 147.524 266.791 148.595Z" fill="#F7F7F7"/>
<path d="M91.2754 110.251C92.9616 111.372 94.6873 108.704 92.9688 107.632C91.2827 106.511 89.5569 109.18 91.2754 110.251Z" fill="#F7F7F7"/>
<path d="M210.905 140.752C212.591 141.873 214.317 139.205 212.598 138.133C210.912 137.012 209.187 139.681 210.905 140.752Z" fill="#F7F7F7"/>
<path d="M266.791 245.326C268.477 246.447 270.202 243.779 268.484 242.707C266.798 241.586 265.072 244.255 266.791 245.326Z" fill="#F7F7F7"/>
<path d="M180.78 27.0273C182.466 28.1485 184.191 25.4799 182.473 24.4085C180.787 23.2874 179.061 25.9559 180.78 27.0273Z" fill="#F7F7F7"/>
<path d="M263.734 78.4431C265.42 79.5643 267.146 76.8957 265.427 75.8243C263.741 74.7031 262.016 77.3717 263.734 78.4431Z" fill="#F7F7F7"/>
<path d="M144.42 63.7031L145.493 63.4683L145.258 62.3973L145.973 62.2408L146.208 63.3119L147.281 63.0774L147.438 63.7912L146.365 64.026L146.6 65.0966L145.885 65.253L145.649 64.182L144.577 64.4169L144.42 63.7031Z" fill="#F7F7F7"/>
<path d="M319.104 152.93L320.177 152.696L319.942 151.625L320.657 151.469L320.892 152.539L321.966 152.305L322.122 153.018L321.049 153.253L321.284 154.324L320.569 154.48L320.334 153.41L319.261 153.644L319.104 152.93Z" fill="#F7F7F7"/>
<path d="M99.1044 198.446C99.9972 198.858 101.018 198.901 101.942 198.564C102.866 198.226 103.618 197.537 104.034 196.647L108.449 187.163C108.862 186.273 108.904 185.255 108.566 184.333C108.228 183.412 107.537 182.662 106.645 182.248C105.753 181.835 104.733 181.791 103.809 182.128C102.885 182.464 102.133 183.153 101.718 184.042L97.3025 193.526C96.8889 194.417 96.8464 195.435 97.1842 196.358C97.522 197.28 98.2126 198.031 99.1044 198.446Z" fill="#1A0260"/>
<path d="M174.201 233.304C175.093 233.716 176.114 233.759 177.038 233.422C177.962 233.085 178.714 232.395 179.13 231.505L183.545 222.022C183.958 221.131 184.001 220.113 183.662 219.191C183.324 218.27 182.633 217.52 181.741 217.106C180.849 216.693 179.829 216.649 178.906 216.986C177.982 217.322 177.229 218.011 176.814 218.9L172.399 228.384C171.985 229.275 171.943 230.293 172.28 231.216C172.618 232.138 173.309 232.889 174.201 233.304Z" fill="#1A0260"/>
<path d="M105.906 177.725L135.51 191.452C137.395 188.525 143.077 173.529 141.801 169.08L141.175 164.102L123.499 155.448L119.582 158.718C114.063 156.856 105.951 170.503 105.906 177.725Z" fill="#F7F7F7"/>
<path d="M119.65 176.773L127.137 180.244C128.582 180.914 130.78 179.263 132.036 176.564C133.293 173.864 133.14 171.123 131.695 170.453L124.209 166.982C122.764 166.312 120.566 167.963 119.309 170.662C118.053 173.361 118.206 176.103 119.65 176.773Z" fill="#1A0260"/>
<path d="M183.141 194.635L186.006 188.344L184.357 187.585L181.501 193.856L140.148 285.361L141.795 286.125" fill="#1A0260"/>
<path d="M154.821 200.035L184.425 213.762C188.792 211.512 195.467 196.786 190.716 191.39L190.09 186.413L172.413 177.758L168.496 181.028C164.435 182.272 156.528 196.357 154.821 200.035Z" fill="#F7F7F7"/>
<path d="M169.174 197.775L176.661 201.246C178.105 201.916 180.167 200.558 181.255 198.22C182.344 195.881 182.054 193.433 180.61 192.764L173.123 189.292C171.679 188.622 169.617 189.98 168.529 192.319C167.44 194.657 167.73 197.105 169.174 197.775Z" fill="#1A0260"/>
<path d="M319.213 134.136C294.377 134.136 274.243 114.043 274.243 89.2563C274.243 64.4698 294.377 44.3765 319.213 44.3765C344.05 44.3765 364.184 64.4698 364.184 89.2563C364.184 114.043 344.05 134.136 319.213 134.136Z" fill="#D3F10B"/>
<path opacity="0.3" d="M134.829 136.001L107.501 56.3459L137.509 135.047C137.657 135.234 137.759 135.453 137.806 135.687C137.852 135.921 137.842 136.163 137.776 136.392C137.71 136.621 137.591 136.831 137.427 137.005C137.264 137.179 137.061 137.311 136.836 137.391C136.611 137.471 136.37 137.497 136.134 137.465C135.897 137.434 135.671 137.347 135.475 137.211C135.278 137.075 135.117 136.894 135.005 136.684C134.893 136.473 134.833 136.239 134.829 136.001Z" fill="#F7F7F7"/>
<path d="M65.1672 88.5212C70.517 90.2956 76.4478 92.0386 82.9595 93.7503C116.641 102.6 161.788 109.504 210.084 113.189C258.379 116.875 304.053 116.901 338.691 113.265C355.565 111.494 368.911 108.946 378.359 105.692C388.361 102.247 393.617 98.0962 393.98 93.3548C394.688 84.1175 376.423 75.9874 360.976 70.7937L360.558 72.0324C381.77 79.1647 393.176 86.7018 392.674 93.2552C392.035 101.602 372.309 108.421 338.554 111.965C303.992 115.593 258.402 115.566 210.183 111.886C161.965 108.206 116.901 101.316 83.2929 92.4861C50.4718 83.8628 32.0135 74.1293 32.653 65.7824C33.1841 58.8523 46.872 52.9239 71.1955 49.0887L70.991 47.7976C53.3173 50.5844 32.0928 55.9493 31.3469 65.6828C30.9837 70.4243 35.546 75.3242 44.9073 80.2465C50.2437 83.0522 57.024 85.8203 65.1672 88.5212Z" fill="#1A0260"/>
<path d="M51.953 168.12C49.3724 168.12 47.2803 166.032 47.2803 163.457C47.2803 160.881 49.3724 158.793 51.953 158.793C54.5337 158.793 56.6257 160.881 56.6257 163.457C56.6257 166.032 54.5337 168.12 51.953 168.12Z" fill="#D3F10B"/>
<path d="M22.2638 294.481C19.6832 294.481 17.5911 292.393 17.5911 289.817C17.5911 287.242 19.6832 285.154 22.2638 285.154C24.8445 285.154 26.9365 287.242 26.9365 289.817C26.9365 292.393 24.8445 294.481 22.2638 294.481Z" fill="#F7F7F7"/>
<path d="M181.625 322.874C176.593 322.874 172.514 318.804 172.514 313.782C172.514 308.761 176.593 304.69 181.625 304.69C186.656 304.69 190.735 308.761 190.735 313.782C190.735 318.804 186.656 322.874 181.625 322.874Z" fill="#F7F7F7"/>
<path d="M251.045 202.542C248.464 202.542 246.372 200.455 246.372 197.879C246.372 195.304 248.464 193.216 251.045 193.216C253.625 193.216 255.717 195.304 255.717 197.879C255.717 200.455 253.625 202.542 251.045 202.542Z" fill="#1A0260"/>
<path d="M93.9541 208.612L73.7935 213.82L61.4284 238.059L82.333 238.877L93.9541 208.612Z" fill="#F7F7F7"/>
<path d="M140.488 173.669L129.392 184.749L101.21 245.557L106.399 250.03L140.488 173.669Z" fill="#A9A5B4"/>
<path d="M164.614 183.713L163.743 199.353L137.144 260.867L130.343 259.993L164.614 183.713Z" fill="#A9A5B4"/>
<path d="M165.34 246.899L176.198 264.634L168.194 290.633L152.601 276.713L165.34 246.899Z" fill="#F7F7F7"/>
<path d="M69.4261 257.796C75.0636 257.796 81.2425 257.583 87.9628 257.158C122.723 254.955 167.747 247.297 214.742 235.593C261.737 223.89 305.089 209.539 336.811 195.186C352.263 188.194 364.123 181.576 372.06 175.514C380.463 169.098 384.139 163.504 382.986 158.89C380.738 149.902 360.836 147.935 344.536 147.868L344.531 149.176C366.915 149.267 380.12 152.83 381.715 159.207C383.746 167.329 367.181 180.009 336.27 193.996C304.618 208.317 261.346 222.64 214.425 234.325C167.504 246.01 122.563 253.655 87.8797 255.854C54.0085 258.001 33.4163 254.574 31.3855 246.451C29.6994 239.708 40.8153 229.774 62.6854 218.479L62.0834 217.318C46.1923 225.525 27.7464 237.297 30.1144 246.768C31.2682 251.382 37.1462 254.596 47.5852 256.32C53.5359 257.303 60.845 257.796 69.4261 257.796Z" fill="#1A0260"/>
</g>
<defs>
<clipPath id="clip0_109_32">
<rect width="394" height="360" fill="white" transform="matrix(-1 0 0 1 394 0)"/>
</clipPath>
</defs>
</svg>
