<svg width="169" height="92" viewBox="0 0 169 92" fill="none" xmlns="http://www.w3.org/2000/svg">
<path d="M140.417 63.8045C136.234 63.7207 116.487 63.3187 97.3326 62.9274C92.9034 62.837 85.6556 62.6937 81.2264 62.6091C76.7972 62.5244 69.1923 62.378 64.3266 62.2837C59.4609 62.1894 55.3709 62.0512 55.2376 61.9766C55.068 61.8817 55.2819 61.7817 55.9507 61.6431C58.1525 61.1869 61.6945 59.8574 64.6371 58.3827C66.0797 57.6597 69.6665 55.4886 69.8716 55.2143C69.9159 55.1551 70.6027 54.6027 71.398 53.9869C74.2181 51.8028 77.3368 48.3525 79.4572 45.0705C81.028 42.6391 82.8355 38.7996 83.748 35.9557C84.7597 32.8024 85.6944 27.8615 85.8988 24.5862L86.0053 22.8804L90.7026 22.7746C97.4573 22.6223 124.746 22.6522 137.802 22.8262C149.75 22.9854 149.635 22.9762 150.034 23.8099C150.234 24.2262 150.183 24.8736 149.583 29.5132C149.491 30.2219 149.352 31.324 149.274 31.9624C148.997 34.2173 148.999 34.2109 148.254 34.4073C147.885 34.5044 146.787 34.8071 145.812 35.08C143.307 35.7817 141.594 35.8541 139.692 35.3386C138.895 35.1225 137.699 34.7482 137.034 34.5067C134.229 33.4871 132.003 32.8808 130.266 32.663C127.185 32.2766 123.641 33.2424 120.139 35.4233C117.481 37.0789 117.394 37.1206 116.003 37.4125C113.385 37.962 110.715 37.4684 107.326 35.8086C105.253 34.7932 104.425 34.5107 102.561 34.1828C97.3795 33.2708 91.8853 35.4003 89.3456 39.3052C88.114 41.1987 87.5884 43.1727 87.5884 45.9035C87.5885 50.9597 89.2203 54.1793 92.6856 55.9606C94.1148 56.6953 95.443 57.0382 97.8963 57.306C99.2894 57.458 100.013 57.4452 102.003 57.2335C104.193 57.0004 106.503 56.5623 107.56 56.1792C107.781 56.099 108.651 55.7762 109.493 55.4618C113.822 53.8447 114.615 53.8979 118.266 56.0504C121.591 58.0109 123.543 58.5863 126.853 58.5824C130.741 58.5776 133.341 57.5705 137.034 54.6386C139.566 52.6292 141.179 52.3886 145.453 53.3832C146.541 53.6365 146.543 53.6379 146.465 54.1379C146.423 54.4134 146.275 55.581 146.137 56.7326C145.506 62.0069 145.299 63.274 145.023 63.5498C144.761 63.8117 143.702 63.8703 140.417 63.8045Z" fill="#F7F7F7"/>
<path d="M27.5927 91.4321C25.8216 91.2834 25.3815 91.1504 24.2345 90.4166C23.2778 89.8046 22.6748 89.0229 22.3539 87.9783C22.245 87.624 22.0927 87.1676 22.0154 86.9641C21.8332 86.4843 21.8365 85.1993 22.023 83.965C22.2186 82.6706 22.4545 80.8736 22.765 78.3146C22.9047 77.163 23.0878 75.8282 23.1718 75.3484C23.398 74.0567 23.3732 72.8706 23.1233 73.0221C23.0125 73.0893 23.2481 72.7763 23.6467 72.3267C24.0453 71.8771 25.3137 70.3448 26.4653 68.9217C27.6169 67.4985 28.6549 66.2939 28.7721 66.2449C29.1431 66.0894 29.5842 66.4569 30.2421 67.4693C30.851 68.4065 30.8698 68.4732 30.646 68.9059C30.4969 69.1942 30.4113 69.8374 30.4113 70.669C30.4113 71.3891 30.3422 72.643 30.2577 73.4553C30.1732 74.2677 29.9917 76.8168 29.8544 79.12C29.7172 81.4231 29.5337 84.2135 29.4467 85.3208C29.299 87.2008 29.1237 89.7648 29.0669 90.8775L29.0423 91.3606L55.2954 91.4419L81.5484 91.5232L55.2954 91.5384C40.8562 91.5468 28.3899 91.4989 27.5927 91.4321ZM100.021 91.4847C85.529 91.4494 81.6367 91.3978 81.7328 91.2422C81.8 91.1336 81.9086 90.3185 81.9741 89.431C82.081 87.9831 82.249 86.0651 82.7645 80.4085C82.8533 79.434 82.9923 77.8758 83.0733 76.9456C83.2447 74.9793 83.4982 72.1977 83.6539 70.5758C83.7544 69.5294 83.733 69.406 83.3804 69.0007L82.9979 68.561L73.5758 68.4126C68.3936 68.331 58.3736 68.2458 51.309 68.2233L38.4643 68.1824L38.4649 67.6113C38.4655 67.0588 38.2424 64.6751 38.0038 62.6917L37.8875 61.7253L40.3904 61.8336C41.7669 61.8931 46.0097 61.9852 49.8189 62.0381C53.628 62.091 60.3684 62.205 64.7976 62.2914C69.2268 62.3778 76.5833 62.5198 81.1454 62.6069C85.7075 62.6939 92.919 62.8377 97.171 62.9263C101.423 63.015 108.816 63.1629 113.599 63.255C118.383 63.3472 125.377 63.493 129.142 63.579C141.348 63.858 144.716 63.856 145.003 63.5694C145.302 63.2708 145.527 61.9011 146.143 56.6519C146.494 53.6589 146.482 53.7021 146.906 53.7999C147.101 53.845 148.203 54.2059 149.355 54.602C150.507 54.9981 151.756 55.374 152.133 55.4373C152.509 55.5007 152.857 55.6193 152.908 55.7009C152.958 55.7825 152.886 56.7728 152.747 57.9015C152.608 59.0302 152.42 60.5697 152.329 61.3227C152.16 62.7304 151.97 64.2528 151.693 66.4364C151.605 67.1229 151.423 68.6631 151.288 69.8589C151.057 71.8969 150.968 72.6258 150.564 75.778C150.476 76.4645 150.295 77.9684 150.161 79.12C149.494 84.8518 149.444 85.1024 148.615 86.851C147.626 88.9363 146.21 90.1892 143.813 91.0994L142.751 91.5027L130.591 91.5161C123.903 91.5235 110.147 91.5094 100.021 91.4847ZM141.439 85.1825C141.703 84.9345 141.856 84.5042 142.005 83.5919C142.116 82.904 142.271 82.057 142.349 81.7096C142.454 81.2395 142.428 80.9584 142.248 80.6098C141.741 79.6306 143.287 79.6837 115.275 79.6837H89.6395L89.0967 80.0191C88.5286 80.3702 88.5132 80.408 88.2408 82.1128C87.9699 83.8079 88.0185 84.4361 88.46 84.9495L88.8487 85.4014L99.9357 85.4959C106.034 85.5479 117.785 85.5751 126.05 85.5564L141.077 85.5224L141.439 85.1825ZM142.386 75.8982C142.71 75.5744 142.828 75.2174 142.987 74.0862C143.378 71.2975 143.375 71.1164 142.938 70.5837L142.541 70.1005L138.942 69.9868C134.511 69.8469 124.722 69.5672 117.626 69.3778C114.703 69.2998 109.412 69.1588 105.869 69.0644C102.325 68.97 97.3704 68.8226 94.8577 68.737C89.1229 68.5415 89.3217 68.4747 88.8807 70.7448C88.7774 71.2763 88.6316 71.9648 88.5567 72.2748C88.1158 74.0994 88.2206 74.9557 88.9275 75.3044C89.3427 75.5091 97.2498 75.7375 112.553 75.987C118.444 76.0831 123.626 76.1797 124.069 76.2017C124.512 76.2238 128.724 76.2552 133.429 76.2716L141.983 76.3014L142.386 75.8982ZM16.3183 80.8556C16.4955 80.8121 16.7492 80.6936 16.8821 80.5925C17.0922 80.4324 17.0948 80.4452 16.9026 80.6903C16.781 80.8453 16.5274 80.9638 16.3389 80.9535C16.0134 80.9358 16.0124 80.9308 16.3183 80.8556ZM15.7952 80.2474C15.797 79.8931 15.83 79.7671 15.8685 79.9674C15.9071 80.1678 15.9056 80.4577 15.8653 80.6117C15.825 80.7656 15.7935 80.6017 15.7952 80.2474ZM16.4395 74.7713C16.4413 74.417 16.4743 74.291 16.5128 74.4913C16.5513 74.6917 16.5498 74.9816 16.5095 75.1356C16.4692 75.2896 16.4377 75.1256 16.4395 74.7713ZM0.775879 67.2914C0.775879 67.2081 0.859555 67.0882 0.961826 67.0249C1.08448 66.9491 1.10371 66.9813 1.01834 67.1195C0.918487 67.281 0.995643 67.304 1.35584 67.22C1.69788 67.1402 1.75816 67.1548 1.58119 67.2745C1.2761 67.481 0.775879 67.4915 0.775879 67.2914ZM17.5637 65.8324C17.5637 65.5223 17.5968 65.3955 17.6373 65.5505C17.6778 65.7055 17.6778 65.9592 17.6373 66.1142C17.5968 66.2692 17.5637 66.1424 17.5637 65.8324ZM2.70862 64.7049C3.16907 64.1734 3.58204 63.7386 3.62633 63.7386C3.67062 63.7386 3.33013 64.1734 2.86968 64.7049C2.40923 65.2364 1.99626 65.6713 1.95197 65.6713C1.90768 65.6713 2.24817 65.2364 2.70862 64.7049ZM17.8445 62.9005C17.8017 62.4838 17.8263 62.2025 17.8991 62.2753C17.9719 62.3481 18.0069 62.689 17.9768 63.0328L17.9221 63.658L17.8445 62.9005ZM17.5702 41.6731C17.5702 41.2745 17.6016 41.1114 17.64 41.3107C17.6784 41.51 17.6784 41.8362 17.64 42.0355C17.6016 42.2348 17.5702 42.0717 17.5702 41.6731ZM27.6455 39.4585C27.7251 39.3035 27.8403 38.7418 27.9016 38.2103C28.1151 36.3599 28.3088 34.7998 28.8819 30.3182C29.4655 25.7538 29.6453 24.3211 29.9176 22.0638C30.0004 21.3773 30.2278 19.5835 30.423 18.0776L30.7778 15.3395L94.201 15.3802L157.624 15.4208L157.708 14.9775C157.754 14.7337 157.845 13.9544 157.91 13.2457C157.974 12.537 158.055 12.0785 158.09 12.2268C158.153 12.4988 157.953 14.2968 157.647 16.2253C157.555 16.8011 157.408 17.9245 157.319 18.7218C157.169 20.0787 157.086 20.7917 156.687 24.1576C156.479 25.9206 156.085 29.4343 155.961 30.6404C155.906 31.1719 155.785 32.0597 155.691 32.6134L155.52 33.62H154.115C152.83 33.62 150.234 33.9341 149.293 34.2035C148.925 34.3087 148.912 34.2875 149.017 33.7286C149.078 33.4068 149.201 32.544 149.291 31.8114C149.382 31.0787 149.522 29.972 149.602 29.3519C150.324 23.7947 150.318 23.6267 149.397 23.1853C148.607 22.8066 126.795 22.6331 92.5006 22.7328C54.1118 22.8444 37.8085 22.9789 37.5459 23.186C37.3999 23.3012 37.3404 23.0681 37.3043 22.2382C37.2565 21.1422 37.2545 21.1377 36.7891 21.1377C36.2972 21.1377 36.2341 21.2476 34.6544 24.8548C34.4635 25.2908 33.4761 27.5319 32.4602 29.8351C31.4443 32.1382 30.1194 35.1461 29.516 36.5191C28.9125 37.8922 28.3152 39.1786 28.1885 39.378C27.9088 39.8182 27.4239 39.8901 27.6455 39.4585ZM17.8923 37.8076C17.8923 37.409 17.9237 37.2459 17.9621 37.4452C18.0005 37.6445 18.0005 37.9707 17.9621 38.17C17.9237 38.3693 17.8923 38.2062 17.8923 37.8076ZM18.2079 34.1032C18.2079 33.7931 18.2411 33.6663 18.2816 33.8213C18.3221 33.9764 18.3221 34.23 18.2816 34.385C18.2411 34.5401 18.2079 34.4132 18.2079 34.1032ZM18.369 32.8147C18.369 32.5047 18.4021 32.3778 18.4426 32.5328C18.4831 32.6879 18.4831 32.9415 18.4426 33.0966C18.4021 33.2516 18.369 33.1248 18.369 32.8147ZM18.6976 29.1103C18.6976 28.7117 18.729 28.5486 18.7674 28.7479C18.8058 28.9472 18.8058 29.2734 18.7674 29.4727C18.729 29.672 18.6976 29.5089 18.6976 29.1103ZM19.0219 25.3253C19.0231 24.8824 19.0544 24.7203 19.0914 24.9652C19.1285 25.21 19.1275 25.5724 19.0892 25.7705C19.051 25.9686 19.0207 25.7681 19.0219 25.3253ZM19.2774 24.2238C19.5619 23.8795 19.8464 23.8844 20.1238 24.2381C20.3263 24.4963 20.3201 24.5005 20.0499 24.2881C19.8004 24.0919 19.7013 24.0897 19.4057 24.2737C19.0874 24.472 19.076 24.4675 19.2774 24.2238ZM30.7617 14.6147C30.7564 14.3933 30.8119 13.9222 30.8852 13.5678L31.0184 12.9236L31.0179 13.4873C31.0176 13.7973 30.9621 14.2684 30.8944 14.5342C30.7824 14.9744 30.7706 14.9816 30.7617 14.6147ZM31.1499 11.3935C31.2564 10.0228 31.5573 8.45547 31.7528 8.25279C31.8545 8.14742 31.8802 8.17528 31.8271 8.33331C31.7518 8.55759 31.6071 9.32759 31.2218 11.5546L31.0685 12.4404L31.1499 11.3935ZM158.161 10.9103C158.156 10.6003 158.212 10.0567 158.285 9.70234L158.418 9.05809L158.428 9.62181C158.433 9.93185 158.377 10.4754 158.303 10.8298L158.17 11.474L158.161 10.9103ZM158.532 7.00478C158.531 6.02619 158.578 5.39931 158.637 5.61172C158.786 6.14467 158.799 8.3723 158.654 8.59894C158.589 8.70075 158.534 7.98337 158.532 7.00478ZM31.8657 7.68907C31.8657 7.55619 31.936 7.33876 32.0219 7.20588C32.1606 6.99113 32.178 6.99113 32.178 7.20588C32.178 7.33876 32.1077 7.55619 32.0219 7.68907C31.8831 7.90382 31.8657 7.90382 31.8657 7.68907ZM32.1829 6.78795C32.1829 6.59765 33.3061 4.65052 33.4767 4.54509C33.5639 4.49118 33.3811 4.86853 33.0706 5.38358C32.76 5.89863 32.5057 6.40636 32.5055 6.51187C32.5052 6.61737 32.4326 6.74848 32.344 6.80323C32.2554 6.85796 32.1829 6.85108 32.1829 6.78795ZM158.035 3.89313C157.848 3.41689 157.752 3.06222 157.821 3.10496C157.978 3.20187 158.525 4.61363 158.438 4.69754C158.403 4.73135 158.222 4.36936 158.035 3.89313ZM34.7493 3.22053C35.7369 2.28127 37.672 1.07619 38.1658 1.09293C38.2857 1.09706 37.9192 1.31525 37.3513 1.57794C36.3812 2.02664 35.6245 2.55435 34.2661 3.72944C33.9503 4.00268 34.1677 3.77365 34.7493 3.22053ZM156.611 1.94271C156.084 1.4462 155.795 1.11991 155.967 1.21763C156.466 1.49997 157.864 2.87434 157.629 2.85134C157.597 2.84839 157.138 2.43923 156.611 1.94271ZM39.5112 0.609873C39.8204 0.469787 40.6831 0.378456 40.5447 0.500454C40.5078 0.532964 40.1877 0.603761 39.8333 0.657717C39.3843 0.726084 39.2867 0.711542 39.5112 0.609873ZM154.026 0.602366L153.543 0.479417L154.026 0.462806C154.292 0.453703 154.618 0.516479 154.751 0.602343C154.966 0.741127 154.966 0.756631 154.751 0.741883C154.618 0.73278 154.292 0.669994 154.026 0.602366ZM144.604 0.246912C140.042 0.169159 114.965 0.134089 88.8767 0.16897C49.3171 0.221874 45.2001 0.208632 64.0732 0.0893303C92.3624 -0.0895254 152.378 0.0187652 153.06 0.249892C153.357 0.350492 153.419 0.408732 153.221 0.400947C153.044 0.393972 149.166 0.32466 144.604 0.246912Z" fill="#C5B0FF"/>
<path d="M123.425 58.2751C121.613 57.8314 120.493 57.3504 118.351 56.0949C114.592 53.8918 113.84 53.838 109.493 55.4617C108.651 55.776 107.782 56.0988 107.56 56.1791C106.503 56.5621 104.193 57.0003 102.003 57.2333C99.3978 57.5106 97.4736 57.4085 95.0778 56.8659C92.9095 56.3749 90.8098 55.0173 89.4601 53.2337C88.8402 52.4145 88.0993 50.5388 87.82 49.082C87.545 47.6469 87.5149 44.2472 87.7678 43.1653C88.9175 38.2456 92.3879 35.1364 97.7979 34.1793C99.4776 33.8821 100.86 33.8831 102.562 34.1828C104.425 34.5108 105.253 34.7933 107.326 35.8086C110.715 37.4685 113.385 37.962 116.003 37.4126C117.394 37.1207 117.481 37.079 120.139 35.4234C123.641 33.2425 127.185 32.2766 130.266 32.6631C132.003 32.8808 134.229 33.4871 137.034 34.5068C139.051 35.2398 141.074 35.711 142.211 35.7126C142.842 35.7138 143.929 35.5455 144.861 35.3034C151.091 33.6849 152.056 33.5375 155.572 33.6673C159.288 33.8046 161.454 34.4 163.699 35.9021C165.565 37.1498 166.895 38.8855 167.67 41.0829C168.157 42.4646 168.274 45.8923 167.879 47.248C166.355 52.4907 160.667 56.1697 154.67 55.7912C152.884 55.6784 151.616 55.3907 149.162 54.5415C145.452 53.2574 142.579 52.6586 141.012 52.8428C139.382 53.0343 138.624 53.3765 137.034 54.6386C134.416 56.7169 132.696 57.6236 130.157 58.2633C128.515 58.6771 125.091 58.683 123.425 58.2751Z" fill="#D3F10B"/>
<path d="M15.9696 79.563C16.022 78.8764 16.1343 77.7711 16.2191 77.1068C16.3039 76.4424 16.491 74.9566 16.635 73.805C16.779 72.6534 16.9711 71.1314 17.0619 70.4227C17.1527 69.714 17.2891 68.6269 17.3651 68.0068C17.4411 67.3867 17.5818 66.2633 17.6779 65.5103C18.0764 62.3859 18.0775 62.3363 17.7487 62.1677C17.5191 62.0499 16.5281 62.314 13.6607 63.2572C3.92988 66.458 1.10929 67.3471 1.00785 67.2457C0.87879 67.1166 1.75277 66.0228 7.18246 59.5182C10.1084 56.0129 12.5848 52.9911 12.6854 52.803C12.9309 52.3443 12.5985 52.0515 10.1729 50.5901C8.14941 49.3709 6.77715 48.5317 2.57171 45.9413C0.224873 44.4958 -0.0383021 44.2894 0.00391859 43.9281L0.0509584 43.5254L8.60894 43.4837C15.7028 43.4492 17.1989 43.4036 17.3537 43.217C17.4564 43.0932 17.6084 42.1698 17.6915 41.1649C17.7746 40.16 17.9553 38.1057 18.0931 36.5997C18.2309 35.0938 18.4134 33.0644 18.4988 32.09C18.5841 31.1156 18.7201 29.5936 18.8011 28.7077C18.882 27.8219 19.001 26.4994 19.0656 25.7689C19.2565 23.6091 19.7828 23.5573 20.734 25.6046C21.0742 26.3369 21.6242 27.5159 21.9562 28.2245C22.2882 28.9332 22.7951 30.0204 23.0828 30.6405C23.3704 31.2605 23.8604 32.3115 24.1715 32.9759C24.4827 33.6402 25.2583 35.3072 25.8951 36.6803C27.0594 39.1904 27.3945 39.7404 27.76 39.7404C28.0515 39.7404 28.3025 39.2801 29.5158 36.5192C30.1193 35.1462 31.4442 32.1383 32.4601 29.8351C33.476 27.532 34.4633 25.2909 34.6542 24.8549C36.2339 21.2477 36.297 21.1378 36.789 21.1378C37.2437 21.1378 37.2572 21.1616 37.2914 22.0237C37.531 28.0569 37.8593 35.2661 38.0045 37.6817C38.1497 40.0976 38.2374 40.7412 38.4458 40.9218C38.6158 41.0692 39.3185 41.1823 40.4775 41.2487C41.4519 41.3045 44.0248 41.4603 46.1951 41.595C48.3654 41.7296 51.3008 41.9082 52.7181 41.9918C56.477 42.2136 57.2746 42.3191 57.3861 42.6096C57.5215 42.9626 57.2145 43.183 56.0199 43.5905C55.4441 43.7869 54.8281 44.0115 54.6509 44.0897C54.4737 44.1678 53.5677 44.4942 52.6376 44.8148C51.7075 45.1355 50.5841 45.5295 50.1412 45.6903C49.6982 45.8512 48.8285 46.1674 48.2084 46.393C47.5883 46.6185 46.32 47.0675 45.3898 47.3907C40.0362 49.2508 39.7527 49.3731 39.7527 49.8218C39.7527 50.0408 39.9064 50.2994 40.1151 50.4315C40.3144 50.5577 42.7243 51.5815 45.4704 52.7065C48.2165 53.8315 50.7532 54.8831 51.1075 55.0432C51.4619 55.2034 52.1181 55.4736 52.5658 55.6436C54.4668 56.3656 54.8134 56.6401 54.3749 57.0765C54.1898 57.2607 53.5639 57.3909 50.1814 57.9488C48.4392 58.2361 47.4014 58.4087 44.9067 58.8263C40.8113 59.5117 40.6822 59.5329 39.5386 59.7075C38.9337 59.7999 38.2896 59.9552 38.1074 60.0528C37.7438 60.2474 37.7409 59.9466 38.1454 64.0608C38.2368 64.9909 38.382 66.5129 38.468 67.4431C38.5539 68.3732 38.6939 69.859 38.7789 70.7448C38.8639 71.6307 39.0439 73.5151 39.1788 74.9324C39.3137 76.3498 39.4715 77.9907 39.5295 78.5789C39.6291 79.5901 39.6152 79.6546 39.2731 79.7631C39.0454 79.8354 38.8339 79.7972 38.7021 79.66C38.466 79.4143 33.2187 71.8696 31.0147 68.607C29.5862 66.4924 29.1862 66.0711 28.7719 66.2453C28.6547 66.2945 27.4194 67.7257 26.0267 69.4257C24.6339 71.1256 22.6894 73.495 21.7055 74.6908C20.7216 75.8867 19.5418 77.3281 19.0838 77.8938C16.9668 80.5084 16.675 80.8112 16.2721 80.8112C15.8749 80.8112 15.8743 80.8088 15.9696 79.563Z" fill="#5B23FF"/>
<path d="M44.4237 61.797C42.8735 61.7349 40.7856 61.6753 39.7839 61.6645L37.9627 61.6449L38.0123 60.9767C38.0413 60.5855 38.1619 60.2578 38.3034 60.186C38.4363 60.1186 39.5597 59.901 40.7998 59.7024C45.1312 59.0089 45.3475 58.9735 46.6786 58.7407C47.1658 58.6555 48.2892 58.4762 49.1751 58.3422C52.1019 57.8996 54.254 57.4605 54.5304 57.2494C54.6411 57.1649 54.7317 56.9197 54.7317 56.7045C54.7317 56.4041 54.5916 56.2557 54.1277 56.0647C53.3301 55.7362 52.7202 55.4737 51.7941 55.0601C51.3743 54.8726 50.9866 54.7192 50.9326 54.7192C50.8785 54.7192 50.5878 54.6105 50.2866 54.4776C49.9853 54.3447 49.4866 54.1246 49.1784 53.9885C48.8703 53.8523 48.3252 53.6376 47.9671 53.5112C47.3275 53.2856 47.0398 53.165 45.5127 52.4831C45.0929 52.2956 44.7052 52.1422 44.6512 52.1422C44.5971 52.1422 44.3246 52.0419 44.0454 51.9194C42.9358 51.4321 42.0391 51.0478 41.0012 50.6148C39.7614 50.0975 39.5883 49.7268 40.4375 49.4075C40.7254 49.2992 41.1059 49.1527 41.283 49.082C41.4602 49.0113 41.8588 48.8664 42.1689 48.7599C42.4789 48.6535 42.8775 48.5089 43.0547 48.4386C43.2319 48.3683 43.7392 48.1888 44.1821 48.0397C44.6251 47.8905 45.1324 47.7064 45.3096 47.6305C45.4867 47.5546 46.2115 47.3005 46.9202 47.066C47.6289 46.8315 48.3536 46.5804 48.5308 46.508C48.708 46.4357 49.0704 46.3028 49.3361 46.2127C50.3318 45.8751 52.2468 45.1858 52.5574 45.0533C52.8504 44.9282 54.6561 44.2896 56.5034 43.6577C57.4335 43.3396 57.6308 43.1713 57.6308 42.6964C57.6308 42.4417 57.5052 42.2617 57.2633 42.1698C57.0612 42.0929 55.4123 41.9482 53.5991 41.8482C51.786 41.7482 49.8314 41.6284 49.2556 41.582C47.8235 41.4666 43.4684 41.2077 41.122 41.0986C38.1909 40.9622 38.3723 41.1318 38.238 38.4019C37.9425 32.3946 37.8073 29.2569 37.7188 26.3581L37.6226 23.2032L50.1634 23.0966C57.0609 23.0379 67.9503 22.942 74.3621 22.8835L86.0199 22.777L85.9045 24.3734C85.5577 29.1691 84.6128 33.5456 82.9168 38.2104C82.1237 40.3917 79.5185 45.2112 78.3024 46.7466C78.0919 47.0124 77.8665 47.3026 77.8014 47.3916C72.8277 54.1883 64.348 59.6423 55.5267 61.7182C54.3825 61.9875 49.9611 62.0188 44.4237 61.797Z" fill="#A9A5B4"/>
<path d="M29.3533 91.2621C29.286 91.1532 29.4914 87.5258 29.9449 80.8113C30.0317 79.5268 30.1667 77.4974 30.245 76.3015C30.6404 70.2577 30.7386 69.1454 30.8901 68.9939C31.0795 68.8045 31.1479 68.8837 32.402 70.7449C35.017 74.6258 38.6571 79.7692 38.8749 79.8911C39.2872 80.1218 39.592 79.7179 39.592 78.9408C39.592 78.2428 39.2337 74.3495 38.6916 69.157L38.6099 68.3745L60.3208 68.4862C72.3487 68.5482 82.2887 68.6631 82.6078 68.7441C83.3403 68.9297 83.6459 69.462 83.4973 70.2932C83.437 70.6302 83.3219 71.7032 83.2414 72.6777C83.1058 74.3184 82.8203 77.534 82.4262 81.8582C82.2701 83.5718 82.1744 84.6564 81.7867 89.1049C81.6864 90.2559 81.5918 91.2077 81.5765 91.22C81.4592 91.3143 29.4115 91.3562 29.3533 91.2621ZM100.517 85.3236L89.0451 85.2405L88.6061 84.8013L88.167 84.3622L88.3609 83.0213C88.4675 82.2838 88.5548 81.4815 88.5548 81.2385C88.5548 80.9841 88.7225 80.6289 88.9501 80.4013L89.3454 80.006H115.417H141.488L141.862 80.4044L142.237 80.8029L141.978 82.6113C141.806 83.8141 141.617 84.557 141.414 84.83L141.107 85.2405L136.695 85.3397C131.688 85.4523 117.394 85.446 100.517 85.3236ZM137.437 76.189C136.374 76.1653 130.503 76.0648 124.391 75.9658C94.9223 75.4883 89.238 75.3378 88.8517 75.0251C88.4471 74.6974 88.4297 73.8868 88.7892 72.0975C89.2306 69.9 89.381 69.4068 89.6969 69.121C90.0512 68.8003 90.6242 68.8092 115.694 69.5229C118.706 69.6087 124.359 69.7581 128.256 69.8549C132.154 69.9518 136.935 70.1001 138.88 70.1846C142.11 70.3249 142.445 70.3666 142.745 70.6667C142.994 70.9158 143.067 71.1794 143.045 71.7559C143.009 72.74 142.678 74.9947 142.506 75.4385C142.293 75.9869 141.463 76.3061 140.352 76.2669C139.812 76.2479 138.5 76.2128 137.437 76.189ZM30.978 14.8162C31.1794 13.6321 31.3778 11.7725 31.3778 11.0694C31.3778 10.6381 31.4503 10.2404 31.5389 10.1857C31.6275 10.131 31.7 9.87004 31.7 9.60589C31.7 9.10169 32.2178 7.35986 32.6528 6.40075C33.5376 4.45012 35.448 2.56467 37.4982 1.61865C38.4032 1.20103 40.1812 0.692516 41.4442 0.49004C42.7027 0.288279 152.236 0.353838 153.302 0.556988C155.145 0.908469 155.622 1.15294 156.851 2.37636C157.538 3.06026 157.811 3.47977 158.038 4.20153C158.433 5.45619 158.455 8.01909 158.093 10.5352C157.938 11.6133 157.811 12.7952 157.811 13.1617C157.811 13.5282 157.73 14.15 157.631 14.5436L157.451 15.2591H94.1768H30.9027L30.978 14.8162ZM41.1663 9.94343C41.8556 9.52321 42.0878 8.92113 41.8581 8.14994C41.647 7.44127 41.0925 7.045 40.3118 7.045C39.2077 7.045 38.4739 7.70697 38.4681 8.70827C38.4605 10.0247 39.9299 10.6973 41.1663 9.94343ZM51.2091 10.0139C51.4807 9.87351 51.7986 9.51834 51.9263 9.21287C52.1272 8.73189 52.1246 8.58667 51.9049 8.03748C51.6209 7.32778 51.1441 7.045 50.2315 7.045C48.9871 7.045 48.2448 8.31894 48.7909 9.51746C49.1242 10.2489 50.2913 10.4886 51.2091 10.0139ZM61.8624 9.77132C62.3732 9.35027 62.4628 9.18017 62.4628 8.6315C62.4628 7.73637 61.7803 7.045 60.8966 7.045C59.6311 7.045 58.9921 7.66641 59.0236 8.86663C59.0594 10.2321 60.6777 10.7478 61.8624 9.77132Z" fill="#8456FF"/>
<path d="M38.935 9.79534C37.8434 8.70375 38.6736 7.0449 40.3115 7.0449C41.0921 7.0449 41.6467 7.44117 41.8578 8.14984C42.0875 8.92103 41.8554 9.5231 41.166 9.94333C40.3734 10.4266 39.5089 10.3692 38.935 9.79534ZM49.314 10.0778C48.8787 9.86698 48.6111 9.28594 48.6111 8.55149C48.6111 7.74983 49.3691 7.0449 50.2312 7.0449C51.1438 7.0449 51.6206 7.32767 51.9045 8.03737C52.1243 8.58657 52.1269 8.73179 51.9259 9.21277C51.5518 10.1082 50.2602 10.5359 49.314 10.0778ZM59.5032 9.89424C58.6933 9.24614 58.8927 7.69264 59.8432 7.24622C61.1131 6.64972 62.4624 7.36329 62.4624 8.6314C62.4624 9.18006 62.3728 9.35016 61.862 9.77122C61.1013 10.3982 60.1923 10.4456 59.5032 9.89424Z" fill="#2D00A6"/>
</svg>
